<?xml version="1.0" encoding="utf-8"?>
<!-- Generator: Adobe Illustrator 16.0.4, SVG Export Plug-In . SVG Version: 6.00 Build 0)  -->
<!DOCTYPE svg PUBLIC "-//W3C//DTD SVG 1.1//EN" "http://www.w3.org/Graphics/SVG/1.1/DTD/svg11.dtd">
<svg version="1.1" id="Layer_1" xmlns="http://www.w3.org/2000/svg" xmlns:xlink="http://www.w3.org/1999/xlink" x="0px" y="0px"
	 width="792px" height="612px" viewBox="0 0 792 612" enable-background="new 0 0 792 612" xml:space="preserve">
<path fill="#EFEDED" d="M720.173,181.021c0.243,1.804-0.213,2.423-2.331,2.332c-4.558-0.196-9.152-0.066-13.697,0.339
	c-1.01,0.089-2.639,1.842-2.675,2.873c-0.27,7.904-0.146,15.821-0.296,23.73c-0.073,3.835-0.745,7.672-0.64,11.493
	c0.098,3.476,1.04,6.919,1.306,10.4c0.169,2.225-0.234,4.49-0.345,6.739c-0.074,1.562,0.09,3.158-0.18,4.681
	c-0.182,1.016-0.855,2.703-1.445,2.764c-4.358,0.451-6.81,2.363-6.749,7.036c0.014,1.046-0.572,2.303-1.279,3.12
	c-2.85,3.298-2.189,6.337,0.614,9.558c3.491-0.59,7.206-1.216,11.041-1.863c0.719-3.414-2.892-7.381,0.956-10.648
	c1.547,3.167,3.229,6.163,4.495,9.327c1.309,3.274-0.434,5.735-3.952,5.965c-1.284,0.084-2.604,0.077-3.869-0.129
	c-6.31-1.032-7.031-0.624-9.297,5.452c-0.345,0.925-0.782,1.838-1.325,2.661c-2.284,3.465-2.01,6.607,0.997,9.344
	c0.452,0.412,1.274,0.656,1.895,0.603c3.077-0.263,6.144-0.652,9.742-1.057c0.277-1.932,0.423-4.331,1.004-6.619
	c0.657-2.585,1.345-5.289,2.697-7.531c1.078-1.786,3.731-4.462,4.714-4.101c2.448,0.9,5.293,2.913,6.24,5.198
	c1.567,3.782,2.502,7.802,1.257,12.409c-0.975,3.605,0.193,7.924,0.93,11.828c1.582,8.402,0.979,13.31-5.491,17.126
	c-0.886,0.523-1.647,2.65-1.308,3.633c1.996,5.742,2.987,11.449,1.213,17.44c-0.265,0.896,0.176,1.978,0.18,2.974
	c0.022,5.184,0.011,10.366,0.011,16.487c4.091,3.151,8.812,7.374,7.467,14.983c-0.871,4.925-1.236,9.9-7.024,12.019
	c-2.32,0.849-2.896,2.091-1.168,4.884c3.558,5.742,5.927,12.131,1.979,18.79c-0.799,1.348-2.521,2.145-4.126,3.444
	c7.406,5.021,5.787,12.573,5.332,19.741c-0.171,2.688-0.396,4.954,2.234,6.836c0.946,0.678,0.838,2.833,1.292,4.636
	c0.58-0.359,1.267-0.787,2.057-1.277c0.806,1.459,1.6,2.901,2.395,4.344c0.127,0.109,0.25,0.222,0.375,0.334
	c0.267,4.504-0.25,5.006-4.269,3.56c-3.061-1.102-5.555-1.214-8.248,1.3c-0.997,0.933-4.732,0.771-5.448-0.197
	c-1.834-2.485-4.222-5.614-1.711-8.953c1.847-2.453,3.938-4.413,1.729-7.819c-0.362-0.562,0.956-2.997,2.031-3.574
	c6.227-3.353,6.713-8.928,1.137-13.524c-1.464-1.207-2.714-2.883-3.559-4.592c-1.694-3.438-4.636-2.076-7.158-2.137
	c-1.682-0.039-3.383,0.635-5.06,0.566c-4.701-0.189-7.39,2.778-6.46,7.401c0.252,1.252,0.889,2.514,0.794,3.727
	c-0.114,1.474-0.45,3.854-1.327,4.192c-5.319,2.058-10.271,6.449-16.714,3.086c-1.311-0.685-3.215-0.279-4.846-0.298
	c-6.69-0.073-13.382-0.095-20.07-0.212c-0.604-0.01-1.201-0.568-1.935-2.009c1.783-0.432,3.547-1.087,5.354-1.258
	c10.093-0.951,20.194-1.791,30.294-2.654c2.056-0.175,2.997-0.942,3.595-3.251c0.997-3.854,2.923-7.469,4.853-12.142
	c-1.857-3.653-5.048-6.76-11.291-6.146c-4.438,0.438-9.028-0.928-13.521-0.752c-4.409,0.174-8.771,1.36-13.171,1.957
	c-7.715,1.044-15.418,2.413-23.17,2.848c-9.689,0.541-19.426,0.344-29.142,0.342c-14.071-0.004-28.146-0.312-42.212-0.09
	c-5.716,0.089-11.406,1.298-17.122,1.866c-3.396,0.34-5.479,2.064-6.419,5.278c-0.08,0.272,0.021,0.677-0.143,0.835
	c-1.507,1.464-3.055,2.887-4.589,4.321c0.406-1.743,0.449-3.69,1.292-5.188c1.985-3.529-0.294-6.648-0.494-9.95
	c-0.061-0.979-0.176-1.958-0.265-2.937c1.143,0.162,3.038-0.032,3.31,0.541c2.568,5.446,7.247,3.348,11.238,3.263
	c9.668-0.205,19.33-0.657,28.996-0.941c7.297-0.216,14.598-0.314,21.895-0.486c13.168-0.31,26.361-0.227,39.492-1.096
	c9.065-0.601,18.015-2.797,27.069-3.762c5.808-0.617,11.715-0.443,17.574-0.344c4.86,0.083,10.927-3.857,11.677-8.523
	c0.24-1.489-0.989-3.399-1.946-4.855c-1.497-2.281-3.336-4.344-4.465-6.992c4.947,1.199,8.356,3.893,9.057,8.061
	c4.97-1.254,9.754-2.463,14.175-3.578c0-4.604,0.151-9.042-0.092-13.458c-0.074-1.328-1.078-3.563-1.955-3.724
	c-4.003-0.723-8.183-1.471-12.165-1.023c-4.067,0.454-5.19,3.118-3.955,7.266c1.01,3.391-0.465,4.301-3.556,4.564
	c-11.179,0.955-22.332,2.251-33.521,3.041c-3.628,0.256-7.336-0.645-11.008-1.016c-0.004-0.438-0.007-0.875-0.011-1.312
	c5.362-0.658,10.726-1.312,16.087-1.975c7.855-0.967,15.704-2.008,23.571-2.866c2.438-0.267,3.498-1.496,3.867-3.733
	c0.139-0.838,0.272-1.865,0.811-2.415c2.908-2.981,3.074-6.079,0.851-9.501c-2.503-3.852-6.301-3.951-10.268-3.734
	c-6.811,0.373-13.616,0.834-20.432,1.015c-6.547,0.174-13.102,0.022-19.651,0.041c-16.032,0.045-32.066-0.022-48.098,0.206
	c-9.169,0.131-18.329,0.826-27.498,1.128c-6.266,0.206-12.539,0.202-18.81,0.207c-1.056,0-2.111-0.437-3.166-0.671
	c-0.144-0.453-0.285-0.906-0.427-1.359c1.511-0.705,3.006-1.98,4.536-2.021c9.971-0.274,19.949-0.406,29.925-0.336
	c8.001,0.057,16.001,0.722,23.998,0.656c11.597-0.094,23.188-0.639,34.783-0.922c9.322-0.229,18.657-0.146,27.969-0.591
	c7.334-0.349,14.714-0.853,21.936-2.093c6.136-1.055,9.233-11.874,5.037-16.436c-0.645-0.701-2.053-1.029-3.087-0.988
	c-12.008,0.457-24.009,1.049-36.017,1.523c-1.686,0.067-3.414-0.152-5.075-0.479c-8.962-1.756-17.989-0.873-27.006-0.902
	c-7.214-0.023-14.425-0.914-21.641-0.968c-6.716-0.052-13.445,0.854-20.152,0.684c-8.06-0.207-16.118-0.946-24.143-1.794
	c-3.02-0.318-3.465,1.35-4.357,3.419c-1.009,2.334-2.528,4.447-3.826,6.656c-0.628-0.302-1.256-0.603-1.884-0.903
	c0.499-1.555,0.897-3.15,1.52-4.654c1.113-2.693,1.69-6.408,3.743-7.688c1.952-1.215,5.502,0.212,8.354,0.348
	c6.849,0.324,13.697,0.705,20.552,0.82c8.649,0.146,17.306-0.018,25.957,0.102c2.835,0.039,5.667,0.803,8.494,0.768
	c5.497-0.066,10.989-0.689,16.482-0.666c5.999,0.027,11.993,0.727,17.993,0.777c12.157,0.105,24.315,0.025,36.474-0.086
	c5.354-0.049,11.539-4.541,11.271-9.314c-0.198-3.503-2.559-7.203-4.858-10.096c-0.807-1.013-4.429-0.276-6.556,0.362
	c-3.386,1.016-12.922-0.784-16.298-4.192c4.812,0.315,8.827,0.945,12.796,0.734c3.885-0.206,7.724-1.27,11.938-2.021
	c-0.94-2.195-1.491-3.478-2.239-5.223c1.438,0,2.235-0.096,3.003,0.018c2.575,0.381,3.045-0.966,2.356-2.987
	c-0.717-2.108-1.651-4.143-2.531-6.193c-1.021-2.379-2.387-4.045-5.438-3.875c-3.86,0.216-7.775,0.282-11.612-0.112
	c-8.021-0.824-16.008-1.999-24.011-3.009c-0.984-0.124-2.008-0.292-2.971-0.15c-4.232,0.627-4.782,0.242-5.771-5.082
	c5.77,0.802,11.299,1.766,16.87,2.305c9.633,0.932,19.282,1.761,28.943,2.302c3.818,0.215,6.85-2.764,7.344-6.215
	c0.42-2.927-2.393-7.118-5.693-8.215c-2.984-0.992-6.054-1.735-9.048-2.703c-0.701-0.227-1.252-0.916-1.87-1.391
	c0.065-0.401,0.132-0.801,0.198-1.201c1.788,0.143,3.588,0.486,5.361,0.386c3.173-0.178,6.955,0.361,9.36-1.165
	c4.729-2.998,3.894-8.871-0.821-12.183c-1.582-1.111-3.012-2.74-3.917-4.448c-1.817-3.427-4.002-3.282-7.494-1.107
	c-2.686,1.671-6.416,1.831-9.734,2.279c-4.324,0.583-8.701,0.789-13.197,1.169c-1.139-1.635-2.465-3.539-3.79-5.442
	c-0.481,0.173-0.966,0.348-1.447,0.521c0.539,1.317,1.078,2.634,1.72,4.2c-7.501,1.899-10.434-6.496-16.652-7.749
	c-0.89,3.239-3.053,2.608-5.266,1.314c-3.811-2.23-7.448-5.03-12.234-4.205c-1.502,0.259-2.889,1.188-4.33,1.807
	c-1.285,0.552-2.535,1.419-3.871,1.583c-3.411,0.418-6.88,0.834-10.291,0.643c-2.406-0.136-4.597-1.308-4.757-4.459
	c-0.049-0.958-0.815-2.403-1.611-2.716c-5.49-2.166-11.062-4.14-16.646-6.057c-1.151-0.395-2.478-0.291-3.668-0.411
	c-1.553,5.923-3.34,7.675-7.378,7.47c-7.89-0.402-8.279-0.66-8.948-5.93c1.042,0.557,3.059-2.681,3.403,0.882
	c0.028,0.292,1.083,0.721,1.634,0.684c1.999-0.134,3.986-0.44,5.902-0.672c-0.398-2.062-1.155-4.252-1.193-6.456
	c-0.206-11.973-0.104-23.952-0.387-35.923c-0.122-5.191-0.902-10.365-1.39-15.548c-0.039-0.421-0.319-0.971-0.146-1.239
	c3.262-5.018,0.801-10.381,1.073-15.578c0.276-5.285-1.488-10.221-0.562-15.855c1.689-10.275,1.186-20.935-1.225-32.64
	c-3.369,2.002-6.279,3.482-8.906,5.36c-2.714,1.939-5.022,4.171-2.216,7.957c0.739,0.996,0.517,2.763,0.589,4.184
	c0.254,5.004,0.744,10.022,0.593,15.019c-0.291,9.586,3.138,18.978,1.027,28.699c-0.832,3.833-0.438,7.987-0.229,11.976
	c0.218,4.151,1.051,8.269,1.313,12.42c0.511,8.088-0.123,16.391,1.553,24.211c1.003,4.683,1.19,8.484-0.751,12.601
	c-2.562,0.649-5.146,1.926-7.679,1.833c-8.215-0.304-8.207-0.498-9.271-8.501c-3.171,0.358-6.486-2.609-9.664,1.438
	c-0.873,1.112-4.549,0.103-6.93-0.065c-3.02-0.213-6.027-0.711-9.048-0.805c-2.643-0.083-5.736-2.919-5.958-5.765
	c-0.064-0.834-0.241-1.701-0.568-2.468c-1.955-4.586-1.976-10.094,0.54-15.827c-14.689,0.66-28.84,0.875-42.906,2.071
	c-9.923,0.843-19.692,3.341-29.602,4.512c-11.854,1.401-23.776,2.23-35.678,3.192c-4.9,0.396-10.006,1.444-14.705,0.548
	c-14.039-2.675-27.912,0.679-41.869,0.296c-11.393-0.312-22.813,0.475-34.224,0.732c-12.856,0.29-25.719,0.377-38.567,0.854
	c-6.805,0.252-13.582,1.562-20.379,1.638c-7.412,0.083-14.831-0.772-22.251-1.088c-2.537-0.108-5.09,0.167-7.636,0.285
	c-12.709,0.585-25.428,1.015-38.123,1.831c-6.526,0.42-12.999,2.089-19.512,2.195c-8.234,0.135-16.493-1.19-24.726-1.044
	c-5.933,0.105-11.824,1.744-17.767,2.409c-6.516,0.728-13.063,1.227-19.61,1.62c-3.383,0.204-6.794-0.135-10.189-0.046
	c-3.763,0.097-7.194,6.279-5.449,9.558c2.845,5.345,7.095,8.63,13.304,8.295c9.188-0.496,18.358-1.343,27.537-2.022
	c2.534-0.187,5.074-0.451,7.61-0.431c12.432,0.094,24.863,0.367,37.295,0.377c6.261,0.005,12.521-0.466,18.784-0.612
	c1.81-0.042,3.628,0.297,5.442,0.461c0.015,0.582,0.03,1.165,0.046,1.748c-3.81,0.513-7.605,1.294-11.431,1.486
	c-9.216,0.464-18.45,0.962-27.671,0.868c-10.03-0.102-20.057-1.257-30.078-1.172c-5.934,0.05-11.883,1.45-17.772,2.536
	c-6.23,1.149-12.343,1.666-18.654-1.389c1.978,5.266-1.044,8.586-3.667,11.942c0.79,1.708,1.583,3.426,2.183,4.721
	c-6.432-0.917-12.341-1.76-18.815-2.684c0,2.629,0,4.166,0,6.417c-1.396-0.889-2.115-1.624-2.961-1.828
	c-1.654-0.396-3.607-1.12-5.032-0.601c-4.225,1.54-6.661,11.947-3.903,15.545c1.53,1.997,5.261,1.669,6.488-0.886
	c0.893-1.86,1.058-4.082,1.458-6.158c0.304-1.58,0.466-3.187,1.296-4.766c3.58,4.392,2.273,9.098,0.732,14.257
	c5.363-0.418,10.73,0.705,14.867-2.976c3.867-3.441,5.753-8.039,4.016-14.526c2.247,1.079,3.702,1.293,4.019,2.009
	c1.936,4.372,5.874,4.283,9.496,4.173c12.974-0.392,25.936-1.39,38.91-1.528c12.307-0.13,24.621,0.617,36.934,0.818
	c8.874,0.145,17.753,0.029,26.7,0.029c0.74-0.658,1.792-2.42,2.945-2.49c17.264-1.051,34.533-2.095,51.817-2.663
	c8.263-0.272,16.563,0.363,24.838,0.754c10.271,0.487,20.534,1.134,30.799,1.737c8.967,0.528,17.924,1.304,26.896,1.585
	c10.784,0.338,21.581,0.346,32.371,0.355c12.058,0.01,24.121,0.052,36.172-0.268c12.939-0.344,25.88-0.912,38.798-1.736
	c6.979-0.445,13.909-1.646,20.867-2.461c0.987-0.115,2.247-0.333,2.953,0.139c1.056,0.706,1.73,1.98,2.568,3.012
	c-1.008,0.614-2.102,1.865-3.013,1.743c-10.243-1.369-20.136,1.512-30.195,2.208c-10.518,0.727-21.088,0.709-31.638,0.969
	c-9.829,0.242-19.752-0.316-29.452,0.918c-5.36,0.683-9.962-1.47-15.05-1.281c-6.974,0.26-13.978-0.266-20.968-0.518
	c-9.331-0.338-18.662-0.672-27.988-1.128c-7.704-0.376-15.701,0.223-23.022-1.694c-9.251-2.421-17.978-0.2-26.939,0.108
	c-2.669,0.092-5.366-0.713-8.042-0.663c-4.994,0.094-9.979,0.693-14.972,0.762c-9.481,0.131-18.966,0.038-28.45,0.038
	c0.324,0.457,0.649,0.912,0.973,1.368c-0.319,0.898-0.459,2.438-0.988,2.584c-2.55,0.711-5.201,1.419-7.822,1.444
	c-8.177,0.081-16.362-0.017-24.536-0.29c-10.264-0.343-20.516-1.125-30.781-1.351c-9.239-0.204-18.49,0.03-27.735,0.18
	c-7.518,0.123-15.12-0.193-22.514,0.872c-3.723,0.537-8.93-2.46-11.276,2.816c-1.575,3.543-2.347,7.443-3.614,11.633
	c-4.442-5.345-10.309-5.584-16.57-3.33c2.112,7.349,6.077,14.783,0.618,22.491c7.461,2.783,13.461,0.364,18.454-5.595
	c0.367,0.181,0.733,0.362,1.1,0.542c-0.457,1.501-0.894,3.007-1.375,4.499c-0.54,1.676-1.12,3.339-1.427,4.25
	c-4.73,0.361-9.458,0.571-14.122,1.233c-0.749,0.107-1.505,2.188-1.714,3.447c-0.173,1.038,0.459,2.21,0.734,3.323
	c-0.392,0.178-0.784,0.356-1.176,0.535c-0.652-0.938-1.315-1.867-1.954-2.814c-1.443-2.137-3.043-2.062-4.314-0.001
	c-3.138,5.085-1.285,13.203,4.671,17.893c1.193-4.357,2.271-8.293,3.353-12.242c3.766,2.809,3.393,6.859-1.3,14.25
	c3.668,2.392,6.718,0.315,9.98-1.582c1.525,3.039,1.624,4.947-2.217,5.598c-3.829,0.646-7.601,1.627-11.507,2.484
	c2.303,4.965,4.29,9.396,3.328,14.818c-0.914,5.153,6.1,9.316,11.964,6.771c2.791-1.213,7.241-0.363,8.186-4.752
	c0.4-1.859,0.364-3.813,0.559-6.104c3.293,0.961,4.913,2.267,3.35,5.257c-1.103,2.108-2.641,4.003-3.621,6.158
	c-0.608,1.338-1.185,3.318-0.62,4.415c0.836,1.623,2.599,3.72,4.141,3.874c9.936,0.996,19.921,1.486,29.883,2.236
	c1.231,0.095,2.418,0.756,3.626,1.156c-0.068,0.5-0.136,0.998-0.203,1.497c-11.426,0-22.853,0-33.422,0
	c-1.891,4.972-3.622,9.362-5.197,13.81c-0.288,0.812,0.144,1.853,0.097,2.779c-0.125,2.459-0.331,4.914-0.504,7.373
	c-0.545,0.146-1.09,0.293-1.634,0.438c-1.287-2.374-2.907-4.634-3.773-7.152c-1.016-2.956-2.401-3.608-5.453-2.923
	c-3.126,0.703-6.462,0.473-10.679,0.704c-0.27,0.616-0.952,2.442-1.866,4.144c-0.455,0.848-1.208,1.826-2.047,2.123
	c-4.067,1.443-5.374,5.907-2.646,9.342c1.172,1.478,2.207,3.062,3.303,4.599c-0.404,0.51-0.809,1.021-1.213,1.533
	c-1.819-1.037-4.28-1.644-5.33-3.199c-2.492-3.69-1.25-11.261,2.206-14.073c2.505-2.037,2.069-3.076-0.166-4.861
	c-5.35-4.274-5.533-13.297-1.065-18.561c1.811-2.133,2.71-5.117,3.659-7.842c0.216-0.618-0.926-1.953-1.719-2.641
	c-5.264-4.561-6.9-15.496-2.462-20.728c1.665-1.963,4.838-2.644,7.359-3.927c-1.799-4.035-3.98-8.538-5.77-13.192
	c-0.5-1.302-0.042-3.101,0.324-4.583c0.937-3.794,2.077-7.539,3.106-11.31c0.057-0.21-0.105-0.526-0.247-0.738
	c-2.444-3.659,0.511-5.124,2.948-5.474c2.946-0.424,3.68-1.896,3.615-4.233c-0.083-2.985-0.011-6.098-0.866-8.893
	c-0.561-1.833-2.642-3.203-4.507-5.303c-3.217,6.098-3.172,11.057-0.344,16.035c-4.322,1.411-6.155-0.198-5.563-4.674
	c0.458-3.463,0.721-6.953,1.15-11.226c-4.774-4.195-6.647-10-4.635-17.533c1.736-6.496,6.864-8.883,11.77-11.421
	c2.382-1.232,3.112-2.343,3.234-4.724c0.189-3.686-0.786-7.564,0.907-11.052c0.583-0.029,1.167-0.058,1.751-0.087
	c0.737,5.088,1.475,10.177,2.277,15.714c3.683,1.048,6.737-0.473,7.807-5.485c0.174-0.817,0.534-1.666,1.035-2.328
	c1.091-1.44,3.483-2.989,3.271-4.1c-0.479-2.517-1.937-4.995-3.491-7.129c-3.191-4.379-3.011-10.545,1.265-13.624
	c2.007-1.445,4.848-2.327,7.342-2.399c13.008-0.377,26.026-0.402,39.04-0.589c0.839-0.012,1.753-0.203,2.496-0.58
	c9.967-5.053,20.645-1.516,30.944-2.542c4.933-0.491,9.943-0.242,14.918-0.268c9.54-0.05,19.085,0.098,28.62-0.158
	c3.803-0.101,7.577-1.103,11.376-1.6c3.673-0.48,7.369-1.23,11.043-1.168c7.691,0.13,15.372,0.938,23.063,1.037
	c5.283,0.068,10.575-0.589,15.863-0.923c12.604-0.795,25.207-1.644,37.817-2.333c1.96-0.107,3.956,0.726,5.942,0.762
	c5.942,0.107,11.891,0.12,17.834,0.014c12.14-0.216,24.276-0.58,36.417-0.782c4.443-0.075,9-0.457,13.319,0.324
	c12.227,2.211,24.054-0.706,36.028-1.984c12.103-1.292,24.259-2.123,36.335-3.622c8.86-1.1,17.591-3.265,26.452-4.358
	c5.838-0.72,11.807-0.517,17.716-0.476c6.258,0.043,12.518,0.611,18.768,0.488c2.838-0.055,3.788,1.154,5.096,3.34
	c4.037,6.748,2.867,13.412,0.092,20.232c2.893,1.106,5.016,2.9,7.413-0.976c0.781-1.263,5.168-0.315,7.905-0.336
	c0.841-0.006,1.684,0.125,3.181,0.246c-0.786-27.659-1.566-55.095-2.347-82.532c-0.434-0.221-0.864-0.44-1.297-0.661
	c-1.513,1.298-3.169,2.465-4.491,3.933c-1.132,1.257-1.746,2.968-2.829,4.281c-2.033,2.467-2.852,4.876-1.803,8.199
	c0.763,2.417,0.243,5.221,0.431,7.843c0.188,2.632,0.541,5.252,0.822,7.877c-0.609,0.145-1.219,0.289-1.827,0.433
	c-0.693-2.591-1.568-5.152-2.031-7.785c-0.493-2.805-0.597-5.678-0.98-9.675c-2.661,2.311-4.837,3.963-6.72,5.899
	c-1.941,1.996-3.601,4.268-5.368,6.401c3.898,1.449,4.347,4.479,0.855,9.197c-1.073-1.629-2.031-3.082-2.596-3.94
	c-16.717,0.897-33.075,1.693-49.425,2.681c-11.052,0.668-22.158,1.074-33.111,2.55c-15.283,2.059-30.607,1.005-45.89,1.791
	c-5.638,0.29-11.199,1.858-16.826,2.616c-9.025,1.215-18.053,2.521-27.121,3.28c-12.299,1.027-24.641,1.528-36.957,2.359
	c-3.231,0.218-6.437,0.816-9.615,1.965c17.915-0.557,35.83-1.114,53.744-1.671c0.11,0.27,0.222,0.54,0.333,0.81
	c-1.379,0.514-2.733,1.38-4.143,1.483c-9.4,0.685-18.812,1.214-28.222,1.779c-9.397,0.565-18.791,1.262-28.197,1.615
	c-6.147,0.231-12.315-0.128-18.473-0.071c-5.39,0.05-10.777,0.406-16.168,0.455c-8.873,0.081-17.748,0.022-27.069,0.022
	c0.441-1.421,0.733-2.358,1.189-3.825c-3.821,0-7.417,0-12.152,0c2.115,0.979,3.097,1.434,5.459,2.529
	c-2.587,0.888-3.989,1.715-5.442,1.815c-19.151,1.31-38.311,2.478-57.462,3.787c-3.259,0.223-6.471,1.17-9.729,1.369
	c-4.042,0.245-8.11,0.059-12.167,0.059c-0.033-0.755-0.067-1.511-0.1-2.266c19.943-1.75,39.886-3.5,59.83-5.249
	c-0.034-0.403-0.068-0.807-0.103-1.21c-42.229,2.043-84.458,4.087-126.615,6.128c0.134,1.707,0.204,3.173,0.375,4.627
	c0.231,1.969,0.13,3.861,3.226,4.022c1.93,0.1,3.988,1.504,5.55,2.837c0.531,0.454,0.074,2.717-0.596,3.703
	c-0.464,0.684-2.064,0.596-3.499,0.933c0.356,5.367-0.441,10.213-5.297,13.616c-4.34,3.041-8.046,2.126-9.826-2.867
	c-2.237-6.276,1.667-15.809,6.708-17.454c-0.526-2.962-1.04-5.851-1.597-8.987c-3.068,0.149-6.903,0.451-10.74,0.487
	c-3.476,0.033-5.853-1.74-6.024-5.299c-0.055-1.127,1.404-3.328,2.187-3.335c6.336-0.062,10.86-4.143,15.894-6.916
	c8.237-4.537,16.294-9.412,24.286-14.371c2.643-1.64,4.708-4.192,7.294-5.947c3.414-2.317,7.313-3.955,10.594-6.427
	c7.375-5.56,14.232-11.833,21.789-17.118c10-6.995,20.46-13.334,30.75-19.91c0.612-0.391,1.476-0.389,2.511,0.116
	c-2.588,1.485-5.369,2.715-7.732,4.5c-13.361,10.094-26.591,20.363-39.941,30.471c-3.062,2.319-6.407,4.267-9.652,6.339
	c-14.141,9.029-28.299,18.035-42.434,27.074c-1.048,0.669-1.966,1.542-3.126,2.465c3.043,0.636,5.739,1.507,8.48,1.681
	c2.554,0.163,5.151-0.546,7.737-0.641c3.878-0.141,7.764-0.104,11.646-0.088c1.275,0.005,2.562,0.35,3.82,0.252
	c9.819-0.764,19.633-1.587,29.446-2.416c4.329-0.365,8.653-0.789,12.981-1.169c1.187-0.104,2.378-0.145,3.568-0.216
	c0.068,0.593,0.135,1.185,0.203,1.778c-3.221,0.355-6.441,0.71-9.662,1.066c0.014,0.204,0.029,0.408,0.043,0.612
	c5.046-0.273,10.093-0.546,13.914-0.752c0.943-2.531,1.5-4.026,2.057-5.521c1.195,1.181,2.39,2.362,3.14,3.103
	c5.315-0.722,10.72-1.486,16.134-2.174c1.552-0.197,3.131-0.212,4.698-0.25c12.621-0.31,25.246-0.513,37.863-0.941
	c6.286-0.214,12.558-0.846,18.838-1.244c0.783-0.05,1.587,0.284,2.374,0.252c8.822-0.356,17.64-0.923,26.464-1.064
	c4.756-0.076,9.521,0.589,14.285,0.866c5.976,0.347,11.971,1.07,17.928,0.853c9.104-0.333,18.175-1.448,27.274-2.003
	c5.056-0.309,10.22,0.395,15.195-0.326c9.521-1.378,18.89-3.831,28.417-5.131c11.074-1.511,22.251-2.256,33.382-3.349
	c4.928-0.483,9.852-1.003,14.776-1.506c0.062,0.469,0.125,0.937,0.187,1.406c-7.944,0.906-15.889,1.812-23.832,2.719
	c0.026,0.206,0.054,0.412,0.081,0.617c14.574-0.516,29.149-1.032,43.725-1.549c0.024-0.22,0.05-0.44,0.075-0.661
	c-4.418-0.43-8.837-0.86-13.255-1.29c0.025-0.441,0.052-0.883,0.077-1.324c19.789-1.323,39.58-2.646,59.37-3.969
	c0.055,0.564,0.107,1.128,0.16,1.693c-13.624,1.286-27.249,2.572-40.874,3.857c0.046,0.42,0.091,0.84,0.138,1.261
	c13.927-1.076,27.854-2.151,41.969-3.241c1.35-4.028,5.584-3.365,8.803-3.958c7.854-1.445,15.902-1.918,23.682-3.645
	c2.825-0.627,5.242-3.555,7.597-5.706c1.994-1.823,3.541-4.129,5.471-6.035c0.66-0.652,1.88-0.738,2.845-1.082
	c0.305,0.431,0.605,0.861,0.908,1.292c-3.563,4.07-7.129,8.14-10.693,12.209c0.219,0.223,0.436,0.445,0.653,0.667
	c1.359-1.301,2.729-2.595,4.079-3.904c4.812-4.659,9.808-9.146,14.33-14.069c1.788-1.947,2.516-4.868,4.014-7.934
	c-2.04,1.69-3.639,3.016-5.237,4.342c-0.319-0.317-0.639-0.635-0.957-0.953c2.856-3.159,5.673-6.359,8.581-9.47
	c10.754-11.502,21.571-22.945,32.268-34.502c1.145-1.236,1.633-3.079,2.425-4.64c-1.934-0.658-3.849-1.792-5.807-1.872
	c-3.545-0.146-7.116,0.336-10.811,0.564c1.022-2.643,1.035-2.501,7.013-3.034c2.797-0.25,5.52-1.241,8.303-1.757
	c2.734-0.508,5.5-0.841,8.251-1.25c0.099,0.399,0.196,0.798,0.295,1.197c15.928-16.33,31.855-32.66,48.516-49.74
	c-3.605,0.401-6.148,0.936-8.687,0.907c-3.705-0.04-7.412-0.78-11.106-0.692c-6.065,0.143-12.17,0.356-18.174,1.167
	c-14.815,2.003-29.602,4.259-44.365,6.612c-10.669,1.7-21.289,3.7-31.925,5.601c-14.299,2.556-28.568,5.279-42.896,7.672
	c-8.707,1.455-17.507,2.348-26.243,3.64c-5.372,0.794-10.67,2.218-16.06,2.712c-5.453,0.5-10.979,0.192-16.475,0.267
	c-0.963,0.012-1.925,0.167-3.129-0.717c2.727-0.467,5.441-1.016,8.18-1.384c7.606-1.023,15.228-1.947,22.833-2.966
	c1.823-0.245,3.61-0.754,5.428-1.072c14.855-2.604,29.704-5.266,44.581-7.751c7.741-1.293,15.557-2.15,23.305-3.41
	c10.286-1.673,20.534-3.582,30.809-5.326c9.85-1.671,19.686-3.441,29.572-4.838c11.462-1.618,22.973-2.88,34.465-4.282
	c0.993-0.121,2.195-0.536,2.969-0.149c8.814,4.408,16.98-0.876,25.413-1.696c4.901-0.477,5.827,0.402,7.071,5.005
	c1.26,4.664,3.723,9.075,6.108,13.346c9.765,17.48,19.676,34.878,29.583,52.279c4.309,7.568,8.479,15.231,13.178,22.556
	c5.464,8.522,11.56,16.637,17.14,25.089c3.206,4.854,5.838,10.084,8.902,15.036c2.997,4.841,6.284,9.502,9.281,14.341
	c0.601,0.969,0.475,2.387,0.663,3.481c1.948,2.469,4.246,5.09,6.131,7.979c0.44,0.677-0.514,2.264-0.824,3.433
	c-0.87-0.463-1.739-0.927-2.609-1.389c-0.596-0.317-1.192-0.631-1.792-0.947c-2.509-3.4-5.195-6.684-7.491-10.222
	c-5.667-8.737-11.404-17.445-16.66-26.431c-8.794-15.034-20.176-28.514-26.559-45.028c-1.754-4.539-5.279-8.378-7.882-12.608
	c-5.595-9.099-11.161-18.216-16.62-27.397c-0.745-1.254-1.6-3.475-1.03-4.285c1.767-2.518,0.288-3.264-1.495-4.232
	c-0.983-0.534-2.288-0.964-2.786-1.823c-2.293-3.962-4.252-8.116-6.52-12.094c-4.233-7.427-4.286-7.394-11.062-2.352
	c-0.575,0.427-1.427,0.657-1.746,1.211c-0.604,1.052-1.544,2.467-1.255,3.393c2.181,6.996,4.206,14.092,7.131,20.786
	c2.077,4.753,5.642,8.834,8.249,13.382c3.547,6.188,6.613,12.655,10.25,18.788c6.252,10.546,12.578,21.062,19.256,31.342
	c7.843,12.073,16.03,23.925,24.196,35.786c3.553,5.163,7.747,9.905,11.052,15.211c2.94,4.721,5.867,6.559,11.212,4.988
	C713.935,178.456,717.259,178.091,720.173,181.021z M607.609,110.52c0.578,1.274,0.95,1.743,0.99,2.238
	c0.649,7.925,1.502,15.843,1.819,23.783c0.566,14.116,0.786,28.246,1.183,42.368c0.249,8.916,0.604,17.828,0.818,26.745
	c0.107,4.477,0.148,8.966-0.031,13.44c-0.25,6.187,2.238,6.533,7.576,7.108c2.631,0.283,3.49-0.358,3.597-2.645
	c0.214-4.552,0.521-9.108,0.475-13.66c-0.222-21.795-2.822-43.565-0.761-65.383c0.514-5.441,1.715-10.839,1.918-16.283
	c0.188-5.078-0.563-10.188-0.843-15.287c-0.937-17.151-4.381-34.244-1.221-51.498c0.087-0.473-0.254-1.119-0.573-1.555
	c-2.597-3.55-5.226-7.077-7.865-10.594c-1.61-2.143-3.348-2.165-4.679-0.738c-0.376,2.647-0.733,4.689-0.941,6.748
	c-0.415,4.114-1.054,8.238-1.036,12.355c0.02,5.118,0.784,10.23,0.908,15.352c0.174,7.221,0.085,14.449,0.026,21.673
	c-0.007,0.921-0.496,1.839-0.762,2.758c-0.524-17.833-5.56-35.29-2.594-52.749c-4.367-0.818-6.855,5.511-12.445,3.604
	c-4.188,4.757-8.693,9.878-13.2,15c0.196,0.177,0.394,0.353,0.59,0.53c3.402-3.254,6.804-6.509,10.808-10.34
	c0.799,2.715,1.521,4.303,1.704,5.95c0.708,6.368,1.347,12.748,1.812,19.138c0.417,5.708,1.366,11.53,0.693,17.134
	c-1.901,15.836-2.36,31.658-1.536,47.561c0.77,14.862,1.369,29.732,2.045,44.599c0.287,6.315,0.625,12.629,0.826,18.947
	c0.04,1.23-0.472,2.473-0.687,3.717c-0.523,3.032-1.022,6.067-1.621,9.621c4.255,0,7.368,0.275,10.387-0.145
	c1.1-0.153,2.742-1.914,2.812-3.024c0.359-5.702,0.275-11.432,0.367-17.152c0.161-9.992,0.555-19.986,0.453-29.976
	c-0.121-12.006-0.783-24.005-0.979-36.011C607.471,133.048,607.609,122.241,607.609,110.52z M592.312,221.699
	c-0.66-50.955-1.318-101.688-1.978-152.42c-0.565-0.167-1.133-0.333-1.698-0.499c-1.933,1.742-3.951,3.398-5.776,5.245
	c-3.396,3.428-7.183,6.733-4.208,12.441c0.537,1.032,0.174,2.544,0.19,3.836c0.205,14.853,0.418,29.705,0.595,44.559
	c0.057,4.68,0.01,9.361,0.01,14.042c-0.397,0.004-0.795,0.008-1.191,0.012c-1.63-20.231-3.26-40.463-4.886-60.657
	c-6.044,0.087-8.429,2.943-8.241,8.484c0.643,19.071,1.738,38.16,1.345,57.214c-0.161,7.765,2.692,15.474,0.192,23.281
	c-0.592,1.847,0.361,4.158,0.463,6.263c0.495,10.381,0.714,20.787,1.697,31.121c0.123,1.29,4.113,2.541,6.479,3.106
	c0.793,0.189,3.049-1.822,3.042-2.816c-0.086-11.474-0.491-22.945-0.779-34.417c-0.064-2.553-0.011-5.108-0.011-7.662
	c0.455,0.013,0.911,0.027,1.365,0.04c0.547,3.637,1.336,7.256,1.595,10.913c0.716,10.152,1.119,20.326,1.824,30.479
	C582.87,221.863,584.367,222.961,592.312,221.699z M654.609,133.947c0.646-0.174,1.294-0.349,1.939-0.523
	c0.576,1.081,1.631,2.152,1.651,3.244c0.168,8.466,0.16,16.936,0.16,25.405c0.001,20.289-0.029,40.578-0.029,60.867
	c0,2.423-0.207,4.908,0.248,7.255c0.598,3.085,2.753,4.476,5.977,3.803c3.718-0.777,5.39-3.099,5.388-6.866
	c-0.013-16.211,0.086-32.421,0.01-48.631c-0.021-3.984-0.798-7.965-0.787-11.945c0.017-6.853,0.244-13.711,0.658-20.551
	c0.186-3.051,0.623-5.837-1.246-8.715c-3.696-5.695-6.992-11.649-10.854-18.171c0,4.927,0,8.789,0,13.457
	c-1.186-1.021-2.22-1.482-2.256-2.012c-0.265-3.823-1.191-7.913-0.172-11.411c0.777-2.666,0.104-4.105-1.05-5.878
	c-3.677-5.658-7.414-11.278-11.324-17.211c-0.168,1.163-0.48,2.234-0.449,3.294c0.293,9.518,0.852,19.033,0.906,28.551
	c0.038,6.497-0.662,12.996-0.92,19.498c-0.283,7.108-0.665,14.224-0.604,21.332c0.155,18.191,0.079,36.405,1.033,54.559
	c0.416,7.91,2.045,12.766,11.721,10.792C654.609,200.794,654.609,167.371,654.609,133.947z M638.283,229.956
	c0-9.288-0.104-18.606,0.022-27.92c0.192-14.304,0.45-28.607,0.854-42.906c0.342-12.143,1.154-24.275,1.33-36.418
	c0.122-8.4-0.785-16.816-0.656-25.214c0.082-5.31-0.553-10.201-3.394-14.722c-2.728-4.338-4.702-9.289-10.303-12.594
	c0,6.465-0.2,12.123,0.041,17.76c0.526,12.253,1.589,24.492,1.815,36.748c0.122,6.526-1.15,13.068-1.587,19.617
	c-0.407,6.122-0.836,12.266-0.727,18.392c0.161,9.012,0.683,18.023,1.256,27.021c0.742,11.67,1.596,23.336,2.591,34.986
	C629.936,229.467,633.586,231.52,638.283,229.956z M546.032,114.089c-0.522-0.15-1.047-0.301-1.57-0.452
	c-1.138,0.935-2.349,1.797-3.396,2.822c-1.492,1.457-2.85,3.052-4.3,4.552c-0.7,0.725-2.188,1.455-2.121,2.04
	c0.545,4.588,1.776,9.12,2.046,13.713c0.699,11.971,1.625,23.98,1.323,35.946c-0.333,13.303-0.692,26.475,3.09,39.416
	c0.239,0.816-0.399,2.015-0.889,2.894c-1.38,2.49-0.123,5.311,2.621,5.459c2.25,0.121,4.512,0.024,8.156,0.024
	C547.458,184.766,548.574,149.346,546.032,114.089z M672.486,144.406c0.444,4.532,1.092,8.104,1.099,11.678
	c0.036,19.031-0.09,38.062-0.155,57.094c-0.014,4.019,0.229,8.058-0.078,12.053c-0.464,6.029,0.045,6.8,5.993,6.716
	c1.955-0.027,3.909-0.214,6.078-0.34c0-5.329,0.14-10.162-0.024-14.986c-0.516-14.991-2.062-30.017-1.428-44.954
	C684.449,160.39,678.309,153.225,672.486,144.406z M686.726,170.508c0.501,8.951,1.22,17.993,1.459,27.047
	c0.275,10.335,0.818,20.746-0.136,30.995c-0.464,4.976,0.693,8.691,2.907,12.584c0.254,0.447,0.976,0.905,1.452,0.876
	c0.518-0.032,1.234-0.515,1.463-0.992c1.814-3.815,4.052-7.491,2.088-12.103c-0.521-1.23-0.097-3.376,0.698-4.565
	c3.558-5.33,1.422-11.006,1.199-16.487c-0.322-7.874-1.994-15.763-1.594-23.568c0.243-4.725-1.416-7.68-4.192-10.526
	C690.706,172.371,688.65,171.646,686.726,170.508z M68.488,371.676c-0.664,0.432-1.327,0.861-1.99,1.293
	c-1.247-1.961-3.245-3.805-3.571-5.906c-0.534-3.442-2.811-3.791-5.174-3.879c-3.273-0.123-2.186,2.723-2.418,4.471
	c-0.225,1.689-0.211,3.445-0.049,5.146c0.359,3.779,2.276,4.65,5.457,2.531c2.13-1.42,4.217-3.842,5.911,0.509
	c0.203,0.521,1.511,1.013,2.191,0.888c4.67-0.859,9.323-1.83,13.943-2.926c0.608-0.146,1.142-1.143,1.462-1.855
	c0.804-1.788,1.465-3.643,1.933-4.831c-0.725-2.021-1.515-3.521-1.784-5.111c-0.644-3.81-2.458-6.208-6.509-6.728
	c-3.784-0.485-7.524-1.354-11.315-1.733c-1.185-0.118-2.742,0.528-3.62,1.36c-0.575,0.546-0.602,2.199-0.244,3.106
	C64.523,362.609,66.542,367.129,68.488,371.676z M710.331,298.645c-3.328-6.215-12.117-10.608-15.978-8.503
	c-2.093,1.141-6.828,12.319-6.048,14.271c2.491,6.223,9.62,8.524,17.633,5.588c0.225-3.632,0.453-7.334,0.684-11.036
	c0.554-0.033,1.107-0.065,1.662-0.098c0.661,3.43,1.324,6.861,1.982,10.277c3.556,0.426,5.87-0.621,7.163-3.751
	c1.809-4.38,1.038-7.407-3.613-11.787C712.713,295.202,711.589,296.827,710.331,298.645z M696.982,337.379
	c-6.646-0.102-9.48,2.684-10.353,10.085c-0.325,2.769,3.494,6.572,7.354,7.169c3.305,0.512,5.374-0.703,6.134-4.23
	c0.647-3.017,1.44-6.105,2.826-8.83c1.434-2.822,0.271-3.715-2.093-4.15C699.604,337.188,698.274,337.379,696.982,337.379z
	 M696.858,335.148c4.99-0.654,5.892-2.455,4.508-7.067c-0.685-2.279,0.188-4.979-0.076-7.442c-0.201-1.861-1.032-5.174-1.688-5.199
	c-2.822-0.114-6.631-0.225-8.346,1.446c-4.139,4.029-3.896,9.548-1.021,14.246C691.431,333.089,694.59,333.848,696.858,335.148z
	 M701.842,403.256c-0.236-3.394-0.801-6.395-0.55-9.326c0.257-2.992,1.316-5.916,2.155-9.418c-2.371,0.245-4.525,0.209-6.538,0.725
	c-7.37,1.896-9.9,10.947-5.347,16.927C694.901,406.547,698.2,403.362,701.842,403.256z M708.739,385.035
	c-4.881,4.203-5.133,9.359-3.832,14.384c0.49,1.895,3.192,3.479,5.237,4.514c0.49,0.249,3.092-2.067,3.453-3.521
	c0.588-2.353,0.74-5.184-0.049-7.411C712.539,390.15,710.411,387.7,708.739,385.035z M708.173,369.525
	c0.314,0.166,0.629,0.332,0.944,0.496c0,1.149-0.469,2.68,0.095,3.371c1.26,1.547,2.948,2.811,4.657,3.877
	c0.406,0.256,2.113-0.541,2.308-1.146c1.117-3.49,2.216-7.03,2.754-10.639c0.185-1.229-0.941-3.258-2.062-3.932
	c-1.525-0.914-3.722-1.777-4.975,1.02C710.822,364.967,709.426,367.214,708.173,369.525z M506.094,203.649
	c1.06,1.852,2.139,4.143,3.648,6.102c0.393,0.51,2.968,0.296,3.118-0.112c1.357-3.669,2.771-7.405,3.314-11.241
	c0.173-1.216-1.987-3.258-3.528-4.033c-0.899-0.453-3.382,0.459-3.93,1.441C507.5,197.982,507.053,200.589,506.094,203.649z
	 M58.096,332.159c-3.649,4.966-4.028,9.851-0.226,15.063c1.353,1.855,2.4,2.457,3.953,0.846
	C66.079,343.652,63.915,334.623,58.096,332.159z M712.955,287.563c0.171-0.977-0.006-2.427,0.564-2.837
	c3.702-2.655,2.045-6.333,1.915-9.618c-0.046-1.177-1.237-3.25-1.939-3.265c-1.498-0.029-3.635,0.584-4.422,1.702
	C705.763,278.239,705.058,285.768,712.955,287.563z M712.511,327.691c-0.592-3.187-0.56-5.354-1.439-7.047
	c-0.768-1.469-2.422-2.801-3.983-3.365c-0.614-0.223-2.146,1.716-3.079,2.82c-2.319,2.743-0.903,5.515,0.523,7.907
	c1.047,1.754,2.915,3.017,4.419,4.497C710.287,330.698,711.624,328.893,712.511,327.691z M58.212,213.411
	c0.496-0.743,0.914-1.685,1.602-2.347c3.506-3.377,1.7-6.852,0.044-10.135c-0.425-0.844-2.17-1.462-3.251-1.385
	c-0.732,0.052-1.67,1.408-1.965,2.353c-0.413,1.324-0.04,2.901-0.481,4.207C52.843,210.001,53.378,212.729,58.212,213.411z
	 M713.219,344.104c-1.152-1.572-2.058-3.803-2.943-3.795c-1.498,0.012-3.622,1.086-4.329,2.354c-1.133,2.03-1.524,4.562-1.817,6.933
	c-0.13,1.059,0.587,3.082,1.191,3.193c1.338,0.246,3.539,0.04,4.151-0.841C711.025,349.713,711.896,347.005,713.219,344.104z
	 M570.482,83.003c-0.206-0.266-0.412-0.531-0.618-0.797c-2.952,3.221-5.904,6.441-8.856,9.663c0.288,0.286,0.576,0.573,0.863,0.859
	C564.741,89.487,567.612,86.245,570.482,83.003z"/>
<path fill="#FFFFFF" d="M506.245,399.236c1.583-2.896,3.663-5.631,4.654-8.715c2.692-8.394-5.762-17.625-14.075-14.763
	c-2.365,0.815-4.96,0.966-8.021,1.525c0.681,1.581,0.926,2.901,1.683,3.79c5.312,6.251,5.38,9.101,0.155,16.26
	c-2.483,3.406-2.932,3.371-5.024-0.529c0.604-0.541,1.284-1.062,1.861-1.682c6.053-6.479,3.729-9.357-2.754-13.916
	c-0.667-0.471-2.11-0.779-2.1-1.13c0.172-5.675-6.867-5.847-8.14-10.69c-0.291-1.106-4.282-1.757-6.565-1.742
	c-15.368,0.097-30.734,0.438-46.102,0.67c-1.72,0.025-3.606,0.302-5.136-0.279c-7.438-2.83-10.19,4.604-15.647,6.01
	c0.152,0.586,0.307,1.172,0.46,1.76c2.952-0.455,5.905-0.91,9.405-1.451c2.112,4.651-3.751,7.711-3.302,12.725
	c1.082-0.327,2.332-0.585,3.473-1.092c0.847-0.375,1.55-1.072,2.316-1.627c0.215,1.166,0.65,2.349,0.575,3.496
	c-0.061,0.902-0.753,1.764-1.319,2.973c1.969,0.848,3.74,1.611,5.649,2.436c0.598-1.507,1.044-2.633,1.479-3.734
	c2.487,0.578,4.796,1.111,7.786,1.805c-0.42,0.893-0.645,2.418-1.519,3.062c-5.5,4.045-11.361,2.681-15.962-2.679
	c-1.405-1.637-4.537-1.761-6.842-2.669c-1.094-0.433-2.101-1.083-3.146-1.635c0.813-0.793,1.498-1.839,2.464-2.336
	c3.918-2.016,3.954-1.965,2.764-4.754c-3.037-1.396-6.283-1.83-7.006-3.415c-2.412-5.3,3.963-5.513,5.715-8.796
	c-0.798-0.367-1.789-0.823-3.45-1.588c2.213-2.603,4.12-4.846,6.66-7.832c0.581,2.276,0.849,3.318,1.114,4.361
	c-0.02,0.434-0.039,0.866-0.058,1.299c9.936,0.064,19.895,0.58,29.8,0.069c9.921-0.512,19.789-2.045,29.681-3.127
	c0.28-0.03,0.65-0.138,0.836-0.007c5.034,3.557,6.546-0.007,8.321-3.823c0.636-1.366,2.446-2.188,4.32-2.752
	c-2.15,4.919-2.562,9.457-1.052,14.313c0.944,3.035,3.11,4.367,5.426,3.011c2.606-1.528,5.512-3.99,6.379-6.664
	c0.964-2.97,1.854-7.142-2.229-9.578c-0.762-0.456-1.154-1.528-1.95-1.397c-2.483-0.451-4.968-0.9-7.79-1.412
	c0.728-1.279,1.669-2.178,1.505-2.772c-0.965-3.515-6.192-7.372-9.65-6.823c-6.06,0.959-12.028,2.51-18.098,3.396
	c-1.989,0.291-4.175-1.097-6.258-1.056c-10.817,0.215-21.785,1.438-32.359-1.067c-17.246-4.086-34.592-0.734-51.844-1.856
	c-4.54-0.297-8.956-1.277-13.315,1.521c-1.389,0.892-4.104-0.542-6.171-0.381c-3.113,0.244-6.176,1.088-9.288,1.421
	c-1.806,0.192-3.697,0.075-5.495-0.229c-4.702-0.795-9.352-2.381-14.062-2.548c-10.811-0.383-21.645-0.106-32.469-0.103
	c-7.076,0.004-14.152,0-20.438,0c0.336,2.51,1.091,4.423,0.725,6.088c-1.209,5.494,1.47,9.555,4.434,13.562
	c0.356,0.48,1.252,0.768,1.91,0.787c8.229,0.268,16.459,0.582,24.691,0.631c3.712,0.021,7.484-0.219,11.124-0.902
	c3.748-0.705,7.367-2.096,11.156-3.219c2.722,1.071,6.091,2.398,9.46,3.728c0.003,0.342,0.006,0.685,0.009,1.026
	c-1.543,0.252-3.087,0.498-4.63,0.756c-5.98,1-11.929,2.332-17.95,2.91c-5.783,0.555-11.641,0.442-17.463,0.405
	c-3.717-0.022-7.44-0.729-11.145-0.608c-3.699,0.121-7.378,0.892-10.299,1.274c1.031,4.94,2.111,9.041,2.691,13.212
	c0.506,3.635,2.622,5.491,5.879,5.604c8.123,0.28,16.266,0.004,24.388,0.313c4.527,0.172,9.022,1.123,13.543,1.619
	c2.691,0.296,5.404,0.389,9.065,0.637c0.741,2.166,1.839,5.371,3.378,9.868c-2.325-1.16-4.138-2.065-6.187-3.09
	c-0.887,1.193-1.93,2.598-2.972,4.001c-0.353-0.08-0.705-0.161-1.059-0.243c0-1.41-0.113-2.831,0.024-4.227
	c0.273-2.789-0.459-4.261-3.697-4.201c-8.858,0.16-17.721,0.089-26.583,0.041c-3.008-0.017-6.02-0.396-9.021-0.312
	c-2.271,0.062-4.53,0.602-6.793,0.929c-0.036,0.387-0.071,0.772-0.107,1.159c-0.994-0.74-1.987-1.481-3.04-2.267
	c0.208,3.188,0.649,6.256,0.482,9.291c-0.064,1.163-1.52,2.25-2.341,3.372c-0.783-1.013-2.091-1.954-2.241-3.053
	c-0.325-2.393,0.122-4.88-0.084-7.301c-0.219-2.578-0.607-5.319-4.513-4.988c-0.807,2.66,2.59,6.379-2.355,8.39
	c-1.791-5.854-3.543-11.37-2.091-17.72c0.908-3.967,0.254-8.296,0.259-12.462c0.007-5.929,0.073-11.858-0.066-17.786
	c-0.153-6.527-0.537-13.05-0.772-19.576c-0.399-11.031-0.747-22.064-1.147-33.097c-0.17-4.706-0.448-9.408-0.619-14.114
	c-0.113-3.138-1.518-4.699-4.798-4.43c-5.414,0.444-10.829,0.931-16.253,1.146c-5.236,0.208-10.496,0.32-15.722,0.035
	c-2.977-0.162-4.121,0.524-4.258,3.642c-0.327,7.385-1,14.756-1.894,22.118c-3.442-7.841,0.14-16.76-4.774-24.475
	c-0.296,2.472-0.902,4.958-0.793,7.412c0.093,2.085,1.348,4.17-1.468,5.47c-0.369,0.17-0.437,1.3-0.409,1.977
	c0.519,12.758,1.237,25.511,1.568,38.273c0.283,10.867,0.072,21.745,0.216,32.616c0.026,1.961,0.79,3.899,1.066,5.871
	c0.266,1.892,0.342,3.81,0.501,5.714c-0.523,0.173-1.045,0.348-1.568,0.52c-0.764-1.707-2.109-3.391-2.186-5.129
	c-0.27-6.11,0.055-12.246-0.141-18.363c-0.25-7.836-0.867-15.659-1.176-23.493c-0.31-7.854-0.388-15.716-0.652-23.571
	c-0.326-9.676-0.754-19.35-1.099-29.026c-0.033-0.929,0.203-1.869-0.579-3.506c-0.964,1.353-2.627,2.637-2.769,4.072
	c-0.576,5.8-1.031,11.655-0.889,17.474c0.265,10.854,1.173,21.693,1.455,32.548c0.334,12.908,0.048,25.832,0.503,38.733
	c0.281,7.947,1.942,15.857,2.037,23.796c0.064,5.43-1.381,10.903-2.485,16.289c-0.154,0.747-3.012,1.819-3.287,1.521
	c-1.661-1.81-3.368-3.826-4.134-6.088c-0.332-0.982,1.657-2.652,2.384-4.113c1.375-2.759,3.486-5.527,3.694-8.407
	c0.377-5.217-0.564-10.516-0.691-15.785c-0.326-13.585-0.357-27.178-0.805-40.757c-0.277-8.413-1.124-16.808-1.668-25.214
	c-0.623-9.62-1.11-19.25-1.873-28.858c-0.129-1.625-0.926-3.804-2.15-4.616c-3.316-2.199-3.337-5.156-2.627-8.293
	c0.785-3.472,4.037-3.377,6.585-3.49c15.365-0.68,30.736-1.264,46.112-1.649c6.493-0.164,13.004,0.152,19.499,0.436
	c1.688,0.075,3.346,0.857,5.018,1.314c-0.034,0.532-0.068,1.064-0.103,1.595c-2.479,0.223-4.958,0.627-7.437,0.632
	c-7.028,0.013-14.058-0.232-21.084-0.142c-1.287,0.016-2.551,1.155-3.843,1.736c-0.754,0.339-1.695,1.038-2.292,0.83
	c-7.799-2.716-15.751-0.757-23.627-0.975c-4.676-0.13-9.337-0.75-14.005-1.149c-0.32,0.379-0.641,0.757-0.961,1.135
	c0.742,1.122,1.334,3.051,2.252,3.222c3.567,0.66,7.234,0.954,10.871,1.034c9.947,0.219,19.9,0.412,29.847,0.321
	c7.047-0.065,14.092-0.544,21.13-0.972c2.981-0.182,5.939-0.927,8.915-0.977c1.359-0.021,2.736,1.021,4.105,1.581
	c0.009,0.469,0.018,0.938,0.026,1.407c-1.93,0.441-3.861,1.248-5.789,1.239c-3.011-0.015-4.124,0.475-3.987,4.082
	c0.456,12.012,0.172,24.05,0.439,36.073c0.232,10.447,0.99,20.885,1.206,31.334c0.146,7.1-0.29,14.209-0.376,21.315
	c-0.072,5.903-0.015,11.81,0.38,17.79c0.392-1.753,0.784-3.506,1.256-5.622c0.885,0.519,1.734,1.015,2.11,1.233
	c0.684-1.809,1.928-3.566,1.905-5.309c-0.086-6.507-0.605-13.006-0.922-19.511c-0.082-1.679-0.011-3.362-0.031-5.045
	c-0.13-11.009-0.247-22.017-0.405-33.022c-0.096-6.688-0.184-13.379-0.415-20.062c-0.178-5.147-0.664-10.284-0.818-15.431
	c-0.05-1.656,0.284-3.43,0.924-4.946c0.265-0.627,2.129-1.295,2.695-0.965c3.846,2.247,4.892,9.785,2.043,13.455
	c-1.931,2.487-0.829,11.078,1.102,14.692c2.956,5.533,7.918,6.549,13.261,6.646c10.258,0.187,20.522,0.059,30.785,0.06
	c4.976,0,9.953,0.028,14.928-0.033c1.263-0.015,2.638-0.069,3.759-0.562c2.742-1.212,5.332-2.837,8.278-0.472
	c0.357,0.289,1.135,0.219,1.672,0.103c12.424-2.708,25.017-1.724,37.562-1.771c6.132-0.022,12.266-0.232,18.391-0.088
	c8.982,0.213,17.958,0.855,26.94,0.957c6.205,0.069,12.416-0.643,18.627-0.691c14.496-0.112,28.993-0.034,42.756-0.034
	c1.787-3.751,2.758-6.405,4.296-8.674c0.545-0.805,2.474-0.672,3.771-0.968c-0.435,1.007-0.635,2.241-1.348,2.979
	c-2.578,2.672-2.959,13.367-0.459,16.064c1.777,1.918,3.658,2.477,6.093,1.066c1.117-0.646,2.521-0.896,3.828-1.102
	c2.749-0.428,5.652-7.301,4.915-10.725c-1.197-5.556-11.011-11.097-16.897-10.171c-5.026,0.791-9.355-2.255-10.525-7.148
	c1.012,0,2.396-0.391,2.771,0.059c4.493,5.392,10.278,2.604,15.523,2.413c3.794-0.138,7.547-1.248,11.335-1.808
	c0.778-0.116,1.84,0.028,2.419,0.493c3.63,2.906,5.074,0.308,5.725-2.54c1.311-5.724,1.071-11.192-4.316-15.165
	c-0.781-0.576-1.073-1.817-2.201-3.85c6.361,1.985,8.537,9.82,16.098,6.591c-0.454-6.467-3.413-13.553,1.237-20.027
	c-2.441-0.815-4.281-1.43-5.68-1.898c-1.097,1.99-2.144,3.918-3.218,5.832c-0.978,1.739-1.934,3.491-2.994,5.177
	c-0.608,0.966-1.406,1.812-2.118,2.713c-0.948-0.958-2.309-1.776-2.692-2.921c-0.239-0.711,0.903-1.997,1.602-2.887
	c1.618-2.063,3.694-3.861,4.883-6.133c0.63-1.208,0.182-3.355-0.457-4.774c-1.688-3.748-3.744-7.33-5.952-11.545
	c-4.458,0-9.513,0-15.12,0c4.278,7.931,8.979,15.274,1.924,23.656c8.405-1.166,11.312-0.367,11.159,2.509
	c-4.379,0.298-8.706,0.71-13.04,0.816c-1.261,0.03-2.543-0.812-3.813-1.255c0.607-0.998,1.049-2.165,1.853-2.968
	c4.941-4.939,5.289-15.022,0.604-19.896c-1.864-1.939-5.801-1.85-7.1,0.633c-1.997,3.817-3.949,7.753-3.095,12.429
	c0.388,2.124,0.065,4.376,0.065,7.298c-0.298-0.229,0.121,0.374,0.549,0.379c5.969,0.085,7.652,5.649,11.09,8.843
	c3.449,3.207,3.306,7.744,2.188,12.014c-0.318,1.217-1.783,2.134-2.722,3.189c-0.348-0.172-0.694-0.345-1.042-0.517
	c0.128-1.489,0.095-3.015,0.41-4.463c1.475-6.757-0.969-11.439-7.376-13.947c-1.466-0.573-2.93-1.162-4.366-1.803
	c-2.498-1.114-3.834-2.532-2.774-5.704c0.696-2.081,0.206-4.554,0.274-6.85c0.199-6.575,2.911-11.749,8.56-15.271
	c0.355-0.222,0.958-0.358,1.046-0.652c1.797-6.114,7.955-10.826,5.872-18.2c-0.132-0.465,0.104-1.034,0.181-1.643
	c4.172,2.163,4.452,9.505,0.59,17.617c5.177,0.472,9.786,1.982,15.1-0.268c4.95-2.096,8.878-4.024,10.805-9.624
	c0.551-1.599,5.119-1.871,7.879-2.635c1.56-0.432,3.174-0.736,4.783-0.895c1.202-0.118,2.8-0.384,3.598,0.228
	c4.321,3.317,8.174,6.93,7.331,13.291c-0.227,1.708,1.096,3.563,1.224,5.386c0.189,2.692,0.974,6.259-0.38,7.903
	c-1.592,1.934-5.167,2.321-7.964,3.081c-0.393,0.107-1.93-1.762-1.74-2.217c0.391-0.933,1.678-2.239,2.442-2.146
	c4.463,0.542,4.812-1.178,3.661-4.969c-0.803-2.64-0.469-5.619-0.688-8.444c-0.14-1.797-0.362-3.586-0.563-5.533
	c-2.415,0.212-4.302,0.379-6.285,0.553c-2.608,6.03-3.417,11.91,1.667,17.281c-3.529,0.861-6.731-2.309-7.01-7.14
	c-0.12-2.085,0.274-4.284,0.867-6.305c0.809-2.758,1.251-4.867-2.777-4.729c-0.839,0.03-1.705-0.706-2.284-0.966
	c-2.397,2.737-5.048,5.204-6.97,8.146c-1.386,2.118-3.125,5.467-2.346,7.206c1.271,2.832,2.254,6.839,7.657,6.26
	c10.379-1.112,12.806,0.97,13.722,11.391c0.452,5.138-0.545,10.421-1.101,15.616c-0.08,0.748-1.363,1.369-2.308,2.252
	c11.105,1.806,12.854,3.43,11.563,11.561c-1.2-1.964-1.771-3.526-2.86-4.524c-1.293-1.187-3.094-2.67-4.555-2.552
	c-1.139,0.092-3.092,2.562-2.941,3.758c0.426,3.416,1.7,6.733,2.722,10.066c0.319,1.041,0.889,2.006,1.371,3.065
	c-5.344,1.195-8.938-8.243-6.463-17.203c-4.172-2.975-8.504-0.527-13.264-0.443c-0.163,2.892-0.321,5.666-0.472,8.439
	c-0.016,0.286,0.15,0.731,0.02,0.837c-6.073,4.885,1.469,8.862,0.351,13.901c5.369-0.248,10.44,0.349,14.945-0.978
	c3.101-0.914,5.949-2.694,9.377-3.375c1.307-0.26,1.973-4.271,2.697-6.643c0.243-0.795-0.233-1.81-0.382-2.725
	c0.493-0.203,0.985-0.406,1.479-0.609c0.854,1.961,2.583,4.006,2.405,5.869c-0.595,6.238-5.41,8.053-11.326,8.658
	c2.842,3.971,8.34,5.753,7.754,12.368c-1.82-2.165-3.034-3.645-4.283-5.092c-2.521-2.922-4.846-2.846-6.334,0.74
	c-1.535,3.695-2.297,7.713-3.365,11.48c-3.09-2.039-2.531-6.268,0.604-14.296c-4.962-0.562-9.72-1.101-14.479-1.638
	c-0.44,0.521-0.884,1.047-1.325,1.568c-0.489-2.109-0.96-4.224-1.477-6.326c-0.432-1.758-0.53-3.75-1.453-5.209
	c-2.801-4.433-9.027-5.574-15.622-3.189c9.026,1.261,11.815,15.352,5.938,24.688c3.568-0.161,7.391,0.751,9.624-0.729
	c2.329-1.547,3.129-5.398,5.684-8.314c-0.196,1.91,0.009,3.977-0.657,5.706c-3.053,7.937-3.141,7.902-0.933,13.603
	c1.425,0.521,2.671,1.275,3.971,1.382c1.923,0.157,5.153,0.524,5.619-0.36c2.807-5.334,5.799-0.721,8.525-0.376
	c1.729,0.218,3.308,1.619,5.623,2.843c-0.847,0.686-1.569,1.725-2.473,1.912c-2.61,0.544-5.301,0.689-7.942,1.1
	c-2.559,0.395-6.043,5.545-4.493,8.453c1.074,2.016,1.181,4.547,1.718,6.848c-0.669-0.167-1.778-0.147-1.938-0.528
	c-2.149-5.096-6.485-10.095-0.644-15.664c-2.681-0.731-4.908-1.343-7.938-2.171c1.487,5.719-0.735,9.773-3.528,13.781
	c-1.142,1.639,2.46,8.354,4.492,8.459c3.692,0.195,7.524,0.221,9.48-3.96c1.089-0.093,2.281-0.521,3.245-0.218
	c3.744,1.178,5.151,0.179,4.758-3.963c-0.32-3.362-0.978-6.692-0.599-10.756c0.908,0.694,2.278,1.201,2.651,2.115
	c3.482,8.52,2.783,13.376-2.496,17.971c1.855,2.858-0.064,4.229-1.805,6.579c-2.459,3.324-3.221,7.903-4.7,11.95
	c-0.141,0.382-0.225,0.785-0.334,1.18c-0.437,0.092-0.87,0.183-1.306,0.272c-0.357-1.442-1.389-3.14-0.955-4.28
	c1.521-3.994,0.47-9.082,4.855-11.936c0.297-0.193,0.312-1.479-0.005-1.805c-0.479-0.49-1.396-0.86-2.075-0.791
	c-1.828,0.188-3.631,0.627-5.439,0.981c-3.383,0.663-5.807,1.922-5.521,6.173c0.108,1.614-1.146,3.451-2.11,4.977
	c-2.261,3.576-1.948,7.363,0.988,9.689c2.196,1.739,5.796,2.02,8.82,2.229c1.041,0.07,2.229-2.041,3.864-3.662
	c-0.527,0.136-0.197-0.069,0,0.019c2.286,1.029,6.135,3.449,6.564,2.943c2.492-2.927,4.771-6.339,6.007-9.968
	c2.273-6.67,1.624-7.66-4.312-11.598c1.219-2.971,2.918-2.227,4.908-0.796c4.976,3.576,3.643,12.161,1.178,17.003
	c-0.761,1.493-1.207,3.215-1.463,4.883c-0.518,3.354-4.921,5.447-9.033,5.112c-4.425-0.36-8.946,0.052-13.38,0.541
	c-0.877,0.097-1.663,2.013-2.284,3.197c-0.968,1.851-1.788,3.78-2.617,5.699c-1.184,2.737-3.167,3.003-5.631,1.909L506.245,399.236z
	 M263.209,316.55c0,4.188-0.14,8.521,0.072,12.835c0.08,1.627,1.414,3.215,1.408,4.818c-0.012,4.021,2.283,4.675,5.556,4.665
	c13.011-0.037,26.023,0.087,39.033-0.021c3.42-0.027,6.828-0.852,10.254-0.996c9.354-0.395,18.718-0.57,28.074-0.942
	c3.692-0.146,7.588-1.513,11.023-0.724c13.242,3.047,26.627,3.157,40.064,3.188c6.312,0.014,12.639,0.039,18.927,0.497
	c3.117,0.228,6.189,2.209,9.231,2.092c15.008-0.579,29.998-1.571,44.99-2.473c2.808-0.171,4.87-1.158,5.115-4.574
	c0.149-2.084,0.869-4.235,1.813-6.116c0.666-1.322,2.145-2.236,3.549-3.617c0.529,1.392,0.791,1.789,0.704,1.892
	c-4.257,4.981-1.542,10.518-1.234,15.839c0.13,2.234,1.312,3.168,3.759,2.838c5.114-0.691,6.88-2.505,8.437-9.125
	c0.186-0.791,0.89-1.46,1.353-2.186c0.595,0.803,1.736,1.645,1.682,2.399c-0.16,2.222-0.918,4.396-1.194,6.618
	c-0.145,1.145,0.05,3.312,0.404,3.381c2.748,0.528,5.856,1.535,8.318,0.739c6.826-2.208,9.147-12.812,4.63-18.446
	c-4.562-5.691-10.242-4.193-16.139-2.938c0.419,1.115,1.097,2.162,1.137,3.23c0.041,1.092-0.546,2.205-0.856,3.311
	c-0.698-0.7-1.447-1.356-2.085-2.108c-1.36-1.603-2.604-3.305-4.002-4.872c-2.759-3.095-6.791-5.318-5.636-10.705
	c0.403-1.876-1.045-3.215-3.657-2.447c-2.563,0.752-5.341,1.109-8.02,1.086c-5.328-0.049-10.653-0.478-15.979-0.748
	c0.109,1.275,0.227,2.64,0.352,4.095c-0.699,0-1.246,0.171-1.471-0.024c-5.684-4.996-12.591-4.186-19.312-4.029
	c-6.652,0.154-13.324,0.264-19.946,0.859c-12.114,1.092-24.155-2.367-36.343-0.055c-5.898,1.119-12.104,0.829-18.17,0.814
	c-10.038-0.023-20.083-0.699-30.107-0.442c-12.117,0.312-24.216,1.325-36.324,1.989c-3.398,0.188-6.806,0.235-10.209,0.318
	c-7.494,0.184-14.993,0.374-21.543-4.311c-0.284,0.291-0.567,0.582-0.851,0.873C261.148,314.277,262.283,315.529,263.209,316.55z
	 M496.735,371.367c2.359,0,5.874,0.023,9.388-0.025c0.516-0.008,1.208-0.219,1.51-0.588c3.225-3.949,4.23-8.328,2.706-13.314
	c-1.073-3.508-2.727-4.932-6.232-2.703c-0.46,0.293-1.408-0.186-2.751-0.41c1.294-1.172,2.071-1.876,2.85-2.58
	c-0.084-0.354-0.168-0.71-0.253-1.064c-2.99,0.758-5.994,1.471-8.948,2.352c-0.267,0.078-0.359,1.25-0.285,1.886
	C495.335,360.227,496.011,365.527,496.735,371.367z M525.308,276.714c3.295-2.17,6.508-9.382,5.566-13.65
	c-0.557-2.529,0.185-6.499-4.34-6.664C522.384,261.604,521.627,272.374,525.308,276.714z"/>
<path fill="#FFFFFF" d="M199.821,227.397c5.936-0.281,11.869-0.691,17.808-0.812c8.357-0.17,16.721-0.268,25.077-0.139
	c11.243,0.174,22.48,0.688,33.723,0.815c2.032,0.023,4.062-1.567,6.119-1.631c7.35-0.229,14.716,0.047,22.066-0.18
	c11.835-0.364,23.673-0.827,35.493-1.543c6.834-0.415,13.634-1.995,20.448-1.991c7.943,0.005,15.888,1.151,23.827,1.832
	c3.845,0.329,7.694,1.116,11.523,1.021c11.258-0.28,22.526-1.513,33.753-1.157c6.817,0.215,11.778-4.806,18.627-4.35
	c6.75,0.449,13.615-1,20.44-1.431c1.544-0.098,3.137,0.567,5.271,0.994c-2.508,4.047-5.872,3.134-8.748,3.268
	c-6.271,0.294-12.598-0.028-18.817,0.659c-4.224,0.467-8.237,2.822-12.459,3.28c-10.794,1.17-21.654,2.44-32.48,2.378
	c-11.424-0.065-22.832-2.208-34.26-2.354c-9.923-0.128-19.863,1.273-29.797,1.979c-2.711,0.192-5.425,0.38-8.14,0.451
	c-13.968,0.365-27.937,0.706-41.906,1.026c-10.411,0.238-20.822,0.515-31.234,0.624c-10.28,0.109-20.562,0.003-30.842,0.04
	c-6.39,0.022-12.782,0.245-19.17,0.141c-2.146-0.034-4.28-0.802-6.419-1.234C199.756,228.52,199.789,227.958,199.821,227.397z"/>
<path fill="#FFFFFF" d="M469.225,281.434c-12.469,1.406-24.907,3.272-37.416,4.101c-14.814,0.98-29.604,2.498-44.57,0.494
	c-9.098-1.218-18.477-0.23-27.721-0.526c-2.359-0.075-4.65-1.443-7.033-1.893c-3.038-0.572-6.146-1.187-9.21-1.135
	c-15.566,0.262-31.127,0.775-46.692,1.112c-7.71,0.168-15.424,0.16-23.135,0.201c-1.291,0.006-2.661,0.093-3.848-0.3
	c-1.168-0.387-2.15-1.336-3.215-2.038c1.103-0.675,2.178-1.876,3.312-1.936c5.275-0.275,10.566-0.307,15.853-0.295
	c12.386,0.028,24.772,0.078,37.157,0.218c9.682,0.11,19.409-0.156,29.029,0.713c9.754,0.881,19.435,1.998,29.274,1.967
	c10.291-0.032,20.596,1.38,30.876,1.204c9.376-0.161,18.73-1.587,28.091-2.491c8.681-0.837,17.35-1.785,26.037-2.515
	c1.241-0.104,2.563,0.749,3.85,1.159C469.649,280.127,469.438,280.781,469.225,281.434z"/>
<path fill="#FFFFFF" d="M386.194,56.481c-0.693,0.419-1.35,1.118-2.084,1.214c-9.477,1.241-18.949,2.532-28.452,3.531
	c-7.213,0.758-14.459,1.285-21.704,1.616c-10.769,0.495-21.554,0.612-32.321,1.108c-7.729,0.355-15.444,1.524-23.16,1.483
	c-6.522-0.035-12.77-0.042-19.042,2.39c-3.191,1.237-7.092,0.736-10.677,0.847c-12.546,0.39-25.104,0.538-37.634,1.205
	c-2.216,0.118-4.467,2.084-6.454,3.537c-4.715,3.447-9.105,7.359-13.951,10.6c-6.136,4.103-12.587,7.734-18.922,11.535
	c-0.409,0.245-0.989,0.206-1.934-0.47c3.912-2.911,7.864-5.771,11.728-8.746c6.249-4.81,12.585-9.521,18.608-14.604
	c4.66-3.933,9.934-5.436,15.821-5.571c7.023-0.163,14.066-0.095,21.062-0.627c9.966-0.759,19.88-2.248,29.851-2.916
	c10.046-0.672,20.135-0.67,30.202-1.061c8.004-0.31,16.007-0.716,24.005-1.171c14.508-0.826,29.02-1.607,43.511-2.639
	c6.218-0.443,12.391-1.482,18.588-2.214c0.902-0.107,1.83-0.015,2.746-0.015C386.05,55.835,386.123,56.158,386.194,56.481z"/>
<path fill="#FFFFFF" d="M347.877,176.612c3.683-0.52,7.357-1.105,11.05-1.546c7.629-0.909,15.248-2.158,22.906-2.522
	c19.298-0.917,38.621-1.34,57.926-2.137c6.111-0.252,12.192-1.178,18.304-1.574c3.62-0.236,7.273,0.075,10.905-0.059
	c11.448-0.422,22.892-1.034,34.342-1.373c4.839-0.143,7.866,5.806,5.903,10.549c-0.576,1.393-0.446,3.537,0.237,4.893
	c1.326,2.63-0.31,4.013-1.943,4.798c-0.549,0.264-2.955-1.771-3.364-3.106c-0.864-2.824-1.188-5.869-1.334-8.843
	c-0.157-3.235-1.06-5.002-4.786-4.894c-14.571,0.425-29.153,0.526-43.726,0.954c-15.021,0.44-30.043,0.96-45.048,1.763
	c-8.385,0.448-16.73,1.602-25.104,2.332c-10.525,0.916-21.061,1.736-31.594,2.56c-1.483,0.116-2.985,0.016-4.479,0.016
	C348.007,177.819,347.942,177.216,347.877,176.612z"/>
<path fill="#FFFFFF" d="M141.187,355.881c2.374-6.468,4.388-12.432,1.034-18.689c1.194-0.967,2.314-1.873,3.895-3.152
	c-1.524-0.712-2.459-1.148-3.49-1.63c0.833-7.632,1.663-15.247,2.498-22.9c-4.545-1.724-4.534-4.632-0.895-8.98
	c-0.177-6.294-0.749-11.375-0.207-16.334c0.169-1.548,3.234-3.746,5.165-3.966c8.203-0.938,16.473-1.359,24.729-1.711
	c2.337-0.101,4.712,0.668,7.399,1.945c-1.368,0.57-2.712,1.561-4.107,1.639c-7.142,0.398-14.294,0.685-21.446,0.775
	c-8.173,0.103-8.16,0.021-8.119,7.904c0.048,9.279-0.253,18.568,0.081,27.834c0.425,11.785,1.396,23.552,1.921,35.337
	c0.041,0.919-1.495,2.622-2.426,2.719C145.321,356.866,143.335,356.214,141.187,355.881z"/>
<path fill="#FFFFFF" d="M547.03,243.782c6.062,0.975,12.126,1.96,18.19,2.924c6.987,1.111,13.961,2.332,20.974,3.266
	c6.797,0.906,13.619,1.739,20.457,2.175c5.847,0.373,11.732,0.132,17.602,0.173c4.646,0.032,9.324-0.247,13.935,0.187
	c9.764,0.92,19.492,2.195,29.229,3.383c1.263,0.154,2.483,0.649,3.689,1.982c-0.681,0.309-1.38,0.925-2.034,0.881
	c-6.086-0.408-12.157-1.096-18.247-1.348c-2.908-0.12-5.845,0.573-8.776,0.803c-1.244,0.098-2.715,0.36-3.728-0.152
	c-5.812-2.944-11.954-2.157-18.102-2.146c-4.72,0.008-9.435-0.849-14.162-1.006c-2.436-0.08-4.924,0.917-7.336,0.735
	c-3.357-0.254-6.683-1.087-9.995-1.798c-4.007-0.858-7.945-2.109-11.984-2.727c-8.735-1.334-17.525-2.296-26.264-3.614
	c-1.434-0.216-2.71-1.468-4.06-2.241C546.624,244.766,546.827,244.274,547.03,243.782z"/>
<path fill="#FFFFFF" d="M657.396,302.77c-2.947,0-5.912,0.2-8.836-0.06c-2.595-0.231-4.818-1.13-7.607,0.625
	c-1.744,1.098-4.96-0.062-7.503-0.333c-8.952-0.953-17.877-2.305-26.854-2.864c-13.694-0.854-27.427-1.1-41.136-1.76
	c-4.938-0.238-9.866-0.842-14.773-1.474c-1.187-0.152-2.272-1.08-3.404-1.65c0.104-0.47,0.206-0.941,0.311-1.412
	c1.709,0,3.434-0.137,5.126,0.025c5.226,0.5,10.425,1.282,15.657,1.648c10.104,0.708,20.218,1.32,30.337,1.761
	c9.634,0.419,19.277,0.646,28.918,0.812c7.548,0.13,15.106-0.141,22.646,0.143c2.541,0.095,5.038,1.344,7.555,2.066
	C657.688,301.121,657.542,301.945,657.396,302.77z"/>
<path fill="#FFFFFF" d="M184.769,288.503c-10.024,0-19.476,0-29.589,0c0.592,9.803,1.345,19.252,1.657,28.714
	c0.159,4.809-0.756,9.648-0.681,14.467c0.099,6.403,0.813,12.797,0.972,19.201c0.034,1.346-1.197,2.721-1.845,4.082
	c-1.155-1.451-3.277-2.895-3.292-4.357c-0.057-5.406,0.814-10.817,0.908-16.235c0.171-9.763,0.224-19.536-0.043-29.295
	c-0.172-6.255-1.007-12.491-1.644-19.876c6.286,0,11.927,0.081,17.564-0.03c3.588-0.071,7.182-0.315,10.75-0.691
	C182.195,284.198,184.368,284.284,184.769,288.503z"/>
<path fill="#FFFFFF" d="M204,306.917c0.184,0.62,0.486,1.229,0.532,1.86c0.969,13.092,1.912,26.186,2.854,39.279
	c0.624,8.674,1.359,17.342,1.825,26.025c0.473,8.818,0.785,17.652,0.878,26.483c0.014,1.278-1.593,2.573-2.449,3.861
	c-0.865-1.468-2.478-2.938-2.472-4.4c0.034-8.333,0.904-16.679,0.652-24.995c-0.585-19.34-1.631-38.668-2.534-57.998
	c-0.156-3.342-0.527-6.674-0.798-10.012C202.992,306.986,203.496,306.952,204,306.917z"/>
<path fill="#FFFFFF" d="M61.091,411.016c-4.615,5.637-3.165,10.557,3.232,13.052c2.932,1.144,5.728,2.638,8.625,3.991
	c1.377-2.481,3.155-5.688,4.933-8.894c0.44,0.173,0.879,0.346,1.318,0.519c0,1.103,0,2.202,0,3.258
	c4.062-1.447,5.852,2.419,5.066,11.531c-4.86,0.758-3.63-4.002-5.463-6.191c-4.257,2.396-0.664,6.859-2.597,9.908
	c-4.467-0.762-3.403-4.68-4.514-7.672c-2.58,1.105-5.272,1.745-5.281,5.442c-0.002,0.738-0.985,1.476-1.515,2.213
	c-0.786-0.69-2.186-1.324-2.258-2.084c-0.487-5.135-2.789-5.086-7.018-1.453c0.117-2.08-0.228-3.452,0.307-4.125
	c2.219-2.795,2.354-5.084,0.42-8.408C53.02,416.384,54.758,412.587,61.091,411.016z"/>
<path fill="#FFFFFF" d="M636.562,275.373c-4.213,3.375-8.724,2.089-12.912,1.778c-14.206-1.053-28.382-2.534-42.584-3.627
	c-13.346-1.027-26.713-1.772-40.068-2.638c-0.572-0.037-1.296,0.197-1.695-0.072c-1.512-1.014-2.918-2.185-4.363-3.296
	c1.625-0.269,3.271-0.854,4.871-0.75c5.775,0.37,11.536,0.973,17.303,1.485c5.836,0.518,11.669,1.054,17.507,1.544
	c9.573,0.803,19.146,1.634,28.726,2.342c9.646,0.712,19.303,1.253,28.946,1.967C633.622,274.204,634.91,274.866,636.562,275.373z"/>
<path fill="#FFFFFF" d="M543.176,373.391c1.335-0.076,2.67-0.173,4.007-0.226c7.434-0.293,14.878-0.386,22.294-0.92
	c5.99-0.433,11.928-1.669,17.92-2.019c3.49-0.203,7.035,0.801,10.569,0.977c9.229,0.457,18.464,0.803,27.698,1.099
	c3.961,0.128,7.928,0.021,11.891,0.021c0.12,0.46,0.238,0.918,0.358,1.377c-1.097,0.513-2.183,1.441-3.291,1.467
	c-6.262,0.143-12.528,0.032-18.793,0.076c-4.913,0.035-9.825,0.25-14.735,0.219c-1.866-0.011-3.722-0.593-5.596-0.725
	c-2.969-0.207-5.957-0.461-8.922-0.334c-11.531,0.492-23.053,1.213-34.586,1.651c-2.994,0.114-6.016-0.481-9.024-0.751
	C543.036,374.666,543.105,374.027,543.176,373.391z"/>
<path fill="#FFFFFF" d="M500.478,486.508c-1.161,0.848-2.693,1.965-4.227,3.083c-0.229-0.316-0.458-0.635-0.688-0.952
	c-0.856,1.669-1.464,3.562-2.671,4.92c-0.65,0.734-2.325,0.562-3.859,0.861c0-4.771,0-9.08,0-13.387
	c-0.104-0.033-0.205-0.065-0.309-0.1c-0.481,2.652-0.965,5.307-1.412,7.767c-3.294-1.668-6.238-3.033-9.041-4.647
	c-0.968-0.557-1.576-1.733-2.351-2.628c0.854-0.609,1.631-1.396,2.572-1.796c2.145-0.907,4.353-0.638,6.124-3.408
	c2.181-3.406,4.519,0.168,6.519,1.915c1.149-1.027,2.282-2.042,3.744-3.351c0,3.488,0,6.559,0,10.144
	c1.953-2.886,7.953-3.522,8.901-1.428c0.746,1.646,1.562,3.258,1.767,5.814C503.856,488.379,502.165,487.442,500.478,486.508z"/>
<path fill="#FFFFFF" d="M83.836,335.062c-5.629-6.342-5.354-8.614-1.687-13.973c3.502-5.115,3.693-11.191,2.467-17.265
	c-0.213-1.056,0.083-2.216,0.144-3.328c1.057,0.499,2.513,0.718,3.092,1.549c1.421,2.041,2.438,4.362,3.951,7.196
	c13.659,0.015,28.11-1.357,42.434,0.615c0.027,0.429,0.054,0.856,0.081,1.285c-1.423,0.102-2.845,0.256-4.271,0.291
	c-12.727,0.309-25.455,0.646-38.184,0.846c-2.411,0.037-3.861,0.676-4.034,3.263c-0.037,0.547-0.36,1.084-0.594,1.606
	c-1.886,4.197-4.906,8.104-2.615,13.231C85.06,331.365,84.238,332.912,83.836,335.062z"/>
<path fill="#FFFFFF" d="M524.833,447.628c0.765-2.965,1.342-5.199,1.918-7.434c0.524-0.032,1.049-0.063,1.573-0.096
	c0.711,3.539,1.423,7.078,2.268,11.276c-2.134,0.24-4.764,0.537-6.995,0.789c0.137,1.407,0.243,2.502,0.351,3.598
	c-1.1,0.096-2.314,0.536-3.271,0.212c-1.95-0.661-3.759-1.735-5.991-2.105c0.86,1.104,1.722,2.209,2.79,3.58
	c-4.747,0.098-6.991-2.688-7.086-8.099c0.396,0.159,0.79,0.319,1.187,0.479c1.332-2.908,2.556-5.872,4.041-8.701
	c0.778-1.485,2.017-2.729,3.047-4.085c1.015,1.367,2.167,2.653,3.009,4.12C522.778,443.091,523.643,445.16,524.833,447.628z"/>
<path fill="#FFFFFF" d="M666.479,446.712c0.41-3.667,0.647-5.794,0.885-7.921c0.388-0.004,0.774-0.008,1.162-0.011
	c1.418,2.279,2.804,4.582,4.308,6.805c0.138,0.204,1.028-0.101,1.949-0.216c-0.228-0.825-0.559-1.425-0.513-1.992
	c0.082-0.988,0.397-1.959,0.615-2.937c0.948,0.406,2.174,0.57,2.787,1.271c1.4,1.599,2.499,3.46,4.155,5.839
	c-0.938,0.499-2.095,1.368-3.395,1.736c-1.2,0.34-2.819-0.314-3.798,0.255c-7.208,4.194-13.013,0.38-18.769-3.215
	c-1.093-0.682-2.081-2.515-2.037-3.778c0.054-1.548,1.244-3.056,1.942-4.581c1.607,1.226,3.39,2.288,4.745,3.748
	c0.607,0.654,0.36,2.102,1.276,3.127c-0.118-1.122-0.236-2.245-0.423-4.022C663.16,442.882,664.543,444.479,666.479,446.712z"/>
<path fill="#FFFFFF" d="M266.045,433.481c-0.679-0.945-1.403-1.954-2.208-3.074c-1.497,0.784-2.804,1.467-5.09,2.663
	c1.269-2.258,1.997-3.551,2.724-4.844c-0.302-0.228-0.604-0.455-0.906-0.684c-1.229,1.854-2.928,3.562-3.57,5.602
	c-0.796,2.527-2.188,3.09-4.099,2.008c-2.75-1.56-7.46-1.732-5.969-7.646c1.395,1.021,2.417,1.771,3.32,2.431
	c6.186-4.177,12.291-8.301,18.396-12.424c0.329,0.139,0.658,0.275,0.987,0.412c-1.586,2.567-3.173,5.135-5.057,8.185
	c3.052-0.703,6.479-4.162,7.959,1.13C273.408,430.363,271.452,432.209,266.045,433.481z"/>
<path fill="#FFFFFF" d="M475.468,381.035c2.83,6.445,8.341,18.09,10.376,20.323c-3.643,2.302-10.151-0.216-11.399-4.962
	c-0.959-3.645-2.742-4.373-6.106-4.074c-2.372,0.21-4.813-0.598-7.231-0.653c-5.094-0.116-10.19,0.034-15.282-0.104
	c-0.875-0.023-1.728-0.937-2.588-1.438c0.883-0.472,1.758-1.33,2.647-1.347c6.681-0.129,13.365-0.014,20.045-0.133
	c3.41-0.061,7.083,0.107,8.078-4.522C474.239,383.039,474.968,382.062,475.468,381.035z"/>
<path fill="#FFFFFF" d="M443.915,405.837c0.317-1.543,0.634-3.086,1.178-5.73c-3.861-0.467-7.837-0.945-11.891-1.435
	c3.715-4.707,5.312-10.279-1.389-14.59c-2.582-1.66-4.103-0.503-5.822,2.902c-1.099-0.555-2.196-1.109-3.537-1.787
	c1.434-2.68,2.002-5.653,6.114-5.17c5.117,0.604,9.198,3.221,10.214,7.074c0.761,2.89,1.033,6.099,2.549,8.525
	c0.896,1.438,3.753,1.746,5.794,2.335c1.203,0.349,2.535,0.252,3.809,0.356c-0.273,1.464-0.127,3.236-0.921,4.319
	c-1.217,1.659-3.083,2.844-4.673,4.229C444.865,406.524,444.39,406.18,443.915,405.837z"/>
<path fill="#FFFFFF" d="M139.27,335.836c-7.794,0-15.608-0.352-23.374,0.112c-6.14,0.366-12.197,2.006-18.337,2.528
	c-2.396,0.203-4.92-1.101-7.387-1.718c0.617-0.782,1.163-2.161,1.863-2.243c3.672-0.439,7.386-0.511,11.08-0.787
	c4.328-0.324,8.644-0.871,12.977-1.061c4.203-0.186,8.42-0.041,12.581-0.041c0.345-1.161,0.657-2.216,0.758-2.554
	c2.61,0.709,4.677,1.163,6.665,1.849c1.391,0.479,2.673,1.273,4.004,1.928C139.824,334.514,139.546,335.174,139.27,335.836z"/>
<path fill="#FFFFFF" d="M502.09,212.733c-3.862,0-7.725,0-12.104,0c0.625,1.538,1.036,2.554,1.449,3.568
	c-0.25,0.23-0.5,0.459-0.75,0.689c-0.896-0.695-1.835-1.347-2.688-2.095c-2.88-2.525-4.831-2.225-6.626,1.223
	c-1.186,2.275-2.804,4.596-3.045,7.014c-0.226,2.249,0.882,4.758,1.85,6.956c0.729,1.653,2.168,2.995,3.687,4.996
	c-5.138-0.166-10.045-4.082-9.609-7.627c0.763-6.218,2.177-12.413,8.238-15.991C489.127,207.547,495.618,209.617,502.09,212.733z"/>
<path fill="#FFFFFF" d="M82.812,275.932c4.75-0.593,6.065,2.951,7.5,6.245c10.528,2.438,21.393-2.188,31.857,0.858
	c0.002,0.472,0.004,0.944,0.006,1.417c-2.888,0.145-5.774,0.33-8.664,0.429c-7.558,0.257-15.117,0.47-22.676,0.722
	c-0.988,0.033-2.029,0.018-2.946,0.323c-2.399,0.802-3.034-0.454-3.389-2.469C84.091,281.131,83.476,278.843,82.812,275.932z"/>
<path fill="#FFFFFF" d="M630.89,425.282c-17.146,3.275-34.568,2.585-51.884,3.438c-0.146-0.421-0.292-0.843-0.438-1.264
	c1.324-0.561,2.63-1.547,3.979-1.613c9.691-0.479,19.394-0.748,29.089-1.137c4.423-0.178,8.84-0.509,13.263-0.705
	c1.984-0.088,3.979-0.016,5.97-0.016C630.875,424.419,630.882,424.852,630.89,425.282z"/>
<path fill="#FFFFFF" d="M274.531,447.86c-2.688-1.234-4.494-1.821-6.035-2.817c-4.262-2.761-8.878-1.964-13.483-1.705
	c-0.733,0.041-1.496-0.435-2.763-0.833c3.907-3.256,7.383-6.152,11.583-9.649c0.734,2.727,1.279,4.75,1.87,6.943
	c0.786-0.312,1.894-0.75,3.155-1.249c1.115,2.871,2.316,5.187,5.269,1.774c0.377-0.438,1.673-0.557,2.213-0.245
	c0.595,0.34,1.305,1.558,1.104,2.027C276.456,444.426,275.18,446.624,274.531,447.86z"/>
<path fill="#FFFFFF" d="M58.81,241.01c-3.627-1.591-5.332-4.465-4.223-10.643c0.694-3.87,3.075-7.444,4.772-11.117
	c0.21-0.455,0.857-0.972,1.329-1c4.973-0.301,9.952-0.508,15.515-0.768c-1.746,4.675-10.029,1.881-8.924,8.391
	c-0.771,0-1.11,0.104-1.322-0.017c-1.561-0.888-3.096-1.82-4.64-2.738c-1.161,1.989-3.158,3.92-3.303,5.981
	C57.731,233.085,58.493,237.146,58.81,241.01z"/>
<path fill="#FFFFFF" d="M452.508,440.737c-1.571-0.565-4.521-1.234-4.488-1.683c0.195-2.618,1.088-5.185,1.744-7.769
	c0.588-0.238,1.177-0.479,1.765-0.717c-2.677-2.228-5.425-4.378-7.953-6.764c-0.385-0.361,0.247-1.806,0.581-3.754
	c1.827,1.705,2.965,3.103,4.403,4.031c2.249,1.454,4.979,2.267,6.979,3.969c1.534,1.304,2.625,3.453,3.205,5.435
	c0.363,1.237-0.701,1.303-2.935,0.63c-0.896-0.271-2.139,0.601-3.435,1.021c0.471,1.51,0.84,2.693,1.208,3.877
	C453.226,439.589,452.867,440.163,452.508,440.737z"/>
<path fill="#FFFFFF" d="M335.612,363.614c4.332,0.843,8.043,2.174,11.729,2.106c3.541-0.062,6.849-0.943,9.555,2.301
	c0.311,0.371,2.034-0.437,3.875,0.166c-1.421,1.179-2.729,3.191-4.278,3.398C345.527,373.055,338.095,370.311,335.612,363.614z"/>
<path fill="#FFFFFF" d="M249.95,419.115c-1.373-0.718-2.868-2.188-4.093-1.989c-2.245,0.364-4.331,1.713-6.465,2.644
	c-1.127-3.714,0.179-10.149,2.762-11.063c2.369-0.838,5.192-2.233,5.671,2.381c1.533-0.869,2.834-1.606,4.864-2.759
	c-0.318,2.797-0.563,4.941-0.808,7.09C251.238,416.649,250.594,417.882,249.95,419.115z"/>
<path fill="#FFFFFF" d="M520.092,421.346c-1.484-1.805-2.629-3.618-4.172-4.974c-2.877-2.528-3.636-4.573,0.309-6.809
	c0.577-0.328,0.587-2.247,0.35-3.316c-0.891-4.012,0.341-7.287,3.241-9.957c0.695-0.642,1.921-0.707,2.902-1.038
	c-0.133,0.972-0.146,1.977-0.419,2.907c-0.93,3.185-2.097,6.306-2.891,9.521c-0.717,2.906-0.244,5.501,2.267,7.728
	c0.814,0.722,0.625,2.798,0.519,4.225C522.156,420.163,521.038,420.611,520.092,421.346z"/>
<path fill="#FFFFFF" d="M586.37,455.241c-4.29-4.927-8.474-1.5-12.744-1.091c-1.788,0.171-3.936-0.747-5.499-1.799
	c-1.065-0.717-1.4-2.521-2.062-3.838c1.567,0.004,3.776-0.65,4.584,0.133c2.668,2.6,4.791,1.823,6.872-0.367
	c0.672-0.704,0.799-1.926,1.659-4.184c3.015,3.306,5.616,6.158,8.219,9.013C587.056,453.819,586.713,454.53,586.37,455.241z"/>
<path fill="#FFFFFF" d="M206.887,156.824c4.12,0,7.476,0.018,10.832-0.008c1.504-0.013,3.015-0.042,4.511-0.19
	c3.349-0.333,6.682-0.892,10.037-1.055c1.369-0.066,2.776,0.655,4.167,1.018c-0.95,0.964-1.846,2.7-2.857,2.77
	c-8,0.551-16.02,0.921-24.038,1.036C207.047,160.429,206.098,158.658,206.887,156.824z"/>
<path fill="#FFFFFF" d="M310,435.205c0.394,3.246-2.522,5.164-11.634,5.834c2.139,1.314,3.642,1.956,4.743,3.014
	c0.775,0.744,1.005,2.058,1.478,3.116c-1.206,0.284-2.692,1.157-3.563,0.741c-2.28-1.09-4.492-2.533-6.312-4.272
	c-0.753-0.721-0.878-2.722-0.468-3.838c0.333-0.905,1.816-1.689,2.925-1.953C301.423,436.84,305.732,436.062,310,435.205z"/>
<path fill="#FFFFFF" d="M156.447,416.264c0.729,1.988,1.457,3.976,2.184,5.963c-0.309,0.168-0.617,0.339-0.926,0.508
	c-3.899-3.338-7.797-6.677-11.697-10.015c0.242-0.411,0.485-0.82,0.727-1.23c2.961,0.728,5.922,1.455,9.885,2.428
	c-1.569-2.562-2.496-4.075-3.421-5.587c0.509-0.397,1.018-0.795,1.527-1.192c2.655,3.077,5.447,6.054,7.826,9.329
	c0.388,0.535-1.057,2.4-1.792,3.939c-1.418-2.043-2.384-3.437-3.351-4.827C157.089,415.806,156.769,416.035,156.447,416.264z"/>
<path fill="#FFFFFF" d="M520.876,163.782c4.795,6.556,2.442,13.706,3.331,20.33c0.721,5.376,0.873,10.834,1.104,16.264
	c0.074,1.728-0.398,3.48-0.622,5.221c-0.531-0.008-1.063-0.016-1.596-0.024C522.364,191.814,521.633,178.056,520.876,163.782z"/>
<path fill="#FFFFFF" d="M547.519,455.976c3.394-1.916,5.734-3.416,8.238-4.562c0.919-0.42,2.383-0.336,3.312,0.112
	c1.378,0.665,2.501,1.859,4.832,3.695c-2.558,0.43-4.36,0.707-6.154,1.039c-2.508,0.464-4.991,1.136-7.52,1.397
	c-1.803,0.187-3.999,0.411-5.392-0.426c-1.28-0.77-2.552-3.075-2.319-4.449c0.279-1.658,2.148-3.048,3.329-4.555
	c0.349,0.212,0.695,0.424,1.044,0.637C547.062,450.832,547.237,452.799,547.519,455.976z"/>
<path fill="#FFFFFF" d="M739.803,449.871c2.365,1.087,4.307,1.696,5.909,2.795c1.606,1.102,4.086,2.746,4.029,4.059
	c-0.102,2.315-1.747,4.611-2.972,6.789c-0.235,0.421-1.685,0.608-2.264,0.309c-2.393-1.244-5.806-11.042-4.917-13.748
	C739.666,449.843,740.004,449.699,739.803,449.871z"/>
<path fill="#FFFFFF" d="M507.749,423.152c1.779,3.776,1.561,7.733,0.575,11.775c-0.247,1.013-0.36,2.057-0.535,3.086
	c0.968-0.207,1.927-0.519,2.903-0.592c1.065-0.08,2.343-0.269,3.158,0.215c0.601,0.354,1.103,2.053,0.766,2.543
	c-0.528,0.771-1.815,1.447-2.761,1.423c-2.694-0.069-5.412-0.352-8.043-0.91c-0.803-0.171-1.597-1.438-1.904-2.365
	c-0.13-0.394,1.18-1.119,1.528-1.842c0.977-2.031,2.147-4.069,2.572-6.235c0.441-2.249,0.1-4.653,0.1-6.988
	C506.655,423.226,507.202,423.188,507.749,423.152z"/>
<path fill="#FFFFFF" d="M296.244,430.812c-2.176,4.873-5.734,6.214-10.634,4.245c-5.186-2.083-6.307-3.697-5.008-7.389
	c2.796,1.741,5.584,3.479,8.372,5.213c0.127-0.197,0.253-0.394,0.38-0.592c-0.725-0.462-1.584-0.802-2.143-1.415
	c-0.818-0.896-1.42-1.99-2.114-2.999c1.165-0.128,2.457-0.641,3.469-0.308C291.097,428.402,293.5,429.622,296.244,430.812z"/>
<path fill="#FFFFFF" d="M175.15,410.964c2.764,0.493,5.194,1.239,7.638,1.289c3.614,0.074,9.551,3.613,11.192,7.147
	C185.061,420.903,174.721,415.735,175.15,410.964z"/>
<path fill="#FFFFFF" d="M152.841,361.029c9.249-0.643,18.498-1.284,28.111-1.952c0.67,2.478,0.732,4.067-3.288,3.708
	c-3.722-0.334-7.549,0.719-11.323,0.665c-4.487-0.062-8.966-0.654-13.448-1.017C152.876,361.966,152.859,361.497,152.841,361.029z"
	/>
<path fill="#FFFFFF" d="M575.443,427.637c-8.09,0.298-16.177,0.628-24.269,0.812c-0.475,0.011-1.354-1.175-1.351-1.799
	c0.005-0.55,0.991-1.567,1.536-1.562c7.819,0.083,15.639,0.301,23.456,0.521c0.185,0.005,0.357,0.396,0.535,0.605
	C575.384,426.688,575.414,427.162,575.443,427.637z"/>
<path fill="#FFFFFF" d="M181.446,579.963c2.461-5.528,6.124-5.4,9.585-4.555c2.769,0.677,4.867,0.566,7.14-1.312
	c2.294-1.896,4.628-3.045,8.144-1.408c2.215,1.028,5.527-0.302,8.531-0.164c-2.542,1.529-4.71,4.438-8.436,2.501
	c-3.503-1.823-6.193-0.762-8.754,1.727c-0.776,0.754-2.084,2.097-2.524,1.884C190.746,576.504,186.617,578.399,181.446,579.963z"/>
<path fill="#FFFFFF" d="M322.119,386.332c9.116,1.695,16.342,8.842,14.351,12.27c-2.263-0.705-4.526-1.227-6.627-2.127
	c-1.943-0.832-5.146-0.938-3.566-4.703c0.201-0.48-0.817-1.549-1.382-2.256C324.02,388.415,323.05,387.389,322.119,386.332z"/>
<path fill="#FFFFFF" d="M200.955,406.667c-0.632-4.051-1.552-8.084-1.823-12.159c-0.319-4.795-0.074-9.628-0.074-14.566
	C202.508,381.716,204.149,399.867,200.955,406.667z"/>
<path fill="#FFFFFF" d="M466.219,447.705c-1.282,0.118-2.4,0.222-3.52,0.324c0.272-1.108,0.407-2.277,0.857-3.311
	c0.507-1.161,1.053-2.667,2.024-3.176c1.297-0.68,3.089-0.867,4.521-0.569c0.46,0.096,0.722,2.427,0.602,3.69
	c-0.136,1.446-1.217,2.86-1.154,4.256c0.202,4.526-0.574,5.382-5.998,5.285C464.466,451.978,465.337,449.854,466.219,447.705z"/>
<path fill="#FFFFFF" d="M188.289,140.178c9.62-0.744,19.24-1.487,29.029-2.244c-1.445,1.975-2.051,5.408-6.102,3.076
	c-0.484-0.279-1.336,0.115-2.021,0.148c-6.899,0.333-13.8,0.657-20.7,0.982C188.427,141.487,188.358,140.832,188.289,140.178z"/>
<path fill="#FFFFFF" d="M642.64,441.103c-1.383,4.977-2.766,6.17-21.778,3.738c2.196-1.266,3.279-4.05,7.288-2.39
	c2.788,1.156,6.585-0.041,9.92-0.321C639.416,442.016,640.733,441.545,642.64,441.103z"/>
<path fill="#FFFFFF" d="M616.056,446.363c-5.007,5.653-14.715,6.204-18.363,1.743c-0.73-0.895-0.652-2.447-0.948-3.697
	c1.376,0.16,3.405-0.199,4.017,0.57c2.984,3.751,6.43,3.551,10.391,2.127C612.677,446.559,614.414,446.594,616.056,446.363z"/>
<path fill="#FFFFFF" d="M568.816,41.734c-0.884,0.217-1.766,0.62-2.647,0.622c-6.668,0.01-11.684,3.392-16.356,7.672
	c-0.59,0.539-1.948,0.236-2.95,0.323c0.269-0.858,0.28-2.01,0.857-2.514c1.348-1.178,2.966-2.046,4.537-3.08
	c-0.31-0.46-0.716-1.066-1.673-2.491c6.438-0.856,12.203-1.623,17.968-2.389C568.641,40.495,568.729,41.115,568.816,41.734z"/>
<path fill="#FFFFFF" d="M710.463,246.866c-1.609,2.016-2.879,3.605-4.724,5.917c-0.802-7.104-1.486-13.191-2.263-20.07
	C711.01,235.813,705.314,243.537,710.463,246.866z"/>
<path fill="#FFFFFF" d="M95.438,431.212c2.875,4.019,5.624,7.779,9.251,0.512c0.316,0.501,0.632,1.001,0.948,1.502
	c-0.464,1.484-0.844,3.001-1.414,4.442c-0.603,1.524-1.389,2.977-2.115,4.503C94.717,440.583,93.378,438.74,95.438,431.212z"/>
<path fill="#FFFFFF" d="M302.514,418.242c-4.605-2.286-9.45-4.213-13.701-7.035c-1.722-1.142-3.045-4.237-0.759-6.123
	c5.206,4.118,10.134,8.018,15.061,11.916C302.915,417.415,302.714,417.829,302.514,418.242z"/>
<path fill="#FFFFFF" d="M700.389,446.351c-1.916,1.021-3.742,2.622-5.768,2.937c-3.78,0.585-6.501-1.801-8.275-4.858
	c-0.638-1.1-0.103-2.878-0.103-4.347c0.396-0.029,0.791-0.058,1.187-0.086c1.688,1.817,3.067,4.391,5.147,5.229
	c1.938,0.781,4.621-0.281,6.976-0.533C699.832,445.243,700.11,445.797,700.389,446.351z"/>
<path fill="#FFFFFF" d="M715.043,261.215c-0.73-5.643,1.364-11.897-4.171-16.206c3.672-1.441,4.988-0.797,6.443,2.599
	C719.538,252.798,718.578,259.718,715.043,261.215z"/>
<path fill="#FFFFFF" d="M362.362,355.145c-0.373-0.688-1.107-1.961-1.066-1.986c3.211-1.998,6.462-3.94,9.802-5.711
	c0.204-0.108,1.305,1.111,1.73,1.861c0.8,1.406,1.412,2.92,2.532,5.303c-1.689,0-3.48,0.531-4.623-0.103
	c-3.13-1.739-5.828-1.756-8.471,0.707L362.362,355.145z"/>
<path fill="#FFFFFF" d="M771.628,454.814c-0.784,2.504-1.306,5.07-2.423,7.346c-0.539,1.101-2.198,1.65-3.352,2.451
	c0.019-1.638-0.07-3.284,0.108-4.903c0.065-0.583,0.779-1.093,1.498-2.028c-2.07-0.573-3.821-1.059-5.722-1.585
	C764.473,452.743,768.167,452.417,771.628,454.814z"/>
<path fill="#FFFFFF" d="M705.446,409.207c0,6.12,0,11.288,0,17.641c-1.698-1.557-3.368-2.355-3.433-3.27
	c-0.28-4.039-0.413-8.146,0.036-12.156C702.306,409.146,704.139,408.209,705.446,409.207z"/>
<path fill="#FFFFFF" d="M689.873,427.934c0.854,2.426,3.117,5.646,2.286,7.115c-2.066,3.648-5.604,0.54-9.138,0.184
	c0.244-2.191,0.311-4.434,0.831-6.563c0.18-0.729,1.499-1.182,2.299-1.762c0.186,0.949,0.487,1.894,0.525,2.849
	c0.044,1.135-0.139,2.277-0.223,3.417c0.536,0.063,1.073,0.127,1.608,0.19c0.267-1.697,0.53-3.396,0.797-5.092
	C689.198,428.158,689.536,428.046,689.873,427.934z"/>
<path fill="#FFFFFF" d="M439.963,437.314c-0.163-2.275-0.312-4.327-0.46-6.38c0.462-0.175,0.923-0.351,1.384-0.525
	c1.68,2.262,3.358,4.521,4.997,6.729c-3.982,4.049-6.136,4.354-10.172,1.332c-0.749-0.56-0.844-1.995-1.241-3.024
	c0.987,0.171,2.018,0.22,2.95,0.546C438.381,436.327,439.246,436.931,439.963,437.314z"/>
<path fill="#FFFFFF" d="M728.729,459.031c-6.182,0.139-10.762-3.789-10.522-8.712C723.206,449.748,726.188,452.148,728.729,459.031z
	"/>
<path fill="#FFFFFF" d="M68.847,387.538c2.849,2.22,5.959,3.864,7.928,6.397c1.86,2.396-1.014,3.091-2.73,3.354
	c-3.174,0.485-7.659-4.809-6.825-7.955C67.395,388.676,68.23,388.193,68.847,387.538z"/>
<path fill="#FFFFFF" d="M475.022,287.522c-4.415-2.604-5.23-6.87-2.466-11.397c3.09-5.056,5.329-6.517,7.719-5.031
	C474.796,277.862,474.796,277.862,475.022,287.522z"/>
<path fill="#FFFFFF" d="M460.004,490.286c-3.842-6.871-3.153-9.667,2.251-13.297c-0.183,1.502-0.325,2.673-0.5,4.114
	c0.86-0.146,1.714-0.291,3.677-0.625C463.343,484.252,461.673,487.27,460.004,490.286z"/>
<path fill="#FFFFFF" d="M494.817,454.426c-2.396,0.478-3.845,0.84-5.316,1.029c-0.84,0.106-1.718-0.071-2.578-0.12
	c0.396-0.786,0.669-1.673,1.212-2.34c2.181-2.675,4.406-5.315,6.707-7.887c0.438-0.488,1.293-0.604,1.956-0.892
	c0.255,0.884,0.913,1.889,0.693,2.632C496.656,449.688,495.538,452.444,494.817,454.426z"/>
<path fill="#FFFFFF" d="M133.049,408.012c-4.06,0-7.444,0.165-10.792-0.11c-0.887-0.074-1.661-1.51-2.487-2.319
	c0.754-0.688,1.436-1.854,2.274-1.98C125.945,403.007,130.396,400.993,133.049,408.012z"/>
<path fill="#FFFFFF" d="M506.162,399.156c0.535,1.887,0.508,3.588-2.02,3.636c-4.895,0.093-9.791,0.026-16.096,0.026
	c2.081-1.243,3.341-2.562,4.735-2.725c4.461-0.517,8.972-0.604,13.463-0.857L506.162,399.156z"/>
<path fill="#FFFFFF" d="M336.995,383.951c-5.446-2.625-10.895-5.251-16.351-7.883C323.52,372.855,334.027,377.125,336.995,383.951z"
	/>
<path fill="#FFFFFF" d="M475.272,426.647c4.923,3.501,9.125,6.487,13.813,9.822C483.946,438.812,475.117,432.458,475.272,426.647z"
	/>
<path fill="#FFFFFF" d="M722.539,461.23c-3.135,1.633-6.557-0.177-9.449-5.491c-1.354-2.488-0.833-4.683,1.75-5.49
	C717.455,453.979,719.907,457.477,722.539,461.23z"/>
<path fill="#FFFFFF" d="M398.395,397.812c1.86-1.031,3.343-1.854,4.85-2.688c-1.854-1.342-3.678-2.66-5.5-3.979
	c0.209-0.324,0.418-0.647,0.627-0.972c3.09,0.529,6.18,1.06,9.265,1.589C406.862,397.579,403.527,399.978,398.395,397.812z"/>
<path fill="#FFFFFF" d="M565.386,535.646c-0.935,2.65-1.606,4.562-2.558,7.26c-4.043-1.369-2.16-7.201-6.53-8.752
	C561.362,531.078,563.453,534.199,565.386,535.646z"/>
<path fill="#FFFFFF" d="M650.673,448.134c-0.896-2.453-5.796-1.025-3.758-5.467c0.116-0.252-2.208-1.624-3.882-2.822
	c0.744-0.872,1.742-2.723,2.338-2.602c1.447,0.296,3.29,1.203,3.921,2.413C650.504,441.984,653.289,444.289,650.673,448.134z"/>
<path fill="#FFFFFF" d="M489.784,406.252c4.452-2.784,6.102,0.642,7.554,2.73c1.832,2.639,1.939,5.83-1.582,9.262
	C495.057,413.206,495.177,408.311,489.784,406.252z"/>
<path fill="#FFFFFF" d="M154.622,398.438c-5.565,1.728-9.501,0.854-13.127-1.564c-0.611-0.408-1.065-1.83-0.823-2.509
	c0.224-0.628,1.702-1.438,2.244-1.22C146.528,394.605,150.038,396.322,154.622,398.438z"/>
<path fill="#FFFFFF" d="M478.814,540.561c7.019-1.013,13.696-4.578,21.062-2.999c0.065,0.442,0.131,0.885,0.195,1.326
	c-7.017,0.996-14.03,1.992-21.046,2.989C478.954,541.438,478.884,540.999,478.814,540.561z"/>
<path fill="#FFFFFF" d="M251.909,462.623c-0.394,2.521-0.789,5.046-1.183,7.569c-0.464-0.035-0.928-0.069-1.392-0.104
	c-0.154-0.779-0.308-1.559-0.432-2.186c-1.92,0.433-3.95,1.457-5.712,1.111c-1.503-0.294-2.698-2.164-3.607-4.003
	c1.924,0.353,4.054,1.381,5.718,0.876c1.911-0.579,3.408-2.518,5.085-3.865C250.893,462.223,251.401,462.423,251.909,462.623z"/>
<path fill="#FFFFFF" d="M303.971,452.689c-4.55,2.704-11.826,0.852-13.516-3.109c-0.396-0.928,0.226-2.287,0.38-3.449
	c0.854,0.48,1.708,0.96,2.562,1.44c2.379,1.338,4.731,2.725,7.148,3.986C301.458,452.036,302.522,452.224,303.971,452.689z"/>
<path fill="#FFFFFF" d="M134.197,434.102c-2.919-2.826-4.978-4.395-6.468-6.387c-1.415-1.892-2.237-4.227-3.319-6.366
	c0.433-0.214,0.866-0.429,1.299-0.644c2.701,2.487,5.665,4.758,7.973,7.566C134.592,429.379,134.041,431.688,134.197,434.102z"/>
<path fill="#FFFFFF" d="M267.104,465.135c-0.915,1.046-1.632,2.524-2.784,3.054c-2.946,1.35-6.085,2.274-9.422,3.469
	c1.179-3.121,2.35-6.222,3.521-9.32c1.247,8.075,5.248,2.165,7.887,1.779C266.572,464.455,266.837,464.795,267.104,465.135z"/>
<path fill="#FFFFFF" d="M167.875,399.755c2.545,6.045,4.904,11.647,7.278,17.286C169.735,414.957,166.114,406.644,167.875,399.755z"
	/>
<path fill="#FFFFFF" d="M84.676,189.109c5.356,0,10.712,0,16.189,0C98.873,192.691,88.834,193.148,84.676,189.109z"/>
<path fill="#FFFFFF" d="M636.173,499.826c1.585,4.223,3.169,8.442,4.875,12.986c-4.149-0.269-5.269-3.318-5.967-6.154
	c-0.563-2.291-0.114-4.832-0.114-7.262C635.369,499.54,635.771,499.684,636.173,499.826z"/>
<path fill="#FFFFFF" d="M161.801,398.877c1.846,5.563,3.427,10.327,5.008,15.093c-0.385,0.117-0.771,0.234-1.155,0.353
	C161.676,410.465,159.328,402.763,161.801,398.877z"/>
<path fill="#FFFFFF" d="M87.539,404.107c5.312,0.28,10.623,0.562,15.935,0.842c-0.029,0.592-0.058,1.182-0.088,1.772
	c-5.318-0.123-10.734,1.771-15.924-1.054C87.487,405.148,87.513,404.628,87.539,404.107z"/>
<path fill="#FFFFFF" d="M697.872,457.609c3.229,3.387,6.462,6.773,9.769,10.24C703.602,468.996,697.094,462.976,697.872,457.609z"/>
<path fill="#FFFFFF" d="M22.255,408.674c5.826,6.365,5.809,6.761,0,11.077C22.255,416.14,22.255,412.928,22.255,408.674z"/>
<path fill="#FFFFFF" d="M282.494,457.587c0.229-2.308,0.173-4.7,0.824-6.882c0.272-0.912,2.045-1.376,3.136-2.044
	c0.563,1.32,1.88,2.903,1.532,3.909c-0.699,2.02-2.307,3.724-3.539,5.559C283.795,457.947,283.145,457.768,282.494,457.587z"/>
<path fill="#FFFFFF" d="M494.876,436.727c0.76-4.002,1.521-8.004,2.566-13.5c1.423,2.236,3.422,3.997,3.124,5.178
	c-0.784,3.102-2.567,5.951-3.951,8.9C496.035,437.111,495.455,436.919,494.876,436.727z"/>
<path fill="#FFFFFF" d="M83.372,201.851c-1.613-2.901-4.136-5.399-0.745-8.04c0.678-0.528,3.287,0.1,3.817,0.942
	C88.441,197.921,86.374,199.895,83.372,201.851z"/>
<path fill="#FFFFFF" d="M381.996,467.945c4.476,2.967,4.135,4.342-2.884,8.077c-1.002-1.368-2.025-2.766-2.936-4.007
	C378.247,470.568,380.007,469.336,381.996,467.945z"/>
<path fill="#FFFFFF" d="M120.212,188.762c-5.848,3.121-16.004,3.305-18.015,0C108.233,188.762,113.857,188.762,120.212,188.762z"/>
<path fill="#FFFFFF" d="M509.381,435.026c1.595-2.549,2.926-4.676,4.831-7.721c0.542,1.545,0.614,2.595,1.177,3.127
	c0.611,0.58,1.678,0.682,2.554,0.992C516.735,435.581,515.392,436.249,509.381,435.026z"/>
<path fill="#FFFFFF" d="M443.641,489.053c1.803,0.256,3.742,0.185,5.363,0.869c1.415,0.6,2.655,1.918,3.568,3.206
	c0.276,0.392-0.654,1.855-1.309,2.582c-0.248,0.276-1.424,0.069-1.911-0.283c-2.32-1.678-4.552-3.479-6.813-5.239
	C442.907,489.81,443.274,489.431,443.641,489.053z"/>
<path fill="#FFFFFF" d="M725.02,442.984c-0.176-1.26-0.426-2.516-0.5-3.779c-0.047-0.814-0.084-1.826,0.341-2.408
	c0.353-0.48,1.854-0.846,2.047-0.608c1.739,2.131,3.302,4.405,4.915,6.639c-0.907,0.454-1.803,1.243-2.727,1.278
	c-1.222,0.047-2.467-0.497-3.701-0.786C725.27,443.206,725.146,443.095,725.02,442.984z"/>
<path fill="#FFFFFF" d="M738.708,435.928c0.746,2.111,1.492,4.223,2.238,6.333c-2.142,0.269-4.283,0.533-6.425,0.802
	c0.752-2.338,1.503-4.675,2.253-7.011C737.419,436.01,738.064,435.969,738.708,435.928z"/>
<path fill="#FFFFFF" d="M755.871,445.32c-2.155-0.977-3.771-1.706-6.01-2.721c1.24-1.572,2.298-3.139,3.636-4.407
	c0.254-0.24,1.625,0.697,2.479,1.093c-0.268,0.37-0.535,0.74-0.804,1.107c1.087-0.684,2.172-1.367,3.258-2.053
	c0.33,0.237,0.661,0.476,0.991,0.712C758.283,441.066,757.142,443.079,755.871,445.32z"/>
<path fill="#FFFFFF" d="M703.799,454.768c3.275,3.314,6.552,6.631,10.24,10.362c-5.262,0.437-9.919-3.817-11.238-9.385
	C703.134,455.419,703.466,455.094,703.799,454.768z"/>
<path fill="#FFFFFF" d="M280.692,568.199c-1.54,1.354-4.027,2.085-5.448-0.594c-1.653-3.114-3.472-4.545-7.381-2.964
	c3.558-4.521,5.622-4.434,8.386-0.562C277.267,565.506,278.853,566.527,280.692,568.199z"/>
<path fill="#FFFFFF" d="M712.209,474.605c-0.963,0.164-1.927,0.329-2.89,0.494c-0.305-0.359-0.607-0.72-0.911-1.081
	c3.214-2.95,6.429-5.903,9.728-8.934c1.355,3.032,0.44,4.423-6.007,9.571C712.13,474.656,712.209,474.605,712.209,474.605z"/>
<path fill="#FFFFFF" d="M212.595,464.371c0-5.26,0-9.312,0-13.349C216.974,451.614,217.518,457.881,212.595,464.371z"/>
<path fill="#FFFFFF" d="M607.933,531.582c3.419-0.168,6.837-0.335,11.037-0.541c-1.188,1.982-1.993,3.328-2.913,4.863
	c-2.821-0.972-5.57-1.918-8.321-2.865C607.801,532.554,607.867,532.068,607.933,531.582z"/>
<path fill="#FFFFFF" d="M302.963,424.922c-5.182,1.606-8.417,0.416-11.214-2.331c-0.42-0.413-0.719-1.357-0.535-1.856
	c0.169-0.459,1.258-1.061,1.615-0.895C295.919,421.276,298.935,422.87,302.963,424.922z"/>
<path fill="#FFFFFF" d="M452.508,440.737c0.359-0.574,0.718-1.148,1.076-1.723c1.501-0.896,3.001-1.791,4.501-2.687
	c0.498,0.355,0.996,0.712,1.494,1.068c-0.579,1.959-1.157,3.918-1.737,5.878C455.954,442.659,452.905,444.487,452.508,440.737z"/>
<path fill="#FFFFFF" d="M16.154,414.651c1.595,5.17,3.053,9.893,4.626,14.987C15.511,426.885,13.733,420.884,16.154,414.651z"/>
<path fill="#FFFFFF" d="M287.803,460.769c4.681-1.068,9.218,1.247,9.709,5.166c0.102,0.809-0.514,1.705-0.8,2.562
	c-0.669-0.523-1.364-1.016-2.001-1.576C292.383,464.868,290.074,462.794,287.803,460.769z"/>
<path fill="#FFFFFF" d="M534.588,451.213c-2.582-2.455-0.734-7.415,4.438-11.766C539.72,444.595,536.137,447.453,534.588,451.213z"
	/>
<path fill="#FFFFFF" d="M306.042,461.725c-5.323,1.18-7.038,0.364-9.295-4.723c1.582-0.441,3.08-0.86,4.579-1.278
	c-0.866,1.079-1.732,2.159-2.598,3.239C301.048,459.839,303.368,460.715,306.042,461.725z"/>
<path fill="#FFFFFF" d="M50.825,425.969c0.991,5.729-0.854,7.537-9.367,8.699C44.978,431.399,47.715,428.857,50.825,425.969z"/>
<path fill="#FFFFFF" d="M111.648,589.864c3.726-0.507,7.452-1.015,12.071-1.643c-2.183,3.896-5.262,3.89-7.995,4.063
	c-1.568,0.101-3.196-0.748-4.798-1.169C111.167,590.699,111.408,590.281,111.648,589.864z"/>
<path fill="#FFFFFF" d="M183.584,150.875c4.968-0.401,9.936-0.803,15.208-1.228C195.734,153.085,190.493,153.686,183.584,150.875z"
	/>
<path fill="#FFFFFF" d="M528.342,487.383c-4.026,5.073-9.083,3.308-11.645-3.407C521.19,483.471,522.896,491.108,528.342,487.383z"
	/>
<path fill="#FFFFFF" d="M140.672,424.05c-2.665-1.727-5.394-3.369-7.942-5.255c-0.494-0.365-0.285-1.681-0.4-2.559
	c0.851,0.063,1.935-0.184,2.511,0.248c2.482,1.86,4.815,3.921,7.202,5.907C141.586,422.944,141.129,423.497,140.672,424.05z"/>
<path fill="#FFFFFF" d="M261.962,409.648c0.871,1.953,2.23,3.556,1.863,4.439c-1.292,3.109-2.538,6.55-7.378,8.059
	C258.384,417.757,259.958,414.188,261.962,409.648z"/>
<path fill="#FFFFFF" d="M301.917,405.283c-4.079,2.439-9.575,1.472-10.994-1.271c-0.317-0.61-0.209-1.618,0.075-2.285
	c0.131-0.309,1.284-0.509,1.75-0.286c1.396,0.663,2.622,1.698,4.031,2.326C298.111,404.358,299.591,404.617,301.917,405.283z"/>
<path fill="#FFFFFF" d="M306.709,455.798c1.984-3.589,3.633-6.569,5.356-9.688c2.858,1.823,1.882,4.094,0.687,6.213
	C311.491,454.561,309.865,456.428,306.709,455.798z"/>
<path fill="#FFFFFF" d="M126.738,384.693c-3.898-0.271-7.325-0.508-10.751-0.745c-0.132-0.487-0.264-0.976-0.396-1.464
	c1.801-0.521,3.574-1.293,5.411-1.5C123.336,380.721,125.966,380.464,126.738,384.693z"/>
<path fill="#FFFFFF" d="M479.504,465.605c2.315,5.799-0.229,10.261-5.807,9.965C475.667,472.189,477.493,469.057,479.504,465.605z"
	/>
<path fill="#FFFFFF" d="M361.035,470.315c2.921-2.542,5.616-4.889,8.829-7.686c0.095,0.885,0.812,2.544,0.273,3.471
	C368.058,469.676,363.606,471.547,361.035,470.315z"/>
<path fill="#FFFFFF" d="M541.206,445.515c0.678,4.896-1.235,8.54-5.59,8.567c1.499-3.351,2.81-6.281,4.121-9.213
	C540.227,445.084,540.717,445.299,541.206,445.515z"/>
<path fill="#FFFFFF" d="M592.914,447.608c-5.836-0.082-8.529-2.826-7.969-6.97C587.329,442.725,590.024,445.082,592.914,447.608z"/>
<path fill="#FFFFFF" d="M356.952,471.635c4.623,0.846,8.731,1.596,12.926,2.36C367.323,477.223,358.64,475.819,356.952,471.635z"/>
<path fill="#FFFFFF" d="M467.469,426.936c3.017,3.575,5.244,6.216,7.748,9.184C469.575,436.205,467.239,433.701,467.469,426.936z"/>
<path fill="#FFFFFF" d="M307.297,402.425c4.317,0.403,5.477,3.847,7.403,7.062c-3.794,0.254-6.976-2.632-7.89-6.6
	C306.973,402.732,307.134,402.579,307.297,402.425z"/>
<path fill="#FFFFFF" d="M330.104,550.729c3.039,3.282,6.589,4.669,11.099,2.481c0.018,0.655,0.036,1.312,0.055,1.968
	c-2.483,0.615-5.145,2.065-7.396,1.59c-1.903-0.402-3.335-3.037-4.977-4.685C329.291,551.631,329.698,551.18,330.104,550.729z"/>
<path fill="#FFFFFF" d="M204.554,467.976c-0.154-2.856-0.428-5.716-0.396-8.57c0.011-0.988,0.782-1.968,1.207-2.951
	c0.742,0.894,2.201,1.877,2.1,2.662c-0.399,3.13-1.285,6.199-1.99,9.291C205.168,468.263,204.86,468.119,204.554,467.976z"/>
<path fill="#FFFFFF" d="M771.137,465.453c0.604-2.105,0.959-3.921,1.671-5.583c0.323-0.754,1.303-1.553,2.082-1.671
	c0.538-0.08,1.538,0.85,1.829,1.539C777.768,462.233,774.2,465.914,771.137,465.453z"/>
<path fill="#FFFFFF" d="M575.127,538.524c-3.604,0.591-3.67,0.485-5.057-8.071C573.138,530.312,573.621,531.083,575.127,538.524z"/>
<path fill="#FFFFFF" d="M534.609,426.571c3.695,0.396,7.395,0.795,11.97,1.287C542.291,430.971,538.445,430.613,534.609,426.571z"/>
<path fill="#FFFFFF" d="M449.778,449.186c1.058,2.325,2.462,4.176,2.561,6.092c0.06,1.14-1.938,2.383-3.012,3.581
	c-0.377-0.23-0.753-0.46-1.129-0.69c0-2.479-0.015-4.956,0.024-7.433C448.228,450.537,448.594,450.347,449.778,449.186z"/>
<path fill="#FFFFFF" d="M120.071,435.673c-0.592-3.298-1.142-6.359-1.735-9.666C124.188,429.184,124.566,432.848,120.071,435.673z"
	/>
<path fill="#FFFFFF" d="M249.95,419.115c0.644-1.233,1.288-2.466,1.932-3.698c0.791,0.77,2.139,1.458,2.266,2.324
	c0.34,2.315-3.557,6.107-7.063,6.614C248.181,422.35,249.066,420.732,249.95,419.115z"/>
<path fill="#FFFFFF" d="M334.84,446.172c1.961,1.832,3.921,3.663,6.263,5.851c-3.087,2.786-4.927-0.271-6.562-1.574
	c-0.928-0.741-0.803-2.805-1.153-4.271C333.872,446.175,334.356,446.173,334.84,446.172z"/>
<path fill="#FFFFFF" d="M768.713,430.427c2.777,3.098,5.264,5.869,7.946,8.86C771.836,440.079,768.002,435.54,768.713,430.427z"/>
<path fill="#FFFFFF" d="M260.918,262.672c1.059,0.771,2.824,1.391,3.029,2.345c0.432,2.013,0.047,4.202-0.002,6.318
	c-0.835-0.58-2.104-0.987-2.418-1.773c-0.703-1.76-0.929-3.71-1.349-5.583C260.424,263.543,260.671,263.107,260.918,262.672z"/>
<path fill="#FFFFFF" d="M344.498,548.955c2.286,3.459,4.571,6.917,6.857,10.375c-0.563,0.376-1.125,0.751-1.688,1.127
	c-2.322-3.434-4.643-6.867-6.965-10.301C343.301,549.756,343.899,549.355,344.498,548.955z"/>
<path fill="#FFFFFF" d="M546.257,489.645c-3.522,2.89-6.11,5.01-9.411,7.715C538.174,491.706,541.023,489.217,546.257,489.645z"/>
<path fill="#FFFFFF" d="M448.02,416.007c1.777,1.554,3.284,2.462,4.151,3.79c0.479,0.731-0.118,2.165-0.229,3.282
	c-1.853-1.188-3.804-2.263-5.446-3.69C446.242,419.17,447.409,417.316,448.02,416.007z"/>
<path fill="#FFFFFF" d="M306.811,402.888c-3.366,0.896-6.539,0.769-9.48-1.509c2.707-2.853,7.183-2.271,9.967,1.046
	C307.134,402.579,306.973,402.732,306.811,402.888z"/>
<path fill="#FFFFFF" d="M244.785,453.834c-1.961-2.744-3.921-5.488-5.958-8.34C243.079,444.882,245.861,448.261,244.785,453.834z"/>
<path fill="#FFFFFF" d="M74.307,447.755c1.911,1.97,3.871,3.896,5.68,5.955c0.282,0.321,0.092,1.494-0.279,1.824
	c-0.355,0.314-1.541,0.318-1.826-0.008c-1.786-2.043-3.422-4.22-5.107-6.352C73.285,448.702,73.796,448.229,74.307,447.755z"/>
<path fill="#FFFFFF" d="M146.385,406.489c-6.04,1.487-8.697,0.208-10.073-5.169C139.867,403.145,142.897,404.699,146.385,406.489z"
	/>
<path fill="#FFFFFF" d="M349.074,480.15c2.508,1.625,5.017,3.25,7.524,4.875c-0.286,0.465-0.572,0.929-0.858,1.393
	c-3.062-0.732-6.316-1.133-7.8-4.611C348.318,481.254,348.696,480.702,349.074,480.15z"/>
<path fill="#FFFFFF" d="M360.555,553.188c1.293,2.884,2.587,5.765,3.937,8.77C360.083,562.015,358.922,559.899,360.555,553.188z"/>
<path fill="#FFFFFF" d="M262.583,456.485c-2.013-2.448-4.027-4.896-6.459-7.854c3.382-0.57,5.048,1.474,6.461,3.339
	c0.869,1.147,0.958,2.887,1.396,4.359C263.516,456.382,263.049,456.434,262.583,456.485z"/>
<path fill="#FFFFFF" d="M347.188,454.45c-1.344-2.246-2.396-4.007-3.995-6.682c1.491-0.131,3.354-0.835,3.966-0.243
	C349.009,449.314,350.064,451.616,347.188,454.45z"/>
<path fill="#FFFFFF" d="M712.209,474.605c0,0-0.079,0.051-0.08,0.052c3.102-1.314,6.205-2.632,9.309-3.949
	c0.23,0.411,0.463,0.822,0.692,1.233c-2.99,1.813-5.979,3.627-8.972,5.44C712.842,476.456,712.525,475.531,712.209,474.605z"/>
<path fill="#FFFFFF" d="M87.818,433.683c-3.799-2.122-2.658-4.936-2.269-7.424c0.075-0.479,1.386-1.121,2.05-1.042
	c0.521,0.062,1.345,1.153,1.301,1.731C88.745,428.998,88.276,431.023,87.818,433.683z"/>
<path fill="#FFFFFF" d="M460.394,414.241c0.536-1.532,0.587-1.777,0.628-1.775c2.354,0.079,4.709,0.179,7.062,0.276
	c-0.054,0.657-0.122,1.891-0.16,1.89C465.547,414.574,463.173,414.415,460.394,414.241z"/>
<path fill="#FFFFFF" d="M285.215,560.736c2.927,1.398,5.854,2.799,9.073,4.338c-3.241,2.2-5.394,1.445-9.604-2.878
	C284.862,561.709,285.039,561.223,285.215,560.736z"/>
<path fill="#FFFFFF" d="M352.759,490.343c-2.731-0.694-5.489-1.314-8.173-2.164c-0.43-0.137-0.536-1.297-0.791-1.982
	c0.738-0.188,1.619-0.729,2.188-0.5c2.439,0.985,4.788,2.198,7.17,3.33C353.021,489.465,352.89,489.904,352.759,490.343z"/>
<path fill="#FFFFFF" d="M274.769,474.441c2.424-2.535,4.402-4.605,6.894-7.211c0.239,0.877,0.983,2.143,0.643,2.596
	C280.579,472.128,279.422,475.552,274.769,474.441z"/>
<path fill="#FFFFFF" d="M286.219,473.348c0.766-2.842,1.532-5.683,2.298-8.523c0.357-0.097,0.714-0.191,1.071-0.288
	c0.348,1.781,1.329,3.747,0.873,5.29c-0.49,1.662-2.327,2.927-3.577,4.363C286.662,473.908,286.441,473.628,286.219,473.348z"/>
<path fill="#FFFFFF" d="M59.6,409.157c-2.142-0.5-4.305-0.935-6.403-1.577c-0.305-0.094-0.585-1.63-0.392-1.756
	c0.98-0.637,2.4-1.689,3.144-1.373c1.563,0.667,2.801,2.098,4.172,3.215C59.947,408.163,59.773,408.66,59.6,409.157z"/>
<path fill="#FFFFFF" d="M14.075,419.442c0.469,3.444,0.952,6.888,1.343,10.342c0.012,0.104-1.19,0.603-1.382,0.428
	c-0.555-0.503-1.212-1.242-1.243-1.916c-0.134-2.894-0.057-5.797-0.057-8.696C13.182,419.547,13.628,419.495,14.075,419.442z"/>
<path fill="#FFFFFF" d="M224.126,422.447c1.968-2.562,3.936-5.122,5.904-7.684c0.365,0.262,0.729,0.521,1.094,0.781
	c-0.263,3.763-2.693,6.055-5.706,7.949C224.988,423.146,224.557,422.797,224.126,422.447z"/>
<path fill="#FFFFFF" d="M399.035,402.164c-3.2,0.519-6.18,0.156-8.771-1.759c0.124-0.561,0.248-1.119,0.373-1.679
	c2.93,0.521,5.857,1.042,8.787,1.563C399.295,400.915,399.165,401.54,399.035,402.164z"/>
<path fill="#FFFFFF" d="M535.372,483.408c-0.553,2.567-1.106,5.137-1.71,7.939c-3.511-2.516-3.252-4.679,0.482-8.263
	C534.555,483.192,534.963,483.301,535.372,483.408z"/>
<path fill="#FFFFFF" d="M619.079,512.074c-1.118-1.583-2.237-3.168-3.677-5.206c1.762-0.789,2.95-1.321,4.754-2.127
	c0,2.733,0,4.813,0,6.896C619.798,511.783,619.438,511.929,619.079,512.074z"/>
<path fill="#FFFFFF" d="M543.261,535.627c-3.663,2.718-6.977,2.25-10.016-0.167c0.053-0.407,0.104-0.812,0.157-1.222
	C536.689,534.701,539.976,535.165,543.261,535.627z"/>
<path fill="#FFFFFF" d="M650.597,509.532c-4.791-2.947-5.447-5.196-2.597-8.614C648.854,503.752,649.567,506.115,650.597,509.532z"
	/>
<path fill="#FFFFFF" d="M440.208,496.315c-2.105-1.186-4.211-2.367-6.316-3.552C437.915,490.428,440.272,491.2,440.208,496.315z"/>
<path fill="#FFFFFF" d="M149.172,365.665c-1.584,1.222-2.595,2.001-3.604,2.78c-0.74-1.004-1.967-1.967-2.058-3.026
	c-0.068-0.789,1.501-2.509,2.049-2.396C146.682,363.254,147.61,364.438,149.172,365.665z"/>
<path fill="#FFFFFF" d="M222.839,414.432c-1.736,2.53-3.474,5.062-5.21,7.593c-0.56-0.388-1.12-0.772-1.681-1.159
	c1.71-2.552,3.419-5.104,5.129-7.655C221.665,413.616,222.252,414.023,222.839,414.432z"/>
<path fill="#FFFFFF" d="M74.029,186.641c0.468,0.287,0.971,0.531,1.397,0.872c1.083,0.865,2.133,1.773,3.195,2.663
	c-0.081,0.463-0.163,0.926-0.244,1.39c-1.52-0.233-3.295-0.071-4.475-0.831c-0.855-0.551-0.923-2.325-1.341-3.554
	C73.05,187,73.54,186.821,74.029,186.641z"/>
<path fill="#FFFFFF" d="M109.549,437.938c2.042-2.775,3.703-5.051,5.399-7.299c0.122-0.162,0.508-0.125,0.772-0.181
	C116.164,435.3,114.206,437.92,109.549,437.938z"/>
<path fill="#FFFFFF" d="M608.479,509.106c-0.742-1.682-1.666-3.32-2.071-5.079c-0.077-0.336,1.896-1.144,3.527-2.079
	c0,2.798,0,4.648,0,6.499C609.449,508.668,608.964,508.888,608.479,509.106z"/>
<path fill="#FFFFFF" d="M157.02,467.967c0.422-3.127,0.844-6.254,1.265-9.383c0.56,0.069,1.118,0.138,1.677,0.206
	c-0.266,3.161-0.531,6.321-0.797,9.482C158.45,468.171,157.735,468.068,157.02,467.967z"/>
<path fill="#FFFFFF" d="M324.686,381.395c-4.115,5.369-7.176,6.111-9.135,2.735C318.308,383.305,321.014,382.494,324.686,381.395z"
	/>
<path fill="#FFFFFF" d="M191.441,147.623c1.882-1.52,3.764-3.04,5.646-4.56c0.392,0.239,0.782,0.478,1.173,0.716
	c-0.821,1.45-1.391,3.163-2.546,4.26c-0.838,0.797-2.45,0.778-3.716,1.124C191.812,148.65,191.626,148.136,191.441,147.623z"/>
<path fill="#FFFFFF" d="M380.994,356.443c-0.682-2.248-1.361-4.496-2.042-6.744c0.52-0.18,1.039-0.359,1.559-0.54
	c3.086,1.293,2.672,3.979,2.277,6.659C382.19,356.027,381.592,356.234,380.994,356.443z"/>
<path fill="#FFFFFF" d="M366.618,368.739c-1.47-0.962-3.037-1.812-4.353-2.953c-0.418-0.363-0.437-2.045-0.169-2.179
	c0.755-0.377,2.125-0.674,2.586-0.26c1.207,1.084,2.059,2.562,3.051,3.885C367.362,367.734,366.99,368.236,366.618,368.739z"/>
<path fill="#FFFFFF" d="M575.05,495.581c-0.78,1.748-1.561,3.498-2.917,6.537c-0.852-1.934-2.031-3.414-1.679-4.049
	c0.813-1.472,2.368-2.532,3.622-3.761C574.4,494.732,574.725,495.157,575.05,495.581z"/>
<path fill="#FFFFFF" d="M362.267,355.216c2.084,0.769,4.169,1.537,6.253,2.308c-0.2,0.713-0.401,1.427-0.603,2.141
	c-1.905-0.465-3.868-0.792-5.664-1.523c-0.319-0.132,0.052-1.951,0.107-2.994C362.362,355.145,362.267,355.216,362.267,355.216z"/>
<path fill="#FFFFFF" d="M297.641,557.504c2.692,0.712,5.384,1.424,8.076,2.135c-0.162,0.66-0.324,1.32-0.485,1.98
	c-2.719-0.652-5.438-1.307-8.156-1.959C297.264,558.941,297.452,558.223,297.641,557.504z"/>
<path fill="#FFFFFF" d="M43.032,424.113c0.947,4.39-1.96,8.064-6.085,7.312C39.041,428.909,40.979,426.58,43.032,424.113z"/>
<path fill="#FFFFFF" d="M395.328,360.865c1.062-1.948,2.126-3.897,3.772-6.914c0.794,1.806,1.721,2.999,1.443,3.443
	c-1.03,1.655-2.456,3.065-3.733,4.566C396.316,361.598,395.822,361.23,395.328,360.865z"/>
<path fill="#FFFFFF" d="M441.902,458.799c-1.703-1.445-3.405-2.891-5.108-4.336c0.188-0.446,0.373-0.892,0.56-1.338
	c1.234,0.288,2.811,0.208,3.618,0.956c1.046,0.967,1.479,2.595,2.179,3.938C442.733,458.278,442.318,458.538,441.902,458.799z"/>
<path fill="#FFFFFF" d="M327.345,451.506c1.692,1.625,3.384,3.251,5.21,5.005c-3.194,1.889-3.948,1.369-6.291-3.684
	C326.625,452.387,326.984,451.946,327.345,451.506z"/>
<path fill="#FFFFFF" d="M275.182,454.262c-2.675-0.497-5.351-0.995-8.026-1.492c0.11-0.652,0.22-1.308,0.33-1.961
	c2.703,0.393,5.405,0.783,8.108,1.177C275.457,452.743,275.319,453.502,275.182,454.262z"/>
<path fill="#FFFFFF" d="M481.457,415.323c1.163,2.597,1.875,4.187,2.588,5.775c-0.276,0.343-0.553,0.685-0.829,1.025
	c-1.544-0.979-3.087-1.957-4.63-2.937C479.384,418.115,480.182,417.041,481.457,415.323z"/>
<path fill="#FFFFFF" d="M386.09,407.434c2.611,0.742,5.223,1.484,7.834,2.229c-0.187,0.624-0.375,1.248-0.562,1.873
	c-2.699-0.732-5.399-1.466-8.1-2.198C385.538,408.702,385.814,408.067,386.09,407.434z"/>
<path fill="#FFFFFF" d="M567.785,493.987c-0.914,1.537-1.774,3.113-2.819,4.555c-0.112,0.157-1.304-0.467-1.994-0.729
	c0.77-1.676,1.538-3.351,2.309-5.025C566.115,493.188,566.949,493.588,567.785,493.987z"/>
</svg>
