<?xml version="1.0" encoding="utf-8"?>
<!DOCTYPE svg PUBLIC "-//W3C//DTD SVG 1.1//EN" "http://www.w3.org/Graphics/SVG/1.1/DTD/svg11.dtd">
<svg version="1.1" xmlns="http://www.w3.org/2000/svg" xmlns:xlink="http://www.w3.org/1999/xlink" x="0px" y="0px" width="1024px" height="1024px" viewBox="0 0 1024 1024" enable-background="new 0 0 1024 1024" xml:space="preserve">
<metadata> Free Icon Download -- www.onlinewebfonts.com </metadata>

  <path d="M512 96C283.202 96 96 283.202 96 512s187.202 416 416 416 416-187.202 416-416S740.798 96 512 96zM512 844.798c-183.036 0-332.798-149.764-332.798-332.798S328.964 179.2 512 179.2 844.8 328.964 844.8 512 695.036 844.798 512 844.798zM409.931 495.691l61.668 119.175c0 0 99.88-242.323 257.645-323.097-3.783 57.696-19.105 107.636 7.756 169.304-69.234 15.323-211.678 188.6-257.834 273.157C413.903 653.457 336.913 591.788 283 572.682L409.931 495.691z" />


</svg>