<?xml version="1.0" encoding="utf-8"?>
<!-- Generator: Adobe Illustrator 16.0.4, SVG Export Plug-In . SVG Version: 6.00 Build 0)  -->
<!DOCTYPE svg PUBLIC "-//W3C//DTD SVG 1.1//EN" "http://www.w3.org/Graphics/SVG/1.1/DTD/svg11.dtd">
<svg version="1.1" id="Layer_1" xmlns="http://www.w3.org/2000/svg" xmlns:xlink="http://www.w3.org/1999/xlink" x="0px" y="0px"
	 width="46px" height="46px" viewBox="0 0 46 46" enable-background="new 0 0 46 46" xml:space="preserve">
<path fill="#FFFFFF" d="M1.522,5.501c-0.267,0.12-0.636,0.405-0.848,0.645c-0.728,0.83-0.673-0.479-0.673,16.184
	c0,16.523-0.046,15.354,0.608,16.118c0.184,0.212,0.525,0.489,0.756,0.637l0.433,0.248l9.723,0.027c7.281,0.019,9.778,0,9.925-0.081
	c0.258-0.141,0.415-0.571,0.305-0.859c-0.203-0.543,0.387-0.515-10.11-0.515H2.038l-0.258-0.222l-0.258-0.222V22.329V7.197
	l0.258-0.222l0.258-0.22h6.451h6.442l4.829,2.442l4.82,2.442h9.732h9.731l0.258,0.22l0.259,0.222l0.046,5.456l0.046,5.456
	l0.222,0.175c0.295,0.24,0.709,0.221,0.977-0.056l0.23-0.22v-5.29c0-5.917,0.009-5.797-0.654-6.553
	c-0.203-0.22-0.58-0.516-0.839-0.645l-0.479-0.241h-9.565h-9.565l-4.876-2.441L15.216,5.28H8.599H1.982L1.522,5.501z"/>
</svg>
