<?xml version="1.0" encoding="utf-8"?>
<!-- Generator: Adobe Illustrator 16.0.4, SVG Export Plug-In . SVG Version: 6.00 Build 0)  -->
<!DOCTYPE svg PUBLIC "-//W3C//DTD SVG 1.1//EN" "http://www.w3.org/Graphics/SVG/1.1/DTD/svg11.dtd">
<svg version="1.1" id="Layer_1" xmlns="http://www.w3.org/2000/svg" xmlns:xlink="http://www.w3.org/1999/xlink" x="0px" y="0px"
	 width="46px" height="46px" viewBox="0 0 46 46" enable-background="new 0 0 46 46" xml:space="preserve">
<path fill="#FFFFFF" d="M1.522,5.501c-0.267,0.12-0.636,0.405-0.848,0.645c-0.728,0.83-0.673-0.479-0.673,16.184
	c0,16.523-0.046,15.354,0.608,16.118c0.184,0.212,0.525,0.489,0.756,0.637l0.433,0.248l9.723,0.027c7.281,0.019,9.778,0,9.925-0.081
	c0.258-0.141,0.415-0.571,0.305-0.859c-0.203-0.543,0.387-0.515-10.11-0.515H2.038l-0.258-0.222l-0.258-0.222V22.329V7.197
	l0.258-0.222l0.258-0.22h6.451h6.442l4.829,2.442l4.82,2.442h9.732h9.731l0.258,0.22l0.259,0.222l0.046,5.456l0.046,5.456
	l0.222,0.175c0.295,0.24,0.709,0.221,0.977-0.056l0.23-0.22v-5.29c0-5.917,0.009-5.797-0.654-6.553
	c-0.203-0.22-0.58-0.516-0.839-0.645l-0.479-0.241h-9.565h-9.565l-4.876-2.441L15.216,5.28H8.599H1.982L1.522,5.501z"/>
<path fill="#FFFFFF" d="M39.896,23.233c-0.488,0.203-0.811,0.49-3.022,2.691c-2.903,2.904-2.967,2.996-2.967,4.313
	c0,0.94,0.174,1.438,0.736,2.12l0.313,0.386l-1.088,1.08l-1.087,1.086l-0.498-0.377c-0.709-0.535-1.216-0.684-2.193-0.638
	c-1.234,0.066-1.337,0.14-4.212,3.043c-2.811,2.829-2.838,2.875-2.838,4.175c0,1.188,0.157,1.483,1.641,2.959
	c1.254,1.262,1.317,1.317,1.935,1.501c0.792,0.239,1.254,0.239,2.046,0l0.636-0.193l2.553-2.544
	c1.807-1.797,2.617-2.663,2.755-2.959c0.148-0.303,0.222-0.652,0.25-1.216c0.046-0.986-0.111-1.539-0.645-2.212l-0.37-0.469
	l1.078-1.088l1.088-1.097l0.388,0.313c0.663,0.553,1.188,0.737,2.072,0.737c1.355,0,1.355,0.01,4.222-2.848
	c2.894-2.866,2.977-2.986,3.042-4.202c0.027-0.645,0-0.885-0.166-1.336c-0.185-0.479-0.359-0.71-1.466-1.808
	c-1.088-1.087-1.327-1.281-1.787-1.457C41.556,22.919,40.625,22.938,39.896,23.233z M41.812,24.533
	c0.397,0.211,1.964,1.731,2.286,2.238c0.286,0.443,0.351,0.977,0.166,1.457c-0.129,0.34-4.636,4.874-5.077,5.105
	c-0.608,0.313-1.189,0.222-1.77-0.296l-0.342-0.295l1.383-1.399c1.29-1.29,1.392-1.42,1.392-1.733c0-0.451-0.258-0.709-0.71-0.709
	c-0.312,0-0.442,0.101-1.731,1.382l-1.392,1.382l-0.24-0.248c-0.6-0.645-0.691-1.317-0.268-1.972
	c0.332-0.508,4.562-4.729,4.939-4.912C40.809,24.339,41.444,24.348,41.812,24.533z M31.004,35.398
	c0.128,0.063,0.332,0.229,0.451,0.359l0.229,0.239l-1.032,1.05c-0.884,0.885-1.031,1.089-1.031,1.338
	c0,0.396,0.351,0.747,0.746,0.747c0.25,0,0.451-0.148,1.346-1.042l1.051-1.032l0.312,0.341c0.406,0.441,0.554,0.959,0.406,1.474
	c-0.082,0.342-0.433,0.738-2.46,2.775c-1.493,1.501-2.507,2.441-2.737,2.551c-0.802,0.388-1.254,0.204-2.553-1.078
	c-1.354-1.335-1.576-1.832-1.18-2.653c0.267-0.562,4.828-5.068,5.254-5.198C30.165,35.167,30.652,35.213,31.004,35.398z"/>
</svg>
