<?xml version="1.0" encoding="utf-8"?>
<!-- Generator: Adobe Illustrator 16.0.4, SVG Export Plug-In . SVG Version: 6.00 Build 0)  -->
<!DOCTYPE svg PUBLIC "-//W3C//DTD SVG 1.1//EN" "http://www.w3.org/Graphics/SVG/1.1/DTD/svg11.dtd">
<svg version="1.1" id="Capa_1" xmlns="http://www.w3.org/2000/svg" xmlns:xlink="http://www.w3.org/1999/xlink" x="0px" y="0px"
	 width="512px" height="512px" viewBox="0 0 512 512" enable-background="new 0 0 512 512" xml:space="preserve">
<path fill="#FFFFFF" d="M125.115,121.765h7.325c11.132,0,20.156-9.027,20.156-20.156V45.987V25.183
	c0-11.129-9.024-20.155-20.156-20.155h-7.325c-11.131,0-20.155,9.025-20.155,20.155v20.806v55.62
	C104.96,112.738,113.984,121.765,125.115,121.765z"/>
<path fill="#FFFFFF" d="M383.641,121.266h7.325c11.131,0,20.154-9.026,20.154-20.156V40.708V24.682
	c0-11.128-9.023-20.154-20.154-20.154h-7.325c-11.133,0-20.156,9.026-20.156,20.154v16.026v60.4
	C363.486,112.24,372.51,121.266,383.641,121.266z"/>
<path fill="#FFFFFF" d="M479.234,45.987h-51.729v60.4c0,20.148-16.391,31.261-36.537,31.261h-7.325
	c-20.148,0-36.539-16.392-36.539-36.541V45.987H168.98v55.621c0,20.148-16.391,36.541-36.54,36.541h-7.325
	c-20.147,0-36.538-16.392-36.538-36.541V45.987H32.767C14.7,45.987,0,60.687,0,78.756v395.948c0,18.068,14.7,32.768,32.767,32.768
	h446.467c18.067,0,32.766-14.699,32.766-32.768V78.756C512.002,60.688,497.302,45.987,479.234,45.987z M479.234,474.704H32.768
	l-0.001-299.01H479.24l0.017,299.008C479.255,474.702,479.249,474.704,479.234,474.704z"/>
<path fill="#FFFFFF" d="M272.916,275.99h58.836c2.332,0,4.223-1.891,4.223-4.223v-50.947c0-2.332-1.891-4.223-4.223-4.223h-58.836
	c-2.332,0-4.223,1.891-4.223,4.223v50.947C268.693,274.1,270.584,275.99,272.916,275.99z"/>
<path fill="#FFFFFF" d="M368.934,275.99h58.836c2.332,0,4.223-1.891,4.223-4.223v-50.947c0-2.332-1.891-4.223-4.223-4.223h-58.836
	c-2.332,0-4.223,1.891-4.223,4.223v50.947C364.711,274.1,366.602,275.99,368.934,275.99z"/>
<path fill="#FFFFFF" d="M80.884,359.396h58.834c2.333,0,4.223-1.891,4.223-4.223v-50.947c0-2.332-1.891-4.223-4.223-4.223H80.884
	c-2.333,0-4.223,1.891-4.223,4.223v50.947C76.661,357.506,78.552,359.396,80.884,359.396z"/>
<path fill="#FFFFFF" d="M176.901,359.396h58.834c2.332,0,4.223-1.891,4.223-4.223v-50.947c0-2.332-1.891-4.223-4.223-4.223h-58.834
	c-2.333,0-4.223,1.891-4.223,4.223v50.947C172.678,357.506,174.568,359.396,176.901,359.396z"/>
<path fill="#FFFFFF" d="M272.917,359.396h58.835c2.332,0,4.223-1.891,4.223-4.223v-50.947c0-2.332-1.891-4.223-4.223-4.223h-58.835
	c-2.332,0-4.223,1.891-4.223,4.223v50.947C268.694,357.506,270.585,359.396,272.917,359.396z"/>
<path fill="#FFFFFF" d="M368.934,359.396h58.836c2.332,0,4.223-1.891,4.223-4.223v-50.947c0-2.332-1.891-4.223-4.223-4.223h-58.836
	c-2.332,0-4.223,1.891-4.223,4.223v50.947C364.711,357.506,366.602,359.396,368.934,359.396z"/>
<path fill="#FFFFFF" d="M139.718,383.41H80.885c-2.333,0-4.223,1.891-4.223,4.223v50.947c0,2.332,1.891,4.224,4.223,4.224h58.834
	c2.333,0,4.223-1.892,4.223-4.224v-50.947C143.941,385.301,142.051,383.41,139.718,383.41z"/>
<path fill="#FFFFFF" d="M235.736,383.41h-58.834c-2.333,0-4.223,1.891-4.223,4.223v50.947c0,2.332,1.891,4.224,4.223,4.224h58.834
	c2.333,0,4.223-1.892,4.223-4.224v-50.947C239.959,385.301,238.068,383.41,235.736,383.41z"/>
<path fill="#FFFFFF" d="M331.754,383.41h-58.836c-2.332,0-4.223,1.891-4.223,4.223v50.947c0,2.332,1.891,4.224,4.223,4.224h58.836
	c2.332,0,4.223-1.892,4.223-4.224v-50.947C335.977,385.301,334.086,383.41,331.754,383.41z"/>
<path fill="#FFFFFF" d="M427.77,383.41h-58.836c-2.332,0-4.223,1.891-4.223,4.223v50.947c0,2.332,1.891,4.224,4.223,4.224h58.836
	c2.332,0,4.223-1.892,4.223-4.224v-50.947C431.992,385.301,430.102,383.41,427.77,383.41z"/>
</svg>
