<?xml version="1.0" encoding="utf-8"?>
<!-- Generator: Adobe Illustrator 16.0.4, SVG Export Plug-In . SVG Version: 6.00 Build 0)  -->
<!DOCTYPE svg PUBLIC "-//W3C//DTD SVG 1.1//EN" "http://www.w3.org/Graphics/SVG/1.1/DTD/svg11.dtd">
<svg version="1.1" id="Layer_1" xmlns="http://www.w3.org/2000/svg" xmlns:xlink="http://www.w3.org/1999/xlink" x="0px" y="0px"
	 width="46px" height="46px" viewBox="489 489 46 46" enable-background="new 489 489 46 46" xml:space="preserve">
<g>
	<path fill="#FFFFFF" d="M501.922,512.449c1.697,0,3.093,1.396,3.093,3.093c0,1.695-1.396,3.094-3.093,3.094
		c-1.696,0-3.093-1.398-3.093-3.094C498.829,513.846,500.227,512.449,501.922,512.449z M513.248,512.449
		c1.696,0,3.093,1.396,3.093,3.093c0,1.695-1.396,3.094-3.093,3.094c-1.697,0-3.094-1.398-3.094-3.094
		C510.154,513.846,511.551,512.449,513.248,512.449z M524.623,512.449c1.695,0,3.093,1.396,3.093,3.093
		c0,1.695-1.397,3.094-3.093,3.094c-1.696,0-3.093-1.398-3.093-3.094C521.53,513.846,522.877,512.449,524.623,512.449z"/>
	<path fill="#FFFFFF" d="M521.978,511.9c-6.235,0-11.324-5.089-11.324-11.325c0-6.237,5.089-11.326,11.324-11.326
		c6.237,0,11.325,5.089,11.325,11.326C533.303,506.812,528.215,511.9,521.978,511.9z M521.978,491.246
		c-5.138,0-9.329,4.191-9.329,9.33c0,5.138,4.191,9.329,9.329,9.329c5.14,0,9.33-4.191,9.33-9.329
		C531.308,495.437,527.117,491.246,521.978,491.246z"/>
	<path fill="#FFFFFF" d="M493.092,534.75c-0.2,0-0.399-0.05-0.599-0.099c-1.497-0.45-1.796-2.196-1.796-6.836v-21.204
		c0-3.592,2.844-6.485,6.336-6.485h10.177c0.848,0,1.497,0.648,1.497,1.497c0,0.849-0.648,1.497-1.497,1.497h-10.128
		c-1.796,0-3.342,1.596-3.342,3.492v21.204c0,0.997,0,1.746,0.049,2.345c1.747-2.545,4.341-6.337,8.183-6.337h24.296
		c1.796,0,3.343-1.595,3.343-3.492v-8.38c0-0.849,0.648-1.497,1.497-1.497s1.497,0.648,1.497,1.497v8.38
		c0,3.593-2.845,6.486-6.337,6.486h-24.296c-2.295,0-4.341,3.043-5.738,5.089C495.137,533.502,494.29,534.75,493.092,534.75z"/>
	<path fill="#FFFFFF" d="M519.933,506.612c-0.499,0-0.998-0.199-1.347-0.548l-4.49-4.49c-0.6-0.599-0.6-1.546,0-2.096
		c0.599-0.598,1.546-0.598,2.095,0l3.742,3.742l7.135-7.134c0.599-0.599,1.545-0.599,2.094,0c0.6,0.599,0.6,1.546,0,2.096
		l-7.831,7.832C520.932,506.413,520.481,506.612,519.933,506.612z"/>
</g>
</svg>
