<?xml version="1.0" encoding="utf-8"?>
<!-- Generator: Adobe Illustrator 16.0.4, SVG Export Plug-In . SVG Version: 6.00 Build 0)  -->
<!DOCTYPE svg PUBLIC "-//W3C//DTD SVG 1.1//EN" "http://www.w3.org/Graphics/SVG/1.1/DTD/svg11.dtd">
<svg version="1.1" id="Layer_1" xmlns="http://www.w3.org/2000/svg" xmlns:xlink="http://www.w3.org/1999/xlink" x="0px" y="0px"
	 width="46px" height="46px" viewBox="0 0 46 46" enable-background="new 0 0 46 46" xml:space="preserve">
<path fill="#FFFFFF" d="M33.877,18.316c-5.018,0-9.112-4.095-9.112-9.113c0-5.017,4.095-9.112,9.112-9.112s9.112,4.095,9.112,9.112
	C42.989,14.222,38.895,18.316,33.877,18.316z M33.877,1.697c-4.134,0-7.506,3.372-7.506,7.506s3.372,7.507,7.506,7.507
	c4.135,0,7.507-3.372,7.507-7.507S38.012,1.697,33.877,1.697z"/>
<path fill="#FFFFFF" d="M32.231,14.061c-0.401,0-0.804-0.161-1.084-0.441l-3.613-3.613c-0.481-0.481-0.481-1.245,0-1.686
	c0.482-0.481,1.244-0.481,1.687,0l3.011,3.011l5.74-5.74c0.481-0.482,1.243-0.482,1.686,0c0.482,0.481,0.482,1.244,0,1.686
	l-6.302,6.303C33.034,13.9,32.673,14.061,32.231,14.061z"/>
<path fill="#FDFEFF" d="M12.407,21.627c1.847,0,3.368,1.521,3.368,3.368c0,1.847-1.521,3.367-3.368,3.367
	c-1.847,0-3.368-1.521-3.368-3.367C9.039,23.148,10.56,21.627,12.407,21.627z M24.737,21.627c1.848,0,3.369,1.521,3.369,3.368
	c0,1.847-1.521,3.367-3.369,3.367c-1.846,0-3.368-1.521-3.368-3.367C21.369,23.148,22.892,21.627,24.737,21.627z M37.123,21.627
	c1.847,0,3.368,1.521,3.368,3.368c0,1.847-1.521,3.367-3.368,3.367s-3.368-1.521-3.368-3.367
	C33.755,23.148,35.222,21.627,37.123,21.627z"/>
<path fill="#FDFEFF" d="M2.792,45.908c-0.217,0-0.435-0.055-0.652-0.109c-1.63-0.488-1.956-2.389-1.956-7.441V15.271
	c0-3.911,3.096-7.062,6.899-7.062h11.082c0.923,0,1.629,0.706,1.629,1.629c0,0.924-0.706,1.63-1.629,1.63H7.138
	c-1.956,0-3.64,1.738-3.64,3.803v23.086c0,1.086,0,1.9,0.055,2.553c1.901-2.77,4.726-6.897,8.908-6.897h26.454
	c1.955,0,3.64-1.739,3.64-3.804v-9.125c0-0.924,0.707-1.63,1.63-1.63c0.924,0,1.63,0.706,1.63,1.63v9.125
	c0,3.912-3.097,7.062-6.899,7.062H12.461c-2.499,0-4.726,3.314-6.247,5.541C5.019,44.551,4.096,45.908,2.792,45.908z"/>
</svg>
