<?xml version="1.0" encoding="utf-8"?>
<!-- Generator: Adobe Illustrator 16.0.4, SVG Export Plug-In . SVG Version: 6.00 Build 0)  -->
<!DOCTYPE svg PUBLIC "-//W3C//DTD SVG 1.1//EN" "http://www.w3.org/Graphics/SVG/1.1/DTD/svg11.dtd">
<svg version="1.1" id="Layer_1" xmlns="http://www.w3.org/2000/svg" xmlns:xlink="http://www.w3.org/1999/xlink" x="0px" y="0px"
	 width="46px" height="46px" viewBox="0 0 46 46" enable-background="new 0 0 46 46" xml:space="preserve">
<title>Layer 1</title>
<path id="svg_2" fill="none" stroke="#FFFFFF" stroke-width="1.8495" stroke-miterlimit="10" d="M23.033,40.333
	c-0.895-4.393-2.472-8.046-4.383-11.437c-1.417-2.511-3.059-4.83-4.58-7.268c-0.506-0.813-0.945-1.672-1.432-2.517
	c-0.975-1.688-1.765-3.645-1.715-6.185c0.05-2.481,0.767-4.471,1.801-6.098c1.703-2.677,4.553-4.871,8.376-5.446
	c3.128-0.472,6.061,0.325,8.139,1.54c1.697,0.993,3.013,2.321,4.013,3.885c1.044,1.633,1.763,3.561,1.823,6.076
	c0.032,1.289-0.18,2.482-0.478,3.471c-0.3,1.002-0.783,1.839-1.214,2.734c-0.841,1.747-1.894,3.345-2.95,4.947
	C27.283,28.806,24.327,33.67,23.033,40.333z"/>
<circle id="svg_4" fill="none" stroke="#FFFFFF" stroke-width="2" stroke-miterlimit="10" cx="22.999" cy="12.63" r="4.252"/>
</svg>
