<?xml version="1.0" encoding="utf-8"?>
<!-- Generator: Adobe Illustrator 16.0.4, SVG Export Plug-In . SVG Version: 6.00 Build 0)  -->
<!DOCTYPE svg PUBLIC "-//W3C//DTD SVG 1.1//EN" "http://www.w3.org/Graphics/SVG/1.1/DTD/svg11.dtd">
<svg version="1.1" id="Layer_1" xmlns="http://www.w3.org/2000/svg" xmlns:xlink="http://www.w3.org/1999/xlink" x="0px" y="0px"
	 width="44px" height="46px" viewBox="0 0 44 46" enable-background="new 0 0 44 46" xml:space="preserve">
<path fill="#FFFFFF" d="M42.616,11.521l-1.142,11.479h-2.591l1.025-10.311H16.229c-0.02,0.011-0.032,0.028-0.053,0.037
	c-0.545,0.235-1.146,0.049-1.5-0.393c-0.158-0.149-0.265-0.339-0.332-0.552l-2.154-4.248H4.064L6.44,35.889h16.849
	c0.712,0,1.289,0.577,1.289,1.288c0,0.712-0.577,1.288-1.289,1.288H5.538c-0.024,0.007-0.045,0.023-0.07,0.027
	c-0.43,0.068-0.827-0.099-1.11-0.388c-0.017-0.017-0.03-0.033-0.046-0.05c-0.076-0.086-0.14-0.177-0.191-0.283
	c-0.042-0.08-0.07-0.163-0.095-0.253c-0.009-0.033-0.03-0.06-0.035-0.093l-0.012-0.138c-0.003-0.038-0.022-0.071-0.022-0.111
	c0-0.016,0.009-0.03,0.009-0.046L1.394,6.437C1.389,6.403,1.4,6.373,1.398,6.34C1.396,6.307,1.378,6.278,1.378,6.245
	c0-0.051,0.023-0.093,0.029-0.142c0.01-0.101,0.025-0.195,0.058-0.288C1.485,5.758,1.512,5.707,1.54,5.654
	c0.051-0.099,0.108-0.189,0.184-0.272c0.031-0.034,0.064-0.063,0.1-0.095c0.09-0.08,0.187-0.146,0.298-0.2
	C2.16,5.068,2.2,5.057,2.242,5.042c0.074-0.026,0.139-0.069,0.219-0.083C2.515,4.95,2.565,4.967,2.618,4.966
	c0.018-0.001,0.031-0.01,0.049-0.01h10.3c0.001,0,0.002,0,0.003,0h0.008c0.04,0,0.073,0.019,0.112,0.022
	c0.129,0.012,0.257,0.027,0.375,0.076c0.078,0.031,0.139,0.088,0.208,0.133c0.07,0.045,0.146,0.08,0.205,0.139
	c0.092,0.089,0.156,0.2,0.218,0.313c0.019,0.035,0.05,0.058,0.065,0.095l2.221,4.377h18.507V7.533H20.711
	c-0.711,0-1.289-0.577-1.289-1.288c0-0.712,0.578-1.289,1.289-1.289h15.468c0.71,0,1.288,0.577,1.288,1.289v3.866h3.867
	c0.013,0,0.022,0.007,0.036,0.008c0.032,0.001,0.06-0.013,0.093-0.01c0.094,0.01,0.173,0.053,0.259,0.08
	c0.05,0.016,0.1,0.023,0.146,0.045c0.105,0.049,0.192,0.115,0.279,0.188c0.041,0.034,0.085,0.062,0.122,0.101
	c0.071,0.077,0.121,0.165,0.173,0.257c0.031,0.056,0.066,0.105,0.089,0.167c0.032,0.088,0.043,0.181,0.056,0.276
	c0.009,0.061,0.036,0.114,0.036,0.177c0,0.021-0.012,0.039-0.013,0.06S42.618,11.5,42.616,11.521L42.616,11.521z M19.422,29.443
	c0-0.711,0.578-1.289,1.289-1.289h9.022v-9.021c0-0.711,0.577-1.288,1.29-1.288c0.71,0,1.288,0.577,1.288,1.288v9.021h9.022
	c0.71,0,1.288,0.578,1.288,1.289c0,0.713-0.578,1.29-1.288,1.29h-9.022v9.021c0,0.712-0.578,1.289-1.288,1.289
	c-0.713,0-1.29-0.577-1.29-1.289v-9.021h-9.022C20,30.733,19.422,30.156,19.422,29.443z"/>
</svg>
