<?xml version="1.0" encoding="utf-8"?>
<!-- Generator: Adobe Illustrator 16.0.4, SVG Export Plug-In . SVG Version: 6.00 Build 0)  -->
<!DOCTYPE svg PUBLIC "-//W3C//DTD SVG 1.1//EN" "http://www.w3.org/Graphics/SVG/1.1/DTD/svg11.dtd">
<svg version="1.1" id="Layer_1" xmlns="http://www.w3.org/2000/svg" xmlns:xlink="http://www.w3.org/1999/xlink" x="0px" y="0px"
	 width="44px" height="46px" viewBox="0 0 44 46" enable-background="new 0 0 44 46" xml:space="preserve">
<path fill="#FFFFFF" d="M43.5,6.455c0,9.238,0,18.477,0,27.715c-0.018,0.021-0.042,0.041-0.05,0.064
	c-0.478,1.563-1.337,2.197-2.982,2.197c-4.516,0-9.03,0-13.546,0c-0.154,0-0.312,0-0.538,0c0.134,0.231,0.214,0.375,0.298,0.52
	c1.047,1.814,2.096,3.627,3.139,5.443c0.475,0.822,0.222,1.602-0.637,2.014c-0.047,0.021-0.086,0.061-0.127,0.092
	c-0.226,0-0.451,0-0.674,0c-0.523-0.229-0.822-0.662-1.099-1.145c-1.257-2.211-2.54-4.405-3.802-6.612
	c-0.137-0.242-0.287-0.328-0.56-0.318c-0.601,0.022-1.203,0.024-1.804,0c-0.304-0.013-0.47,0.087-0.623,0.354
	c-1.253,2.195-2.53,4.379-3.783,6.574c-0.274,0.482-0.572,0.916-1.097,1.146c-0.224,0-0.448,0-0.672,0
	c-1.135-0.677-1.272-1.229-0.598-2.398c1.007-1.742,2.014-3.486,3.019-5.229c0.073-0.127,0.133-0.261,0.228-0.438
	c-0.243,0-0.409,0-0.577,0c-4.576,0-9.153,0-13.73-0.002c-1.356,0-2.345-0.764-2.706-2.068c-0.018-0.068-0.053-0.131-0.08-0.193
	c0-9.238,0-18.477,0-27.715C0.521,6.42,0.553,6.387,0.562,6.349C0.968,4.901,1.9,4.193,3.404,4.193c5.591,0,11.183,0,16.773,0
	c0.148,0,0.298,0,0.479,0c0.041-1.037-0.274-2.179,1.008-2.693c0.224,0,0.448,0,0.672,0c1.301,0.515,0.943,1.692,1.02,2.693
	c0.219,0,0.386,0,0.553,0c5.604,0,11.21,0,16.814,0.001c1.348,0,2.354,0.78,2.696,2.073C43.436,6.333,43.473,6.393,43.5,6.455z
	 M22.029,6.869c-5.779,0-11.559-0.001-17.338,0c-0.955,0-1.509,0.531-1.509,1.458c-0.001,7.977-0.001,15.952,0.001,23.929
	c0.001,0.971,0.536,1.498,1.511,1.498c11.545,0.002,23.088,0.002,34.633,0c0.944,0,1.491-0.542,1.491-1.479
	c0-7.963,0-15.925-0.004-23.887c0-0.999-0.527-1.518-1.531-1.518C33.531,6.868,27.779,6.869,22.029,6.869z"/>
</svg>
