<?xml version="1.0" encoding="utf-8"?>
<!-- Generator: Adobe Illustrator 16.0.4, SVG Export Plug-In . SVG Version: 6.00 Build 0)  -->
<!DOCTYPE svg PUBLIC "-//W3C//DTD SVG 1.1//EN" "http://www.w3.org/Graphics/SVG/1.1/DTD/svg11.dtd">
<svg version="1.1" id="Layer_1" xmlns="http://www.w3.org/2000/svg" xmlns:xlink="http://www.w3.org/1999/xlink" x="0px" y="0px"
	 width="46px" height="46px" viewBox="0 0 46 46" enable-background="new 0 0 46 46" xml:space="preserve">
<g>
	<path fill-rule="evenodd" clip-rule="evenodd" fill="#FFFFFF" d="M12.717,15.484c0-5.188,0-10.218,0-15.303
		c0.392-0.025,0.687-0.06,0.982-0.06c4.908-0.003,9.816-0.017,14.723,0.02c0.49,0.004,1.061,0.212,1.452,0.51
		c1.153,0.881,2.659,1.653,3.231,2.848c0.569,1.192,0.189,2.845,0.198,4.295c0.015,2.167,0.004,4.333,0.004,6.5
		c0,0.361,0,0.724,0,1.19c2.289,0,4.446-0.001,6.604,0.001c0.475,0.001,0.949-0.015,1.421,0.022
		c1.194,0.096,1.974,0.821,1.981,2.028c0.032,5.043,0.036,10.086-0.002,15.129c-0.009,1.357-0.901,2.064-2.475,2.084
		c-2.031,0.029-4.062,0.006-6.092,0.006c-0.365,0-0.729,0-1.171,0c0,3.754,0,7.398,0,11.131c-6.891,0-13.7,0-20.613,0
		c0-3.684,0-7.326,0-11.072c-0.456-0.021-0.813-0.055-1.171-0.055c-2.2-0.004-4.4,0.02-6.6-0.01c-1.767-0.02-2.52-0.797-2.523-2.564
		c-0.009-4.738-0.01-9.478,0.001-14.216c0.004-1.722,0.753-2.467,2.481-2.479C7.614,15.473,10.078,15.484,12.717,15.484z
		 M33.527,33.42c2.438,0,4.73,0.002,7.024,0c1.394,0,1.507-0.109,1.507-1.498c0.004-4.535,0.004-9.068,0.001-13.603
		c-0.001-1.414-0.144-1.555-1.578-1.555c-8.798,0-17.595,0-26.391,0c-2.943,0-5.887,0.015-8.831-0.01
		c-0.871-0.007-1.332,0.273-1.329,1.217c0.015,4.77,0.011,9.538,0.003,14.312c-0.001,0.803,0.338,1.164,1.167,1.148
		c1.624-0.033,3.248-0.012,4.872-0.012c0.966,0,1.931,0,3.017,0c0-2.457,0-4.77,0-7.094c6.906,0,13.687,0,20.539,0
		C33.527,28.684,33.527,30.977,33.527,33.42z M28.368,1.533c-4.823,0-9.539,0-14.268,0c0,4.583,0,9.094,0,13.642
		c5.971,0,11.874,0,17.807,0c0-3.494,0-6.924,0-10.486c-1.185,0-2.313,0-3.539,0C28.368,3.558,28.368,2.555,28.368,1.533z
		 M14.302,44.562c5.993,0,11.897,0,17.826,0c0-5.691,0-11.314,0-16.965c-5.979,0-11.88,0-17.826,0
		C14.302,33.266,14.302,38.869,14.302,44.562z"/>
	<path fill-rule="evenodd" clip-rule="evenodd" fill="#FFFFFF" d="M5.535,17.529c3.786,0,7.517,0,11.304,0c0,1.224,0,2.39,0,3.63
		c-3.757,0-7.487,0-11.304,0C5.535,19.999,5.535,18.809,5.535,17.529z M6.787,19.878c3.005,0,5.89,0,8.83,0
		c-0.022-0.397-0.041-0.72-0.06-1.068c-2.953,0-5.835,0-8.77,0C6.787,19.189,6.787,19.508,6.787,19.878z"/>
	<path fill-rule="evenodd" clip-rule="evenodd" fill="#FFFFFF" d="M41.555,19.318c0.017,1.073-0.919,2.025-1.991,2.028
		c-1.032,0.002-1.943-0.881-1.984-1.924c-0.043-1.078,0.855-2.044,1.932-2.08C40.57,17.309,41.537,18.243,41.555,19.318z
		 M39.575,20.299c0.316-0.456,0.659-0.745,0.61-0.93c-0.068-0.265-0.4-0.581-0.668-0.632c-0.165-0.034-0.591,0.383-0.589,0.595
		C38.931,19.592,39.255,19.851,39.575,20.299z"/>
	<path fill-rule="evenodd" clip-rule="evenodd" fill="#FFFFFF" d="M16.899,41.414c0-0.457,0-0.816,0-1.213c4.067,0,8.078,0,12.135,0
		c0,0.424,0,0.787,0,1.213C24.985,41.414,20.975,41.414,16.899,41.414z"/>
	<path fill-rule="evenodd" clip-rule="evenodd" fill="#FFFFFF" d="M16.97,31.738c0-0.398,0-0.727,0-1.121c4.075,0,8.109,0,12.192,0
		c0,0.369,0,0.697,0,1.121C25.14,31.738,21.106,31.738,16.97,31.738z"/>
	<path fill-rule="evenodd" clip-rule="evenodd" fill="#FFFFFF" d="M29.158,33.006c0,0.395,0,0.748,0,1.152
		c-4.061,0-8.073,0-12.158,0c0-0.363,0-0.715,0-1.152C21.043,33.006,25.074,33.006,29.158,33.006z"/>
	<path fill-rule="evenodd" clip-rule="evenodd" fill="#FFFFFF" d="M16.873,36.631c0-0.42,0-0.752,0-1.152c4.052,0,8.079,0,12.157,0
		c0,0.393,0,0.744,0,1.152C24.976,36.631,20.975,36.631,16.873,36.631z"/>
	<path fill-rule="evenodd" clip-rule="evenodd" fill="#FFFFFF" d="M29.025,37.855c0,0.391,0,0.744,0,1.16c-4.038,0-8.044,0-12.134,0
		c-0.016-0.361-0.032-0.717-0.053-1.16C20.92,37.855,24.944,37.855,29.025,37.855z"/>
</g>
<path fill-rule="evenodd" clip-rule="evenodd" fill="#FFFFFF" d="M244.286-128.937c1.812-2.018,2.708-3.855,3.962-4.146
	c1.016-0.235,3.47,1.364,3.49,2.195c0.033,1.34-1.127,3.267-2.33,3.887C248.57-126.567,246.819-127.904,244.286-128.937z"/>
</svg>
