<?xml version="1.0" encoding="utf-8"?>
<!-- Generator: Adobe Illustrator 16.0.4, SVG Export Plug-In . SVG Version: 6.00 Build 0)  -->
<!DOCTYPE svg PUBLIC "-//W3C//DTD SVG 1.1//EN" "http://www.w3.org/Graphics/SVG/1.1/DTD/svg11.dtd">
<svg version="1.1" id="Capa_1" xmlns="http://www.w3.org/2000/svg" xmlns:xlink="http://www.w3.org/1999/xlink" x="0px" y="0px"
	 width="46px" height="46px" viewBox="0 0 46 46" enable-background="new 0 0 46 46" xml:space="preserve">
<path fill="#FFFFFF" d="M45.082,35.1c0-0.372-0.301-0.675-0.673-0.675h-9.425V16.927h5.494L20.347,3.129L0.21,16.927h5.158v18.847
	h1.348h17.499V22.312h6.73v13.461h2.716v6.731c0,0.368,0.306,0.673,0.676,0.673s0.671-0.303,0.671-0.673v-6.731h9.399
	C44.781,35.769,45.082,35.47,45.082,35.1z M20.178,29.041h-0.674H12.1v-6.057V22.31h8.078V29.041L20.178,29.041z"/>
<path fill="#FFFFFF" d="M21.04,3.255l0.176,0.153c0.074,0.03,0.221,0.057,0.307,0.057h22.885c0.372,0,0.673-0.301,0.673-0.674
	c0-0.374-0.299-0.672-0.673-0.672H21.522c-0.373,0-0.672,0.298-0.672,0.672c0,0.016,0.005,0.026,0.007,0.04
	C20.87,2.993,20.933,3.145,21.04,3.255z"/>
<polygon fill="#D8D6D6" points="27.515,40.777 10.013,40.777 10.013,39.772 6.455,41.267 10.013,42.757 10.013,41.756 
	27.515,41.756 27.515,42.757 31.072,41.267 27.515,39.772 "/>
<polygon fill="#EFEFEF" points="44.077,27.714 44.077,10.212 45.082,10.212 43.588,6.654 42.098,10.212 43.099,10.212 
	43.099,27.714 42.098,27.714 43.588,31.271 45.082,27.714 "/>
</svg>
