<?xml version="1.0" encoding="utf-8"?>
<!-- Generator: Adobe Illustrator 16.0.4, SVG Export Plug-In . SVG Version: 6.00 Build 0)  -->
<!DOCTYPE svg PUBLIC "-//W3C//DTD SVG 1.1//EN" "http://www.w3.org/Graphics/SVG/1.1/DTD/svg11.dtd">
<svg version="1.1" id="Layer_1" xmlns="http://www.w3.org/2000/svg" xmlns:xlink="http://www.w3.org/1999/xlink" x="0px" y="0px"
	 width="44px" height="46px" viewBox="0 0 44 46" enable-background="new 0 0 44 46" xml:space="preserve">
<g>
	<path fill="#FFFFFF" d="M1.028,43.046c0-6.963,0-13.926,0-20.89c0.061,0.031,0.121,0.062,0.182,0.093
		c5.066,2.516,10.132,5.033,15.203,7.541c0.252,0.125,0.353,0.264,0.347,0.553c-0.02,1.037-0.012,2.074-0.007,3.111
		c0.007,1.58,1.132,2.709,2.708,2.713c1.706,0.005,3.412,0.004,5.118,0.001c1.515-0.003,2.662-1.156,2.666-2.674
		c0.004-1.023,0.02-2.048-0.008-3.071c-0.01-0.354,0.105-0.516,0.422-0.671c5.108-2.522,10.209-5.061,15.312-7.596
		c0,6.964,0,13.927,0,20.89c-0.203,0.452-0.531,0.78-0.983,0.983c-13.325,0-26.651,0-39.977,0C1.559,43.826,1.23,43.5,1.028,43.046z
		"/>
	<path fill="#FFFFFF" d="M1.028,19.684c0-1.611,0-3.223,0-4.834c0.333-0.759,0.917-1.008,1.733-0.99
		c1.896,0.04,3.793,0.012,5.69,0.012c0.144,0,0.287,0,0.423,0c0.213-1.735,1.219-2.62,2.923-2.62c0.791,0,1.583-0.021,2.374,0.006
		c1.093,0.039,1.892,0.567,2.345,1.565c0.143,0.315,0.197,0.672,0.297,1.031c3.453,0,6.927,0,10.411,0
		c0.011-0.069,0.02-0.121,0.027-0.173c0.188-1.491,1.242-2.427,2.742-2.43c0.832-0.002,1.665-0.015,2.497,0.002
		c0.991,0.02,1.77,0.458,2.251,1.322c0.213,0.381,0.3,0.831,0.46,1.297c0.063,0,0.184,0,0.305,0c1.896,0,3.794,0.027,5.689-0.014
		c0.827-0.019,1.434,0.213,1.775,0.991c0,1.611,0,3.223,0,4.834c-0.162,0.064-0.33,0.117-0.485,0.194
		c-5.201,2.581-10.401,5.162-15.598,7.75c-0.242,0.121-0.407,0.152-0.637-0.057c-0.459-0.419-1.027-0.604-1.652-0.604
		c-1.733,0.002-3.466,0.003-5.2,0c-0.611-0.001-1.173,0.17-1.616,0.58c-0.258,0.24-0.444,0.195-0.708,0.062
		c-5.185-2.582-10.373-5.157-15.561-7.731C1.358,19.801,1.19,19.748,1.028,19.684z"/>
	<path fill="#FFFFFF" d="M26.707,1.971c0.411,0.082,0.832,0.136,1.233,0.252c2.528,0.73,4.067,2.411,4.757,4.985
		c-0.893,0-1.733,0.006-2.574-0.01c-0.086-0.001-0.204-0.116-0.248-0.207c-0.791-1.633-2.1-2.401-3.902-2.395
		c-2.348,0.009-4.696,0.032-7.043-0.021c-2-0.046-3.411,0.764-4.227,2.609c-0.867,0-1.738,0-2.678,0
		c0.054-0.23,0.082-0.438,0.151-0.633c0.907-2.553,2.686-4.069,5.37-4.508c0.079-0.013,0.153-0.048,0.23-0.073
		C20.753,1.971,23.73,1.971,26.707,1.971z"/>
	<path fill="#FFFFFF" d="M19.416,32.094c1.73,0,3.433,0,5.168,0c0,0.854,0,1.702,0,2.578c-1.711,0-3.423,0-5.168,0
		C19.416,33.833,19.416,32.984,19.416,32.094z"/>
</g>
</svg>
