<?xml version="1.0" encoding="utf-8"?>
<!-- Generator: Adobe Illustrator 16.0.4, SVG Export Plug-In . SVG Version: 6.00 Build 0)  -->
<!DOCTYPE svg PUBLIC "-//W3C//DTD SVG 1.1//EN" "http://www.w3.org/Graphics/SVG/1.1/DTD/svg11.dtd">
<svg version="1.1" id="Layer_1" xmlns="http://www.w3.org/2000/svg" xmlns:xlink="http://www.w3.org/1999/xlink" x="0px" y="0px"
	 width="46px" height="46px" viewBox="0 0 46 46" enable-background="new 0 0 46 46" xml:space="preserve">
<path id="path3847" fill="#FFFFFF" d="M1.368,3.802c0.071,0,0.144,0.006,0.213,0.017c0.001,0,0.002,0,0.003,0l7.028,1.048
	C9.06,4.934,9.434,5.202,9.6,5.571c0,0.001,0,0.002,0,0.003l3.261,7.305l31.826,0.693c0.367,0.008,0.71,0.152,0.947,0.393
	c0.238,0.241,0.354,0.561,0.309,0.88l-1.757,12.696c-0.072,0.532-0.576,0.955-1.188,0.996l-22.69,1.578l-4.498,3.089
	c-0.004,0.005-0.01,0.008-0.015,0.011c-0.005,0.003-0.011,0.004-0.017,0.007c-0.005,0.004-0.011,0.008-0.016,0.011
	c-0.821,0.536-1.024,1.265-0.908,1.669c0.065,0.232,0.167,0.401,0.406,0.531c0.24,0.132,0.653,0.226,1.363,0.19
	c0.002,0,0.004,0,0.007,0c0.022,0,0.048,0,0.071,0c0.003,0,0.008,0,0.011,0l27.062,0.068h0.003c0.712-0.004,1.311,0.518,1.308,1.14
	c-0.003,0.621-0.604,1.14-1.315,1.13c-0.001,0-0.003,0.001-0.003,0l-1.979-0.003c0.735,0.409,1.228,1.125,1.228,1.938
	c0,1.265-1.186,2.302-2.633,2.302s-2.634-1.037-2.634-2.302c0-0.817,0.495-1.54,1.236-1.948l-22.284-0.056
	c0.803,0.396,1.351,1.146,1.351,2.004c0,1.265-1.186,2.302-2.634,2.302c-1.448,0-2.633-1.037-2.633-2.302
	c0-1.097,0.893-2.023,2.077-2.248c-1.119-0.346-1.979-1.06-2.511-2.148c-0.008-0.014-0.015-0.027-0.02-0.042
	c-0.409-1.425,0.315-2.976,1.808-3.983c0.004-0.004,0.007-0.007,0.012-0.01c0.003-0.003,0.004-0.01,0.008-0.011
	c0.013-0.014,0.028-0.027,0.043-0.039l3.186-2.182L7.452,6.996L1.146,6.057c-0.001,0-0.002,0-0.004,0
	C0.48,5.964-0.004,5.425,0.053,4.84C0.11,4.253,0.695,3.793,1.368,3.802L1.368,3.802L1.368,3.802z M13.82,14.632l1.832,4.104h2.389
	v-4.011L13.82,14.632z M18.953,14.746v3.99h4.411v-3.894L18.953,14.746z M24.275,14.86v3.876h4.41v-3.78L24.275,14.86z
	 M29.598,14.977v3.759h4.41v-3.663L29.598,14.977z M34.92,15.094v3.642h4.409v-3.545L34.92,15.094z M40.241,15.208v3.528h3.233
	l0.479-3.445L40.241,15.208z M43.365,19.53h-3.124v3.604h2.626L43.365,19.53z M39.329,19.53H34.92v3.604h4.409V19.53z M34.008,19.53
	h-4.41v3.604h4.41V19.53z M28.686,19.53h-4.41v3.604h4.41V19.53z M23.363,19.53h-4.411v3.604h4.411V19.53z M18.041,19.53h-2.038
	l1.611,3.604h0.426V19.53z M42.756,23.927h-2.515v2.588l2.18-0.153L42.756,23.927L42.756,23.927z M39.329,23.927H34.92v2.957
	l4.409-0.307V23.927z M34.008,23.927h-4.41v3.326l4.41-0.304V23.927z M28.686,23.927h-4.41v3.699l4.41-0.307V23.927L28.686,23.927z
	 M23.363,23.927h-4.411v2.195l0.836,1.872c0.109-0.045,0.228-0.073,0.348-0.083l3.226-0.224V23.927L23.363,23.927z M18.041,23.927
	h-0.067l0.067,0.162V23.927z M40.384,38.545c-0.86,0-1.548,0.601-1.548,1.352c0,0.753,0.688,1.351,1.548,1.351
	s1.548-0.598,1.548-1.351C41.932,39.146,41.244,38.545,40.384,38.545z M15.419,38.545c-0.86,0-1.547,0.601-1.547,1.352
	c0,0.753,0.687,1.351,1.547,1.351c0.861,0,1.548-0.598,1.548-1.351C16.967,39.146,16.28,38.545,15.419,38.545z M40.384,39.188
	c0.467,0,0.841,0.326,0.841,0.734c0,0.407-0.374,0.73-0.841,0.73c-0.469,0-0.841-0.323-0.841-0.73
	C39.543,39.514,39.915,39.188,40.384,39.188z M15.419,39.188c0.468,0,0.841,0.326,0.841,0.734c0,0.407-0.374,0.73-0.841,0.73
	c-0.467,0-0.841-0.323-0.841-0.73C14.578,39.514,14.952,39.188,15.419,39.188z"/>
<title>Layer 1</title>
<polyline fill="none" stroke="#FFFFFF" stroke-miterlimit="10" points="17.158,12.056 21.869,5.957 27.334,9.331 "/>
<polyline fill="none" stroke="#FFFFFF" stroke-miterlimit="10" points="24.842,7.792 34.311,3.169 37.74,11.172 "/>
</svg>
