<?xml version="1.0" encoding="utf-8"?>
<!-- Generator: Adobe Illustrator 16.0.4, SVG Export Plug-In . SVG Version: 6.00 Build 0)  -->
<!DOCTYPE svg PUBLIC "-//W3C//DTD SVG 1.1//EN" "http://www.w3.org/Graphics/SVG/1.1/DTD/svg11.dtd">
<svg version="1.1" id="Layer_1" xmlns="http://www.w3.org/2000/svg" xmlns:xlink="http://www.w3.org/1999/xlink" x="0px" y="0px"
	 width="46px" height="46px" viewBox="0 0 46 46" enable-background="new 0 0 46 46" xml:space="preserve">
<path fill="#FFFFFF" d="M-0.083,42.928c0-10.283,0-20.563,0-30.845c0.787-2.219,2.331-3.086,4.701-3.074
	c12.287,0.065,24.574,0.03,36.862,0.031c2.64,0,3.608,0.643,4.604,3.043c0,10.282,0,20.562,0,30.845
	c-0.999,2.409-1.953,3.044-4.603,3.044c-12.287,0-24.575-0.036-36.863,0.028C2.245,46.015,0.703,45.146-0.083,42.928z
	 M23.014,12.083c-6.199,0-12.397,0-18.596,0.001c-1.301,0-1.455,0.14-1.455,1.396c-0.003,9.348-0.003,18.696,0,28.043
	c0,1.259,0.155,1.403,1.447,1.405c12.397,0,24.794,0,37.191,0c1.325-0.002,1.463-0.141,1.463-1.495
	c0.003-9.282,0.003-18.563,0-27.844c0-1.384-0.13-1.505-1.555-1.506C35.344,12.083,29.179,12.083,23.014,12.083z"/>
</svg>
