<?xml version="1.0" encoding="utf-8"?>
<!-- Generator: Adobe Illustrator 16.0.4, SVG Export Plug-In . SVG Version: 6.00 Build 0)  -->
<!DOCTYPE svg PUBLIC "-//W3C//DTD SVG 1.1//EN" "http://www.w3.org/Graphics/SVG/1.1/DTD/svg11.dtd">
<svg version="1.1" id="Layer_1" xmlns="http://www.w3.org/2000/svg" xmlns:xlink="http://www.w3.org/1999/xlink" x="0px" y="0px"
	 width="46px" height="46px" viewBox="0 0 46 46" enable-background="new 0 0 46 46" xml:space="preserve">
<g>
	<path fill="#FFFFFF" d="M19.766,10.893H39.16v2.185H19.766V10.893L19.766,10.893L19.766,10.893z"/>
	<path fill="#FFFFFF" d="M19.766,20.732H39.16v2.185H19.766V20.732L19.766,20.732L19.766,20.732z"/>
	<path fill="#FFFFFF" d="M30.678,43.332H5.571c-0.419,0-0.769-0.354-0.769-0.768V3.432c0-0.423,0.345-0.768,0.769-0.768h34.845
		c0.423,0,0.768,0.345,0.768,0.768v29.412l2.194-2.193V3.432c0-1.642-1.329-2.972-2.962-2.972H5.571
		c-1.643,0-2.962,1.33-2.962,2.972v39.137c0,1.643,1.329,2.972,2.962,2.972h22.898L30.678,43.332L30.678,43.332L30.678,43.332z"/>
	<path fill="#FFFFFF" d="M43.387,32.379H33.185c-1.643,0-2.962,1.33-2.962,2.973v10.18h1.361l0.832-0.833v-9.353
		c0-0.422,0.346-0.768,0.769-0.768h9.384l0.823-0.818L43.387,32.379L43.387,32.379L43.387,32.379z"/>
	<path fill="#FFFFFF" d="M31.57,45.531l11.812-11.776V30.65L28.465,45.531H31.57L31.57,45.531z"/>
	<path fill="#FFFFFF" d="M17.972,16.031l-6.753,6.798L7.59,19.247l-1.518,1.541l3.629,3.579l-0.009,0.009l1.532,1.519l8.28-8.335
		L17.972,16.031L17.972,16.031z"/>
	<path fill="#FFFFFF" d="M17.972,5.603l-6.753,6.798L7.595,8.818l-1.518,1.541l3.629,3.579l-0.009,0.009l1.532,1.518l8.275-8.331
		L17.972,5.603L17.972,5.603z"/>
</g>
</svg>
