<?xml version="1.0" encoding="utf-8"?>
<!-- Generator: Adobe Illustrator 16.0.4, SVG Export Plug-In . SVG Version: 6.00 Build 0)  -->
<!DOCTYPE svg PUBLIC "-//W3C//DTD SVG 1.1//EN" "http://www.w3.org/Graphics/SVG/1.1/DTD/svg11.dtd">
<svg version="1.1" id="Layer_1" xmlns="http://www.w3.org/2000/svg" xmlns:xlink="http://www.w3.org/1999/xlink" x="0px" y="0px"
	 width="512px" height="512px" viewBox="0 0 512 512" enable-background="new 0 0 512 512" xml:space="preserve">
<path fill="#FFFFFF" d="M255.256,9.133L22.959,90.884L59.668,395.23l195.836,107.637l196.844-109.094l36.693-304.337L255.256,9.133z
	 M353.7,370.6l-31.527-73.035l-67.461-0.062l0.11-42.497h48.788L255.097,153.52l-0.386-102.446v0.006L111.088,370.588l53.566-0.992
	l28.798-72.031h61.259V477.15l-174.23-96.637L49.026,108.324l205.685-73.315v16.065l150.243,320.475L353.7,370.6z M212.349,254.928
	l42.363-100.486v100.486L212.349,254.928L212.349,254.928z"/>
</svg>
