<svg xmlns="http://www.w3.org/2000/svg" width="259.037" height="143.374" viewBox="0 0 259.037 143.374"><path fill="#FFF" d="M168.92 53.058c1.564 2.002 3.22 4.788 3.22 8.791 0 9.66-7.571 15.316-18.535 15.316-2.787 0-5.312-.347-6.876-.782l-2.874 4.612 8.528.521c15.058.959 23.932 1.396 23.932 12.966 0 10.011-8.787 15.665-23.932 15.665-15.751 0-21.757-4.004-21.757-10.878 0-3.918 1.741-6.002 4.787-8.878-2.873-1.214-3.829-3.389-3.829-5.74 0-1.916.956-3.656 2.525-5.311 1.567-1.652 3.307-3.308 5.395-5.222-4.263-2.088-7.484-6.614-7.484-13.056 0-10.007 6.615-16.88 19.928-16.88 3.742 0 6.007.345 8.009.87h16.972v7.396l-8.009.61zm-25.76 39.689c-1.133 1.391-2.263 2.868-2.263 4.612 0 3.479 4.437 4.525 10.53 4.525 5.048 0 11.924-.354 11.924-5.047 0-2.79-3.308-2.962-7.487-3.224l-12.704-.866zm9.572-39.952c-4.788 0-8.354 2.351-8.354 8.009 0 4.263 2.351 7.223 8.096 7.223 4.87 0 8.179-2.87 8.179-7.399 0-5.132-2.96-7.833-7.921-7.833zM181.01 89.545v-6.872l4.44-.607c1.219-.176 1.392-.436 1.392-1.744V54.735c0-.956-.26-1.567-1.133-1.826l-4.699-1.655.957-7.047h18.017v36.115c0 1.395.085 1.568 1.394 1.744l4.438.607v6.872H181.01zm11.23-52.301c-4.962 0-7.833-2.875-7.833-7.837 0-4.957 2.871-7.656 7.833-7.656 5.048 0 7.92 2.7 7.92 7.656 0 4.962-2.872 7.837-7.92 7.837zM240.232 86.171c-3.743 1.826-9.226 3.479-14.188 3.479-10.356 0-14.271-4.173-14.271-14.012v-22.8c0-.521 0-.871-.698-.871h-6.092v-7.746c7.661-.873 10.705-4.703 11.662-14.188h8.27v12.362c0 .607 0 .87.697.87h12.27v8.702h-12.967v20.799c0 5.135 1.22 7.135 5.917 7.135 2.439 0 4.961-.607 7.05-1.391l2.35 7.661zM111.281 63.332L71.487 23.541a5.869 5.869 0 0 0-8.3 0l-8.263 8.264 10.481 10.482a6.967 6.967 0 0 1 7.171 1.671 6.974 6.974 0 0 1 1.656 7.215l10.102 10.102a6.973 6.973 0 0 1 7.216 1.657 6.98 6.98 0 0 1 0 9.876 6.984 6.984 0 0 1-11.399-7.595l-9.421-9.422v24.793a7.017 7.017 0 0 1 1.847 1.321 6.984 6.984 0 1 1-7.589-1.524V55.358a6.903 6.903 0 0 1-2.287-1.524 6.982 6.982 0 0 1-1.504-7.635L50.864 35.864 23.579 63.148a5.873 5.873 0 0 0 0 8.303l39.793 39.791a5.87 5.87 0 0 0 8.301 0l39.607-39.606a5.873 5.873 0 0 0 .001-8.304z"/></svg>