<svg xmlns="http://www.w3.org/2000/svg" width="100" height="100" viewBox="0 0 100 100"><g fill="#FFF"><path fill-rule="evenodd" clip-rule="evenodd" d="M50 5.38c-25.263 0-45.75 20.482-45.75 45.749 0 20.215 13.108 37.362 31.286 43.413 2.286.423 3.126-.993 3.126-2.202 0-1.09-.042-4.694-.062-8.517-12.728 2.767-15.413-5.398-15.413-5.398-2.081-5.288-5.08-6.693-5.08-6.693-4.151-2.84.312-2.782.312-2.782 4.594.322 7.013 4.716 7.013 4.716 4.08 6.993 10.703 4.972 13.313 3.803.411-2.956 1.596-4.977 2.905-6.118-10.16-1.158-20.842-5.081-20.842-22.611 0-4.995 1.787-9.076 4.714-12.28-.475-1.153-2.041-5.806.443-12.107 0 0 3.842-1.229 12.584 4.689 3.649-1.013 7.563-1.521 11.451-1.54 3.888.018 7.805.526 11.461 1.54 8.732-5.918 12.568-4.689 12.568-4.689 2.49 6.302.925 10.955.449 12.107 2.933 3.204 4.709 7.285 4.709 12.28 0 17.572-10.703 21.44-20.891 22.573 1.641 1.419 3.104 4.204 3.104 8.472 0 6.121-.054 11.049-.054 12.555 0 1.218.824 2.645 3.143 2.196 18.168-6.057 31.26-23.2 31.26-43.407C95.749 25.862 75.266 5.38 50 5.38z"/><path d="M21.578 71.066c-.101.229-.458.296-.784.14-.332-.149-.518-.459-.411-.687.099-.234.457-.299.788-.144.332.15.522.464.407.691zm-.563-.417M23.432 73.134c-.218.201-.645.108-.935-.212-.299-.319-.355-.745-.134-.951.225-.201.639-.106.938.212.3.322.359.745.131.951zm-.437-.469M25.235 75.768c-.28.195-.739.014-1.022-.394-.28-.407-.28-.896.007-1.091.283-.195.735-.019 1.022.384.279.414.279.902-.007 1.101zm0 0M27.707 78.314c-.251.276-.785.201-1.176-.177-.4-.368-.511-.892-.26-1.169.254-.276.792-.198 1.185.177.397.369.518.895.251 1.169zm0 0M31.116 79.792c-.111.358-.625.521-1.143.369-.518-.157-.856-.577-.752-.938.107-.361.625-.531 1.146-.368.517.156.856.572.749.937zm0 0M34.86 80.066c.013.377-.427.689-.971.696-.547.013-.99-.293-.996-.664 0-.382.43-.691.977-.7.544-.009.99.293.99.668zm0 0M38.344 79.473c.065.368-.313.746-.853.847-.531.098-1.022-.13-1.09-.494-.066-.378.319-.757.849-.854.541-.094 1.025.127 1.094.501zm0 0"/></g></svg>