<svg xmlns="http://www.w3.org/2000/svg" width="175" height="387" viewBox="0 0 175 387"><title>gulp</title><g fill="#FFF"><path d="M86.72 304.739c-22.574 0-40.017-3.392-48.405-5.412-5.736-1.382-10.342-2.812-13.841-4.281l11.187 19.113 4.376 59.719c0 6.695 21.268 12.122 47.503 12.122s47.503-5.427 47.503-12.122l3.465-60.369 10.585-18.519c-3.514 1.488-8.161 2.938-13.969 4.337-8.388 2.021-25.831 5.412-48.404 5.412zm62.736-194.328C132.889 112.725 110.898 114 87.54 114c-23.359 0-45.348-1.275-61.916-3.589-8.207-1.146-14.7-2.498-19.299-4.016-1.097-.363-2.956-.982-4.745-1.968L11.845 198.9a80.437 80.437 0 0 1 1.597-4.871 92.354 92.354 0 0 1 4.181-9.731 86.201 86.201 0 0 1 5.169-8.984 69.482 69.482 0 0 1 5.946-7.79c2.102-2.372 4.258-4.412 6.472-6.122 2.213-1.708 4.447-3.044 6.702-4.006 2.256-.962 4.49-1.444 6.703-1.444 2.549 0 5.015.697 7.397 2.091 2.381 1.393 4.607 3.65 6.681 6.769.476.697.778 1.402.903 2.115.127.714.189 1.386.189 2.016 0 1.493-.357 2.672-1.071 3.534-.714.863-1.562 1.294-2.542 1.294-.898 0-1.731-.473-2.501-1.418-.771-.946-1.632-2.298-2.585-4.057-.897-1.593-1.884-2.745-2.962-3.459-1.079-.713-2.248-1.07-3.509-1.07-1.961 0-4.055.813-6.282 2.439-2.228 1.625-4.434 3.774-6.618 6.445-2.186 2.672-4.28 5.724-6.283 9.159a95.582 95.582 0 0 0-5.317 10.551c-1.541 3.602-2.765 7.153-3.676 10.653s-1.366 6.645-1.366 9.432c0 .93.064 1.885.189 2.861.127.98.364 1.867.715 2.664.349.797.826 1.451 1.428 1.965.603.516 1.366.771 2.29.771 1.037 0 2.213-.348 3.531-1.045 1.316-.695 2.682-1.609 4.096-2.736a51.479 51.479 0 0 0 4.266-3.834 68.31 68.31 0 0 0 3.992-4.33 63.03 63.03 0 0 0 3.277-4.205c.953-1.344 1.667-2.514 2.144-3.51l3.908-11.697c.476-1.26 1.099-2.156 1.87-2.687.77-.531 1.562-.797 2.375-.797.391 0 .783.067 1.176.199.393.133.742.341 1.051.622.308.283.553.647.735 1.096.182.447.273.97.273 1.567 0 1.593-.14 3.085-.42 4.48a35.597 35.597 0 0 1-1.072 4.082 70.343 70.343 0 0 1-1.45 4.006 98.955 98.955 0 0 0-1.554 4.207c-.112.166-.315.688-.61 1.566-.294.881-.65 1.984-1.071 3.311-.42 1.328-.876 2.812-1.366 4.455-.491 1.643-.994 3.318-1.512 5.027a413.58 413.58 0 0 0-1.492 5.027 794.667 794.667 0 0 0-1.282 4.455c-.378 1.326-.693 2.438-.946 3.334a56.33 56.33 0 0 1-.462 1.594c-.14.529-.365 1.119-.672 1.766a11.71 11.71 0 0 1-1.093 1.842A6.735 6.735 0 0 1 40 239.945c-.504.381-1.022.572-1.555.572-.896 0-1.548-.299-1.953-.895-.407-.598-.609-1.693-.609-3.285v-.697c0-.232.013-.482.041-.746.027-.531.238-1.527.631-2.988.392-1.459.861-3.109 1.408-4.951.546-1.842 1.135-3.75 1.765-5.725.629-1.975 1.197-3.74 1.702-5.301a83.37 83.37 0 0 1-4.833 4.953 52.138 52.138 0 0 1-5.337 4.43c-1.822 1.311-3.657 2.381-5.505 3.211-1.849.828-3.628 1.244-5.337 1.244-1.961 0-3.649-.432-5.065-1.295-.255-.156-.496-.332-.736-.506l5.712 59.889c1.487 3.727 29.481 12.884 66.391 12.884 36.926 0 64.932-9.166 66.393-12.89l8.205-71.203c-.68.623-1.34 1.232-1.973 1.822-2.354 2.189-4.574 4.072-6.662 5.648-2.086 1.576-4.125 2.797-6.113 3.658-1.99.863-4.119 1.295-6.389 1.295-2.129 0-3.775-.465-4.938-1.395-1.162-.928-1.744-2.205-1.744-3.832v-.373c0-.115.014-.258.043-.424.111-.994.547-2.141 1.303-3.434a39.358 39.358 0 0 1 2.73-4.031 109.466 109.466 0 0 1 3.404-4.232 196.27 196.27 0 0 0 3.342-4.057c1.021-1.275 1.869-2.445 2.541-3.508.674-1.062 1.01-1.924 1.01-2.588 0-.398-.141-.713-.42-.947-.281-.23-.744-.348-1.387-.348-1.121 0-2.277.291-3.467.871-1.191.58-2.369 1.361-3.531 2.34s-2.297 2.1-3.404 3.359a49.353 49.353 0 0 0-3.109 3.932c-.967 1.361-1.848 2.73-2.646 4.107s-1.479 2.646-2.039 3.807c-.168.365-.406.881-.715 1.543-.309.664-.645 1.412-1.008 2.24-.365.83-.75 1.686-1.156 2.562-.406.881-.777 1.711-1.113 2.49l-.902 2.09a51.889 51.889 0 0 1-.568 1.27c-.141.299-.371.861-.693 1.691s-.693 1.801-1.113 2.912l-1.324 3.51c-.461 1.227-.896 2.389-1.303 3.484-.406 1.094-.764 2.057-1.07 2.887-.309.828-.506 1.393-.59 1.691a18.168 18.168 0 0 1-.986 2.44 10.023 10.023 0 0 1-1.303 2.017 5.981 5.981 0 0 1-1.682 1.392c-.631.351-1.338.522-2.121.522-1.01 0-1.842-.242-2.502-.722-.656-.481-.986-1.403-.986-2.762 0-.664.084-1.345.252-2.04.168-.697.379-1.387.631-2.066.252-.682.512-1.344.777-1.99.266-.648.512-1.27.734-1.867a963.477 963.477 0 0 1 4.623-9.98 460.161 460.161 0 0 0 4.518-9.904c.301-.682.576-1.35.869-2.027-.088.086-.174.176-.26.26-1.822 1.76-3.635 3.311-5.441 4.654-1.809 1.344-3.602 2.414-5.379 3.211-1.779.795-3.51 1.193-5.191 1.193-1.148 0-2.107-.182-2.877-.547-.771-.365-1.387-.863-1.85-1.492-.463-.631-.793-1.377-.988-2.24-.066-.295-.107-.604-.15-.91-.492.383-.988.756-1.488 1.109-1.736 1.227-3.445 2.215-5.127 2.961-1.68.746-3.194 1.119-4.537 1.119-1.346 0-2.438-.447-3.28-1.344-.84-.895-1.259-2.422-1.259-4.578 0-1.527.224-3.303.671-5.326-.728 1.295-1.638 2.605-2.73 3.932a23.953 23.953 0 0 1-3.74 3.635 18.687 18.687 0 0 1-4.707 2.662c-1.738.68-3.629 1.02-5.673 1.02-.925 0-1.814-.115-2.669-.348s-1.604-.631-2.248-1.195c-.645-.562-1.162-1.318-1.555-2.264-.392-.945-.588-2.133-.588-3.559 0-.033.056-.539.168-1.52.112-.979.469-2.521 1.072-4.629.602-2.105 1.534-4.836 2.793-8.188 1.262-3.352 3.041-7.416 5.338-12.193.588-1.262 1.268-2.166 2.037-2.713.772-.548 1.604-.822 2.5-.822.393 0 .799.059 1.219.174.422.117.813.299 1.178.548.363.249.658.565.883.946.222.381.336.82.336 1.318 0 .332-.043.648-.127.945-.141.566-.442 1.303-.902 2.215-.463.914-1.003 1.959-1.62 3.137a293.69 293.69 0 0 0-1.953 3.809c-.687 1.359-1.324 2.77-1.912 4.23s-1.093 2.945-1.513 4.455-.659 2.979-.714 4.404c0 .598.139 1.145.42 1.643.28.498.743.746 1.387.746 1.82 0 3.557-.598 5.211-1.791 1.652-1.195 3.178-2.68 4.58-4.455a42.767 42.767 0 0 0 3.803-5.725c1.135-2.041 2.08-3.906 2.836-5.6a28.386 28.386 0 0 0 1.408-3.633 36.134 36.134 0 0 1 1.324-3.584c.477-1.096 1.022-2.008 1.639-2.738.615-.729 1.387-1.095 2.311-1.095 1.01 0 1.807.382 2.396 1.145.588.764.881 1.676.881 2.737 0 .598-.188 1.42-.566 2.465s-.855 2.24-1.43 3.584-1.197 2.779-1.869 4.305a75.516 75.516 0 0 0-1.869 4.654c-.576 1.576-1.051 3.119-1.43 4.629s-.567 2.912-.567 4.205c0 1.195.616 1.793 1.848 1.793.869 0 1.947-.299 3.236-.896s2.641-1.436 4.055-2.514c.354-.27.709-.551 1.062-.846.395-1.629.857-3.135 1.396-4.504.98-2.59 1.975-5.16 2.984-7.715 1.008-2.555 1.932-4.895 2.773-7.02l12.732-32.104c.504-1.294 1.184-2.207 2.037-2.738.855-.53 1.717-.796 2.586-.796.867 0 1.658.282 2.373.846.715.565 1.072 1.477 1.072 2.738 0 .597-.119 1.228-.357 1.891a22.894 22.894 0 0 1-.904 2.14 396.042 396.042 0 0 0-2.5 5.724 867.899 867.899 0 0 0-6.513 15.654 5011.643 5011.643 0 0 1-3.404 8.387c-1.105 2.723-2.143 5.301-3.109 7.74s-1.799 4.555-2.5 6.346a27.76 27.76 0 0 0-.902 2.664c-.295 1.012-.441 1.916-.441 2.713 0 .496.084.895.252 1.193s.49.449.967.449c.588 0 1.322-.207 2.205-.623.883-.414 1.834-.963 2.857-1.643s2.088-1.459 3.193-2.34a101.42 101.42 0 0 0 3.299-2.736c1.094-.947 2.137-1.893 3.131-2.838s1.885-1.816 2.67-2.613c.184-.191.404-.326.646-.428a89.318 89.318 0 0 0 1.285-4.15c.225-.598.533-1.443.926-2.539.391-1.096.84-2.174 1.344-3.236.504-1.061 1.072-1.982 1.701-2.762.631-.779 1.311-1.17 2.039-1.17 1.121 0 1.934.258 2.438.771.504.516.756 1.27.756 2.266 0 .199-.027.514-.084.945s-.125.889-.209 1.369-.176.938-.273 1.369c-.1.432-.189.746-.273.945 1.035-1.129 2.156-2.248 3.361-3.359s2.451-2.117 3.74-3.012a21.572 21.572 0 0 1 3.951-2.192c1.344-.562 2.689-.845 4.033-.845.924 0 1.842.133 2.752.399.91.265 1.725.655 2.438 1.169.715.516 1.297 1.162 1.744 1.941s.672 1.684.672 2.713c0 1.361-.342 2.812-1.029 4.355a31.546 31.546 0 0 1-2.584 4.652 58.26 58.26 0 0 1-3.361 4.555 173.74 173.74 0 0 1-3.383 4.031 326.027 326.027 0 0 0-2.648 3.086c-.713.848-1.086 1.42-1.113 1.719 0 .398.127.721.379.971.252.248.672.373 1.26.373.477 0 1.178-.266 2.102-.797s2.221-1.451 3.887-2.762 3.783-3.07 6.346-5.277a604.454 604.454 0 0 0 6.135-5.365l11.114-102.93c-1.79.988-3.651 1.608-4.75 1.971-4.603 1.525-11.096 2.877-19.304 4.023zM87.474 85.99c-48.049 0-87 5.372-87 12 0 6.627 38.951 12 87 12 48.048 0 87-5.373 87-12 .001-6.628-38.952-12-87-12zm34.738 15.507c0 1.555-4.629 2.816-10.34 2.816-5.71 0-10.339-1.261-10.339-2.816 0-1.556 4.629-2.817 10.339-2.817 5.711 0 10.34 1.261 10.34 2.817z"/><path d="M103.627 100.252a.47.47 0 0 0-.078.25c0 1.007 3.727 1.822 8.323 1.822s8.323-.815 8.323-1.822l10.871-44.078 43.232-45.645.041-.043c.915-1.035-.941-4.238-4.023-6.985-3.08-2.747-6.407-3.677-7.441-2.631l-.022.023-46.128 48.539-13.098 50.57z"/></g></svg>