<?xml version="1.0" encoding="utf-8"?>
<!-- Generator: Adobe Illustrator 16.0.4, SVG Export Plug-In . SVG Version: 6.00 Build 0)  -->
<!DOCTYPE svg PUBLIC "-//W3C//DTD SVG 1.1//EN" "http://www.w3.org/Graphics/SVG/1.1/DTD/svg11.dtd">
<svg version="1.1" id="Layer_1" xmlns="http://www.w3.org/2000/svg" xmlns:xlink="http://www.w3.org/1999/xlink" x="0px" y="0px"
	 width="512px" height="512px" viewBox="0 0 512 512" enable-background="new 0 0 512 512" xml:space="preserve">
<g>
	<path fill="#FFFFFF" d="M404.707,129.581c0,2.109,0,4.219,0,6.328c-0.496,2.526-1.217,5.032-1.454,7.583
		c-2.365,25.42-4.619,50.849-6.966,76.271c-3.482,37.734-7.001,75.466-10.53,113.197c-2.894,30.921-5.902,61.83-8.651,92.764
		c-0.417,4.683-2.297,6.608-6.841,7.879c-36.416,10.192-72.725,20.773-109.137,30.988c-3.325,0.934-7.363,0.961-10.682,0.028
		c-35.901-10.083-71.666-20.653-107.62-30.532c-6.727-1.85-8.287-5.13-8.805-11.448c-3.068-37.511-6.546-74.985-9.959-112.467
		c-4.009-44.033-8.033-88.064-12.175-132.085c-1.326-14.079-3.051-28.119-4.594-42.178c0-2.109,0-4.219,0-6.328
		C206.432,129.581,305.568,129.581,404.707,129.581z M342.729,266.576c-45.672,0-90.375,0-135.591,0
		c-1.209-12.659-2.35-24.59-3.574-37.418c47.809,0,94.847,0,142.451,0c1.194-12.913,2.317-25.051,3.456-37.373
		c-62.842,0-124.63,0-186.978,0c3.389,37.429,6.728,74.305,10.139,111.976c42.822,0,85.104,0,127.986,0
		c-1.268,15.547-2.295,30.219-3.88,44.83c-0.181,1.67-3.258,3.707-5.37,4.372c-10.265,3.238-20.61,6.248-31.035,8.921
		c-2.901,0.743-6.333,0.675-9.239-0.092c-10.411-2.745-20.802-5.658-30.961-9.198c-2.418-0.842-5.108-4.133-5.59-6.69
		c-1.437-7.597-1.834-15.391-2.612-22.857c-13.116,0-25.127,0-37.358,0c1.447,17.575,3.007,34.615,4.153,51.686
		c0.306,4.551,2.409,6.313,6.422,7.436c22.266,6.223,44.455,12.722,66.753,18.826c2.827,0.773,6.278,0.313,9.2-0.473
		c15.978-4.306,31.653-10.185,47.87-13.036c17.858-3.14,25.363-10.883,25.831-29.996
		C335.537,327.579,339.824,297.759,342.729,266.576z"/>
	<path fill="#FFFFFF" d="M259.096,46.746c7.454,0.936,15.032-0.137,19.739,3.039c4.899,3.306,7.026,10.718,11.042,17.473
		c6.994-12.15,12.378-26.129,30.784-18.286c0,17.47,0,35.93,0,54.835c-5.414,0-10.814,0-16.843,0c0-8.661,0-17.246,0-25.831
		c-0.521-0.227-1.043-0.453-1.563-0.68c-3.899,5.855-7.797,11.709-12.261,18.415c-4.102-6.151-7.888-11.832-12.947-19.421
		c0,10.453,0,18.68,0,27.419c-6.372,0-11.969,0-17.951,0C259.096,85.099,259.096,66.802,259.096,46.746z"/>
	<path fill="#FFFFFF" d="M153.788,48.183c0,6.059,0,11.525,0,17.55c5.921,0,11.257,0,17.459,0c0-5.819,0-11.48,0-17.65
		c6.229,0,11.629,0,17.711,0c0,18.233,0,36.724,0,55.692c-5.545,0-11.166,0-17.473,0c0-5.983,0-11.706,0-17.949
		c-6.045,0-11.415,0-17.484,0c0,5.893,0,11.605,0,17.867c-6.314,0-11.947,0-18.147,0c0-18.313,0-36.599,0-55.51
		C141.414,48.183,147.01,48.183,153.788,48.183z"/>
	<path fill="#FFFFFF" d="M233.86,103.854c-6.693,0-12.367,0-18.711,0c0-12.177,0-24.197,0-37.029c-5.486,0-10.345,0-15.823,0
		c0-6.665,0-12.523,0-18.826c16.662,0,33.133,0,50.098,0c0,5.936,0,11.608,0,18.102c-4.817,0-9.683,0-15.563,0
		C233.86,79.073,233.86,91.286,233.86,103.854z"/>
	<path fill="#FFFFFF" d="M332.169,103.732c0-18.749,0-37.024,0-55.733c5.731,0,11.109,0,17.64,0c0,12.297,0,24.458,0,37.101
		c9.206,0,17.278,0,25.948,0c0,6.375,0,12.242,0,18.632C361.565,103.732,347.258,103.732,332.169,103.732z"/>
</g>
</svg>
