<?xml version="1.0" encoding="utf-8"?>
<!-- Generator: Adobe Illustrator 16.0.4, SVG Export Plug-In . SVG Version: 6.00 Build 0)  -->
<!DOCTYPE svg PUBLIC "-//W3C//DTD SVG 1.1//EN" "http://www.w3.org/Graphics/SVG/1.1/DTD/svg11.dtd">
<svg version="1.1" id="Layer_1" xmlns="http://www.w3.org/2000/svg" xmlns:xlink="http://www.w3.org/1999/xlink" x="0px" y="0px"
	 width="512px" height="512px" viewBox="0 0 512 512" enable-background="new 0 0 512 512" xml:space="preserve">
<g id="_x33_e91140ac1bfb9903b91c1b0ca092167">
	<path fill="#FFFFFF" d="M354.995,248.096c-1.377-85.553-46.315-156.247-92.418-200.639c-14.659-14.116-17.025-29.187-17.025-29.187
		s0.313,6.626-7.296,14.593c-31.989,33.494-52.317,51.204-71.744,93.633c-24.187,52.822-25.535,122.814-25.535,122.814
		s1.287,57.615,25.535,104.576c18.772,36.356,51.843,66.072,64.945,76.976c1.205-4.11,3.517-12.444,5.098-20.934
		c2.451-13.174,3.551-27.186,3.562-27.324c0.244-3.126,2.825-5.557,5.96-5.61c0.036,0,0.07,0,0.104,0
		c3.092,0,5.698,2.321,6.042,5.405c0.022,0.21,2.39,21.115,6.977,33.883c2.325,6.479,6.468,8.648,6.647,8.739
		c1.684,0.688,2.801,2.026,3.335,3.768c0.03,0.086,0.043,0.175,0.062,0.264C281.857,418.682,356.675,352.725,354.995,248.096z
		 M228.167,367.684c-2.171,3.467-3.535,7.452-3.861,11.661c-0.008,0.101-0.381,4.833-1.167,11.223
		c-12.27-12.87-25.717-29.345-35.083-47.484c-20.881-40.441-23.144-90.508-23.32-95.527c0.172-5.716,2.528-68.232,23.728-114.531
		c11.747-25.655,23.877-41.473,39.702-58.61V367.684z M263.204,430.497c0,0-4.021,6.057-4.863,13.373
		c-2.125,18.418-2.43,49.859-2.43,49.859l-12.162-3.648c0,0-0.331-20.718-2.435-36.479c-1.398-10.494-4.863-18.244-4.863-18.244
		s3.773-11.909,6.081-24.318c2.544-13.669,3.646-27.967,3.646-27.967s2.41,21.648,7.299,35.264
		C256.785,427.557,263.204,430.497,263.204,430.497z"/>
</g>
</svg>
