<svg xmlns="http://www.w3.org/2000/svg" xmlns:xlink="http://www.w3.org/1999/xlink" width="600" height="357" viewBox="0 0 600 357"><defs><path id="a" d="M0-114h600v600H0z"/></defs><clipPath id="b"><use xlink:href="#a" overflow="visible"/></clipPath><g clip-path="url(#b)"><defs><path id="c" d="M0-114h600v600H0z"/></defs><clipPath id="d"><use xlink:href="#c" overflow="visible"/></clipPath><path clip-path="url(#d)" fill="#FFF" d="M296.953 320.944a8.373 8.373 0 0 1-4.19-1.121l-13.338-7.892c-1.991-1.114-1.019-1.509-.362-1.738 2.657-.922 3.195-1.135 6.031-2.743.295-.167.687-.103.992.076l10.247 6.083c.371.206.895.206 1.237 0l39.95-23.058c.372-.212.609-.641.609-1.081v-46.104c0-.451-.237-.872-.62-1.101l-39.933-23.038a1.25 1.25 0 0 0-1.231 0l-39.923 23.045a1.285 1.285 0 0 0-.634 1.094v46.104c0 .44.246.858.63 1.067l10.944 6.323c5.938 2.969 9.574-.528 9.574-4.041V247.3c0-.645.517-1.151 1.161-1.151h5.065c.634 0 1.158.507 1.158 1.151v45.519c0 7.925-4.316 12.47-11.829 12.47-2.309 0-4.127 0-9.202-2.501l-10.476-6.03a8.437 8.437 0 0 1-4.19-7.288v-46.104c0-2.995 1.602-5.792 4.19-7.281L292.763 213c2.528-1.429 5.888-1.429 8.396 0l39.947 23.085a8.433 8.433 0 0 1 4.195 7.281v46.104a8.458 8.458 0 0 1-4.195 7.288l-39.947 23.064a8.366 8.366 0 0 1-4.206 1.122"/><path clip-path="url(#d)" fill="#FFF" d="M309.293 289.182c-17.481 0-21.144-8.024-21.144-14.755 0-.641.514-1.151 1.154-1.151h5.165c.577 0 1.058.415 1.148.979.78 5.258 3.105 7.912 13.677 7.912 8.416 0 11.999-1.904 11.999-6.369 0-2.574-1.016-4.485-14.095-5.767-10.931-1.081-17.692-3.496-17.692-12.239 0-8.062 6.794-12.868 18.186-12.868 12.798 0 19.131 4.441 19.933 13.972.03.329-.086.645-.305.889a1.178 1.178 0 0 1-.846.369h-5.186a1.151 1.151 0 0 1-1.121-.902c-1.243-5.533-4.269-7.302-12.476-7.302-9.189 0-10.257 3.201-10.257 5.601 0 2.906 1.26 3.751 13.667 5.393 12.276 1.623 18.108 3.921 18.108 12.55.002 8.701-7.256 13.688-19.915 13.688M366.898 240.831c0 4.236-3.464 7.699-7.698 7.699-4.197 0-7.7-3.422-7.7-7.699 0-4.359 3.586-7.701 7.7-7.701 4.155 0 7.698 3.342 7.698 7.701m-14.154-.021c0 3.586 2.893 6.479 6.436 6.479 3.586 0 6.479-2.954 6.479-6.479 0-3.585-2.933-6.437-6.479-6.437-3.503 0-6.436 2.811-6.436 6.437m3.563-4.299h2.976c1.019 0 3.016 0 3.016 2.283 0 1.589-1.019 1.914-1.632 2.118 1.184.081 1.264.856 1.426 1.955.083.692.206 1.875.448 2.281h-1.831c-.043-.406-.329-2.607-.329-2.729-.119-.49-.285-.732-.896-.732h-1.506v3.461h-1.672v-8.637zm1.631 3.789h1.344c1.098 0 1.304-.772 1.304-1.221 0-1.183-.816-1.183-1.264-1.183h-1.384v2.404z"/><path clip-path="url(#d)" fill-rule="evenodd" clip-rule="evenodd" fill="#FFF" d="M173.243 140.567a5.108 5.108 0 0 0-2.558-4.445l-42.355-24.375a4.977 4.977 0 0 0-2.331-.674h-.438a5.052 5.052 0 0 0-2.339.674l-42.355 24.375a5.132 5.132 0 0 0-2.561 4.445l.093 65.635c0 .913.474 1.762 1.277 2.21a2.461 2.461 0 0 0 2.541 0l25.172-14.414c1.592-.945 2.561-2.614 2.561-4.438v-30.665c0-1.828.968-3.52 2.554-4.429l10.718-6.173a5.092 5.092 0 0 1 2.564-.687c.873 0 1.768.226 2.544.687l10.715 6.173a5.1 5.1 0 0 1 2.558 4.429v30.665c0 1.824.982 3.504 2.564 4.438l25.165 14.414a2.49 2.49 0 0 0 2.557 0 2.556 2.556 0 0 0 1.271-2.21l.083-65.635zM377.04 50.34a2.564 2.564 0 0 0-2.543.029 2.562 2.562 0 0 0-1.262 2.206v65a1.79 1.79 0 0 1-2.685 1.551l-10.609-6.112a5.115 5.115 0 0 0-5.112.001l-42.371 24.453a5.115 5.115 0 0 0-2.559 4.431v48.917c0 1.828.975 3.516 2.557 4.432l42.37 24.471a5.12 5.12 0 0 0 5.118 0l42.377-24.471a5.122 5.122 0 0 0 2.558-4.432V68.879a5.118 5.118 0 0 0-2.624-4.468L377.04 50.34zm-3.931 124.403c0 .456-.244.879-.64 1.106l-14.549 8.386a1.28 1.28 0 0 1-1.276 0l-14.548-8.386a1.274 1.274 0 0 1-.641-1.106v-16.799c0-.456.243-.879.64-1.108l14.547-8.402a1.278 1.278 0 0 1 1.28 0l14.548 8.402c.395.229.639.652.639 1.108v16.799zM518.131 157.505a5.116 5.116 0 0 0 2.546-4.424v-11.854c0-1.823-.97-3.51-2.548-4.425l-42.099-24.443a5.117 5.117 0 0 0-5.127-.007l-42.356 24.453a5.115 5.115 0 0 0-2.558 4.43v48.903c0 1.841.986 3.537 2.584 4.446l42.093 23.985a5.11 5.11 0 0 0 5.017.027l25.46-14.15a2.558 2.558 0 1 0 .032-4.455l-42.625-24.465a2.559 2.559 0 0 1-1.286-2.219v-15.326c0-.914.488-1.76 1.281-2.216l13.266-7.648a2.557 2.557 0 0 1 2.555 0l13.271 7.648a2.556 2.556 0 0 1 1.28 2.216v12.058a2.56 2.56 0 0 0 3.844 2.213l25.37-14.747z"/><path clip-path="url(#d)" fill-rule="evenodd" clip-rule="evenodd" fill="#FFF" d="M472.842 155.214a.98.98 0 0 1 .982 0l8.13 4.69c.304.176.491.5.491.851v9.388a.984.984 0 0 1-.491.851l-8.13 4.691a.98.98 0 0 1-.982 0l-8.124-4.691a.98.98 0 0 1-.49-.851v-9.388c0-.351.187-.675.49-.851l8.124-4.69z"/></g><g clip-path="url(#b)"><defs><path id="e" d="M238.756 112.869l-42.02 24.254a5.072 5.072 0 0 0-2.539 4.395v48.548c0 1.813.967 3.488 2.537 4.396l42.02 24.274a5.085 5.085 0 0 0 5.079 0l42.029-24.274a5.077 5.077 0 0 0 2.538-4.396V141.52a5.073 5.073 0 0 0-2.539-4.397l-42.03-24.254a5.064 5.064 0 0 0-2.538-.68 5.06 5.06 0 0 0-2.537.68"/></defs><clipPath id="f"><use xlink:href="#e" overflow="visible"/></clipPath><linearGradient id="g" gradientUnits="userSpaceOnUse" y1="485.999" x2="1" y2="485.999" gradientTransform="matrix(94.2039 0 0 -94.2039 194.188 45948.902)"><stop offset="0" stop-color="#fff"/><stop offset=".005" stop-color="#fff"/><stop offset=".105" stop-color="#f4f4f5"/><stop offset=".492" stop-color="#cfd0d1"/><stop offset=".804" stop-color="#b7b9bb"/><stop offset="1" stop-color="#afb1b3"/></linearGradient><path clip-path="url(#f)" fill="url(#g)" d="M194.197 112.189H288.4v107.456h-94.203z"/></g><g clip-path="url(#b)"><defs><path id="h" d="M238.766 112.869l-42.03 24.254a5.073 5.073 0 0 0-2.539 4.397v48.546c0 1.813.967 3.488 2.537 4.396l42.031 24.274a5.081 5.081 0 0 0 5.077 0l42.02-24.274a5.077 5.077 0 0 0 2.538-4.396v-48.548a5.073 5.073 0 0 0-2.538-4.395l-42.021-24.254a5.064 5.064 0 0 0-2.538-.68c-.876 0-1.752.226-2.537.68"/></defs><clipPath id="i"><use xlink:href="#h" overflow="visible"/></clipPath><g opacity=".66" clip-path="url(#i)"><defs><path id="j" d="M195.182 112.341h91.752V219.41h-91.752z"/></defs><clipPath id="k"><use xlink:href="#j" overflow="visible"/></clipPath><path clip-path="url(#k)" fill="#4B4B4B" d="M285.648 137.123l-41.843-24.255a5.058 5.058 0 0 0-1.327-.527l-47.296 80.908c.398.479.878.896 1.428 1.214l42.093 24.274a4.978 4.978 0 0 0 4.043.428l44.188-80.914a4.44 4.44 0 0 0-1.286-1.128"/></g></g><g clip-path="url(#b)"><defs><path id="l" d="M240.99 112.198a5.076 5.076 0 0 0-2.224.671l-41.629 24.022 45.223 82.385a5.061 5.061 0 0 0 1.373-.539l41.93-24.274c1.569-.908 2.337-2.583 2.337-4.396v-.19l-45.36-77.493a5.181 5.181 0 0 0-1.65-.186"/></defs><clipPath id="m"><use xlink:href="#l" overflow="visible"/></clipPath><linearGradient id="n" gradientUnits="userSpaceOnUse" y1="486" x2="1" y2="486" gradientTransform="matrix(97.1778 0 0 -97.1778 193.563 47394.16)"><stop offset="0" stop-color="#afb1b3"/><stop offset=".196" stop-color="#b7b9bb"/><stop offset=".507" stop-color="#cfd0d1"/><stop offset=".895" stop-color="#f4f4f5"/><stop offset=".995" stop-color="#fff"/><stop offset="1" stop-color="#fff"/></linearGradient><path clip-path="url(#m)" fill="url(#n)" d="M197.137 112.192H288v107.084h-90.863z"/></g></svg>