<svg xmlns="http://www.w3.org/2000/svg" width="756" height="315" viewBox="0 0 756 315"><path fill="#FFF" d="M18 18h20v20H18zM38 18h20v20H38zM38 38h20v20H38zM58 18h20.001v20H58zM58 38h20.001v20H58z"/><path fill="#FFF" d="M78 18h20v20H78zM78 38h20v20H78zM98 18h20v20H98zM98 38h20v20H98zM118 18h20v20h-20zM118 38h20v20h-20zM138 18h20.001v20H138zM138 38h20.001v20H138z"/><path fill="#FFF" d="M158 18h20v20h-20zM158 38h20v20h-20zM178 18h20v20h-20zM178 38h20v20h-20zM198 18h20v20h-20zM198 38h20v20h-20zM218 18h20v20h-20zM218 38h20v20h-20zM238 18h20.001v20H238zM238 38h20.001v20H238zM18 38h20v20H18z"/><path fill="#FFF" d="M258 18h20v20h-20zM278 18h20v20h-20zM278 38h20v20h-20zM298 18h20v20h-20zM298 38h20v20h-20zM318 18h20.001v20H318zM318 38h20.001v20H318z"/><path fill="#FFF" d="M338 18h20v20h-20zM338 38h20v20h-20zM358 18h20v20h-20zM358 38h20v20h-20zM378 18h20v20h-20zM378 38h20v20h-20zM398 18h20v20h-20zM398 38h20v20h-20zM418 18h20.001v20H418zM418 38h20.001v20H418z"/><path fill="#FFF" d="M438 18h20v20h-20zM438 38h20v20h-20zM458 18h20v20h-20zM458 38h20v20h-20zM478 18h20v20h-20zM478 38h20v20h-20zM498 18h20.001v20H498zM498 38h20.001v20H498z"/><path fill="#FFF" d="M518 18h20v20h-20zM518 38h20v20h-20zM538 18h20v20h-20zM538 38h20v20h-20zM558 18h20v20h-20zM558 38h20v20h-20zM578 18h20v20h-20zM578 38h20v20h-20zM598 18h20.001v20H598zM598 38h20.001v20H598z"/><path fill="#FFF" d="M618 18h20v20h-20zM618 38h20v20h-20zM638 18h20v20h-20zM638 38h20v20h-20zM658 18h20v20h-20zM658 38h20v20h-20zM678 18h20.001v20H678zM678 38h20.001v20H678z"/><path fill="#FFF" d="M698 18h20v20h-20zM698 38h20v20h-20zM718 18h20v20h-20zM718 38h20v20h-20zM258 38h20v20h-20zM18 218h20v20H18zM38 218h20v20H38z"/><path fill="#FFF" d="M38 237.999h20V258H38zM58 218h20.001v20H58z"/><path fill="#FFF" d="M58 237.999h20.001V258H58z"/><path fill="#FFF" d="M78 218h20v20H78z"/><path fill="#FFF" d="M78 237.999h20V258H78zM98 218h20v20H98z"/><path fill="#FFF" d="M98 237.999h20V258H98zM118 218h20v20h-20z"/><path fill="#FFF" d="M118 237.999h20V258h-20zM138 218h20.001v20H138z"/><path fill="#FFF" d="M138 237.999h20.001V258H138z"/><path fill="#FFF" d="M158 218h20v20h-20z"/><path fill="#FFF" d="M158 237.999h20V258h-20zM178 218h20v20h-20z"/><path fill="#FFF" d="M178 237.999h20V258h-20zM198 218h20v20h-20z"/><path fill="#FFF" d="M198 237.999h20V258h-20zM218 218h20v20h-20zM238 218h20.001v20H238z"/><path fill="#FFF" d="M218 237.999h20V258h-20zM238 237.999h20.001V258H238zM218 258h20v20h-20zM238 258h20.001v20H238zM218 278h20v20h-20zM238 278h20.001v20H238z"/><path fill="#FFF" d="M258 258h20v20h-20zM278 258h20v20h-20zM258 278h20v20h-20zM278 278h20v20h-20zM298 258h20v20h-20zM318 258h20.001v20H318zM298 278h20v20h-20zM318 278h20.001v20H318z"/><path fill="#FFF" d="M338 258h20v20h-20zM358 258h20v20h-20zM338 278h20v20h-20zM358 278h20v20h-20zM18 237.999h20V258H18zM338 218h20v20h-20zM358 218h20v20h-20z"/><path fill="#FFF" d="M358 237.999h20V258h-20zM378 218h20v20h-20z"/><path fill="#FFF" d="M378 237.999h20V258h-20zM398 218h20v20h-20z"/><path fill="#FFF" d="M398 237.999h20V258h-20zM418 218h20.001v20H418z"/><path fill="#FFF" d="M418 237.999h20.001V258H418z"/><path fill="#FFF" d="M438 218h20v20h-20z"/><path fill="#FFF" d="M438 237.999h20V258h-20zM458 218h20v20h-20z"/><path fill="#FFF" d="M458 237.999h20V258h-20zM478 218h20v20h-20z"/><path fill="#FFF" d="M478 237.999h20V258h-20zM498 218h20.001v20H498z"/><path fill="#FFF" d="M498 237.999h20.001V258H498z"/><path fill="#FFF" d="M518 218h20v20h-20z"/><path fill="#FFF" d="M518 237.999h20V258h-20zM538 218h20v20h-20zM558 218h20v20h-20z"/><path fill="#FFF" d="M538 237.999h20V258h-20zM558 237.999h20V258h-20zM578 218h20v20h-20z"/><path fill="#FFF" d="M578 237.999h20V258h-20zM598 218h20.001v20H598z"/><path fill="#FFF" d="M598 237.999h20.001V258H598z"/><path fill="#FFF" d="M618 218h20v20h-20z"/><path fill="#FFF" d="M618 237.999h20V258h-20zM638 218h20v20h-20z"/><path fill="#FFF" d="M638 237.999h20V258h-20zM658 218h20v20h-20zM678 218h20.001v20H678z"/><path fill="#FFF" d="M658 237.999h20V258h-20zM678 237.999h20.001V258H678z"/><path fill="#FFF" d="M698 218h20v20h-20zM718 218h20v20h-20z"/><path fill="#FFF" d="M698 237.999h20V258h-20zM718 237.999h20V258h-20zM338 237.999h20V258h-20zM18 57.999h20V78H18zM38 57.999h20V78H38zM38 78h20v20H38zM18 78h20v20H18zM18 98h20v20H18zM38 98h20v20H38zM38 118h20v20H38zM18 118h20v20H18z"/><path fill="#FFF" d="M18 137.999h20V158H18zM38 137.999h20V158H38zM38 158h20v20H38zM18 158h20v20H18zM18 178h20v20H18zM38 178h20v20H38zM38 198h20v20H38zM18 198h20v20H18zM218 57.999h20V78h-20zM238 57.999h20.001V78H238zM238 78h20.001v20H238zM218 78h20v20h-20zM218 98h20v20h-20zM238 98h20.001v20H238zM238 118h20.001v20H238zM218 118h20v20h-20z"/><path fill="#FFF" d="M218 137.999h20V158h-20zM238 137.999h20.001V158H238zM238 158h20.001v20H238zM218 158h20v20h-20zM218 178h20v20h-20zM238 178h20.001v20H238zM238 198h20.001v20H238zM218 198h20v20h-20zM418 57.999h20.001V78H418z"/><path fill="#FFF" d="M438 57.999h20V78h-20zM438 78h20v20h-20z"/><path fill="#FFF" d="M418 78h20.001v20H418zM418 98h20.001v20H418z"/><path fill="#FFF" d="M438 98h20v20h-20zM438 118h20v20h-20z"/><path fill="#FFF" d="M418 118h20.001v20H418z"/><path fill="#FFF" d="M418 137.999h20.001V158H418z"/><path fill="#FFF" d="M438 137.999h20V158h-20zM438 158h20v20h-20z"/><path fill="#FFF" d="M418 158h20.001v20H418zM418 178h20.001v20H418z"/><path fill="#FFF" d="M438 178h20v20h-20zM438 198h20v20h-20z"/><path fill="#FFF" d="M418 198h20.001v20H418zM138 98h20.001v20H138z"/><path fill="#FFF" d="M158 98h20v20h-20zM158 118h20v20h-20z"/><path fill="#FFF" d="M138 118h20.001v20H138z"/><path fill="#FFF" d="M138 137.999h20.001V158H138z"/><path fill="#FFF" d="M158 137.999h20V158h-20zM158 158h20v20h-20z"/><path fill="#FFF" d="M138 158h20.001v20H138zM338 98h20v20h-20zM358 98h20v20h-20zM358 118h20v20h-20zM338 118h20v20h-20z"/><path fill="#FFF" d="M338 137.999h20V158h-20zM358 137.999h20V158h-20zM358 158h20v20h-20zM338 158h20v20h-20zM538 137.999h20V158h-20zM558 137.999h20V158h-20zM558 158h20v20h-20zM538 158h20v20h-20zM538 98h20v20h-20zM558 98h20v20h-20z"/><path fill="#FFF" d="M558 118h20v20h-20zM538 118h20v20h-20zM538 178h20v20h-20zM558 178h20v20h-20zM558 198h20v20h-20zM538 198h20v20h-20zM618 137.999h20V158h-20zM638 137.999h20V158h-20zM638 158h20v20h-20zM618 158h20v20h-20zM618 98h20v20h-20zM638 98h20v20h-20z"/><path fill="#FFF" d="M638 118h20v20h-20zM618 118h20v20h-20zM618 178h20v20h-20zM638 178h20v20h-20zM638 198h20v20h-20zM618 198h20v20h-20zM698 137.999h20V158h-20zM718 137.999h20V158h-20zM718 158h20v20h-20zM698 158h20v20h-20zM698 98h20v20h-20zM718 98h20v20h-20z"/><path fill="#FFF" d="M718 118h20v20h-20zM698 118h20v20h-20zM698 57.999h20V78h-20zM718 57.999h20V78h-20zM718 78h20v20h-20zM698 78h20v20h-20zM698 178h20v20h-20zM718 178h20v20h-20zM718 198h20v20h-20zM698 198h20v20h-20zM138 178h20.001v20H138z"/><path fill="#FFF" d="M158 178h20v20h-20zM158 198h20v20h-20z"/><path fill="#FFF" d="M138 198h20.001v20H138z"/></svg>