<?xml version="1.0" encoding="utf-8"?>
<!-- Generator: Adobe Illustrator 16.0.4, SVG Export Plug-In . SVG Version: 6.00 Build 0)  -->
<!DOCTYPE svg PUBLIC "-//W3C//DTD SVG 1.1//EN" "http://www.w3.org/Graphics/SVG/1.1/DTD/svg11.dtd">
<svg version="1.1" id="Layer_1" xmlns="http://www.w3.org/2000/svg" xmlns:xlink="http://www.w3.org/1999/xlink" x="0px" y="0px"
	 width="512px" height="512px" viewBox="-128 -128 512 512" enable-background="new -128 -128 512 512" xml:space="preserve">
<path fill="none" stroke="#FFFFFF" stroke-width="13.2609" stroke-miterlimit="10" d="M75.653-67.227
	c53.488-13.717,112.601-5.724,159.771,23.389c59.41,35.527,98.191,102.731,99.178,171.91
	c2.174,69.868-34.242,139.147-92.764,177.139c-65.133,43.816-155.231,45.496-221.745,3.85
	c-67.796-40.459-107.37-122.074-97.205-200.429C-68.921,25.834-4.973-47.193,75.653-67.227L75.653-67.227L75.653-67.227z"/>
<path fill="#FFFFFF" d="M77.627,122.249c45.296-37.006,89.605-75.296,135.888-111.219c-24.277,37.303-49.244,74.113-73.52,111.417
	C119.173,122.546,98.351,122.546,77.627,122.249L77.627,122.249L77.627,122.249z"/>
<path fill="#FFFFFF" d="M115.917,142.875c20.918,0,41.743,0,62.565,0.295c-45.594,36.812-89.704,75.395-136.086,111.219
	C66.672,217.086,91.64,180.178,115.917,142.875L115.917,142.875L115.917,142.875z"/>
</svg>
