<svg xmlns="http://www.w3.org/2000/svg" width="317" height="289" viewBox="0 0 317 289"><path fill="#231F20" d="M70.758 188.03c2.266-7.573 8.686-18.087 21.24-17.61v.613c-10.166.414-15.014 10.49-17.257 16.996l-11.763 34.124s-1.245 3.89-1.338 6.807h-.58l-12.5-34.954-9.87 30.838c-2.76 8.648-9.396 15.262-18.276 13.303l.123-.612c6.835 1.347 12.632-5.51 15.35-12.843L23.504 189.71c-1.015-2.66-3.49-3.733-5.367-3.733h-.49v-.612h13.608v.606h-.538c-1.566 0-3.112 1.357-2.39 3.765l9.262 29.802 11.402-35.13.57.02 12.11 33.967 9.088-30.365z"/><path fill="#231F20" d="M93.742 228.227H80.345l.01-.612h.775a3.924 3.924 0 0 0 3.922-3.85v-33.97a3.923 3.923 0 0 0-3.92-3.825h-.775l-.01-.612h13.396l-.01.612h-.775a3.924 3.924 0 0 0-3.92 3.812v33.98a3.924 3.924 0 0 0 3.92 3.852h.775l.01.613zM142.6 208.303c-1.98 0-3.094 1-3.065 2.77V221.2c-2.792 3.71-8.514 7.887-17.71 7.887-13.02-.06-22.008-8.962-22.008-22.29 0-13.372 8.987-22.288 21.99-22.288 6.736 0 11.246 1.82 14.844 4.135l1.237 8.648h-.51c-1.86-7.007-7.465-10.95-15.55-10.95-10.38 0-17.417 8.184-17.417 20.458 0 12.22 7.037 20.402 17.416 20.457 5.322 0 10.286-2.047 13.817-5.31v-10.85c0-1.79-1.173-2.795-3.15-2.795h-.966v-.612h11.994v.612h-.92zM205.773 185.363v.612h-.54c-1.868 0-4.43 1.09-5.372 3.794l-10.138 32.385s-1.244 3.89-1.338 6.806h-.578l-12.52-35.014-9.278 28.208s-1.184 3.798-1.284 6.807h-.578l-13.896-39.25c-1.016-2.66-3.49-3.733-5.367-3.733h-.49v-.613H158v.607h-.538c-1.566 0-3.112 1.356-2.39 3.765l9.262 29.802 11.4-35.13.57.02L188.38 218.3l8.2-28.676c.608-2.35-.705-3.653-2.37-3.653h-.54v-.605h12.103zM238.305 223.76c1.238 2.724 3.503 3.853 5.38 3.853h.51v.612h-13.788v-.606h.54c1.58 0 3.22-1.395 2.325-3.845l-3.916-10.43h-16.493l-4.103 10.467c-.863 2.428.768 3.808 2.34 3.808h.54v.606h-12.325v-.612h.55c1.862 0 4.126-1.13 5.364-3.85l13.886-32.952s2.268-4.96 2.268-6.307h.552l16.37 39.254zm-9.64-12.25l-7.38-19.653-7.703 19.652h15.084zM294.187 223.778c.313 2.42 2.273 3.836 4.462 3.836h.974v.612h-13.31v-.578h.952c1.32-.003 2.513-1.23 2.388-2.615l-2.776-30.812-12.868 28.61s-1.706 3.72-2.102 6.254h-.576l-15.66-33.975-2.688 29.924c-.12 1.32 1.067 2.61 2.387 2.614h.955v.578h-11.86v-.612h.976c2.19 0 4.15-1.416 4.464-3.836l4.605-39.272h.567l17.09 36.948 16.705-36.93h.56l4.755 39.254z"/><path fill="#58595B" d="M112.624 246.23c5.917 0 9.645 3.424 9.645 9.008 0 5.573-3.73 8.99-9.646 8.99h-10.006l.005-.3h.4c.945 0 1.656-.736 1.682-1.63v-14.155c-.03-.946-.773-1.618-1.715-1.618h-.367l-.005-.297 10.006.003zm-5.966 17.087h5.98c4.607 0 7.462-3.07 7.462-8.078 0-5.027-2.855-8.107-7.46-8.107h-5.982v16.184zM138.957 264.23H126.77l.005-.3h.412c.968 0 1.695-.71 1.732-1.594V248.1c0-.895-.76-1.57-1.734-1.57h-.412l-.005-.302h8.763c1.207-.008 2.83-.267 3.352-.47v3.395l-.327-.004v-.462c0-.842-.59-1.524-1.504-1.542h-6.22v7.632h5.125c.83-.018 1.215-.58 1.215-1.273v-.382l.326-.003v4.214l-.325-.004v-.38c0-.675-.362-1.226-1.146-1.272h-5.196v7.633h4.69c2.883-.038 3.91-1.443 4.76-3.386h.326l-1.653 4.305zM154.172 256.594c.925.777 1.348 2.057 1.358 3.223.024 2.677-2.35 4.83-5.31 4.83-1.778 0-4.082-.434-5.175-1.413-.19-.798-.112-2.565.298-3.725h.346c-.266 2.7 1.554 4.312 4.2 4.237 2.48-.07 3.998-1.363 3.998-3.312 0-.935-.32-1.698-1.093-2.375l-6-4.63c-1.118-.954-1.42-2.2-1.434-3.242-.035-2.438 2.184-4.38 4.96-4.38 1.374 0 2.297.122 2.968.277h1.002l.045 3.264h-.344c0-1.663-1.11-2.653-3.465-2.653-2.003 0-3.617 1.267-3.605 2.86.005.772.238 1.607 1.18 2.363l6.072 4.674zM160.607 264.227l.006-.3h.4c1.115 0 2.016-.725 2.04-1.625v-14.15c-.024-.9-.926-1.625-2.042-1.625h-.4l-.005-.3h6.796v.3H167c-1.092 0-1.982.696-2.035 1.572v14.226c.035.89.934 1.602 2.036 1.602h.4l.004.3h-6.797zM190.272 260.78c-1.397 1.767-4.32 3.865-8.544 3.865-5.93-.03-9.84-3.606-9.84-9.42 0-5.84 3.918-9.42 9.83-9.42 2.765 0 4.98.58 7.004 1.816l.66 4.238h-.264c-.87-3.505-3.232-5.154-7.428-5.154-4.582 0-7.635 3.238-7.635 8.52 0 5.262 3.068 8.52 7.672 8.52 2.496 0 4.713-.77 6.592-2.6l.05-3.985c.01-.756-.52-1.18-1.396-1.18h-.428v-.3h5.502v.3h-.41c-.877 0-1.37.422-1.367 1.19l.002 3.61zM216.77 246.227l-.006.3h-.498c-.89 0-1.615.664-1.668 1.502v12.79c0 1.934.285 3.828.285 3.828h-.285l-15.603-14.804v12.517c.017.87.757 1.568 1.67 1.568h.5l.003.3h-5.67l.004-.3h.5c.912 0 1.652-.7 1.67-1.567v-12.833c0-2.05-.287-3.748-.287-3.748l.322.014 15.566 14.672v-12.44c-.054-.835-.78-1.498-1.668-1.498h-.498l-.005-.3h5.667z"/><circle fill="#231F20" cx="159.486" cy="84.088" r="72.596"/><g><path fill="#FFF" d="M195.16 63.913c3.848-12.854 14.745-30.704 36.058-29.895v1.04c-17.256.705-25.488 17.81-29.296 28.856l-19.974 57.933s-2.11 6.605-2.27 11.555h-.982L157.474 74.06l-16.753 52.354c-4.687 14.682-15.952 25.908-31.028 22.583l.208-1.04c11.605 2.287 21.446-9.355 26.063-21.805l-21.027-59.388c-1.723-4.516-5.927-6.34-9.112-6.34h-.83v-1.038h23.1v1.03h-.914c-2.66 0-5.284 2.3-4.06 6.39l15.726 50.594 19.358-59.64.967.033 20.56 57.663 15.43-51.543z"/></g></svg>