<svg xmlns="http://www.w3.org/2000/svg" width="100" height="35" viewBox="0 0 100 35"><path fill="#231F20" d="M47.873 11.28c.478-1.596 1.83-3.813 4.477-3.712v.13c-2.143.085-3.165 2.21-3.637 3.582l-2.48 7.194s-.263.82-.283 1.436h-.122l-2.635-7.37-2.08 6.502c-.583 1.824-1.982 3.217-3.855 2.804l.026-.13c1.44.285 2.663-1.16 3.236-2.707l-2.61-7.377a1.22 1.22 0 0 0-1.133-.787h-.103v-.128h2.87v.127h-.114c-.33 0-.656.287-.504.794l1.953 6.283 2.403-7.406.12.003 2.553 7.162 1.917-6.402z"/><path fill="#231F20" d="M52.72 19.755h-2.827l.002-.128h.164c.45 0 .817-.36.825-.812v-7.162a.828.828 0 0 0-.826-.807h-.165v-.13h2.824l-.005.13h-.162a.825.825 0 0 0-.826.805v7.165c.008.45.373.812.826.812h.162l.004.128zM63.02 15.556c-.418 0-.654.21-.646.583v2.134c-.588.783-1.797 1.662-3.734 1.662-2.746-.013-4.64-1.89-4.64-4.7 0-2.818 1.894-4.698 4.636-4.698 1.42 0 2.37.383 3.13.87l.26 1.825h-.108c-.39-1.478-1.572-2.31-3.277-2.31-2.187 0-3.67 1.727-3.67 4.315 0 2.577 1.483 4.3 3.67 4.313 1.122 0 2.17-.43 2.915-1.12v-2.287c0-.378-.248-.59-.666-.59h-.204v-.128h2.53v.128l-.196.003zM76.338 10.72v.127h-.113c-.395 0-.936.23-1.133.8l-2.14 6.83s-.26.818-.28 1.433h-.123l-2.64-7.38-1.957 5.945s-.248.8-.27 1.436h-.12l-2.933-8.275a1.22 1.22 0 0 0-1.13-.787h-.105v-.128h2.87v.128h-.114c-.33 0-.655.285-.503.792l1.953 6.284 2.402-7.406.12.003 2.548 7.144 1.73-6.046c.126-.495-.15-.77-.5-.77h-.114v-.128h2.552zM83.197 18.813c.262.574.738.812 1.135.812h.107v.13h-2.91v-.13h.114c.334 0 .68-.292.492-.81l-.826-2.198h-3.48l-.862 2.208c-.184.51.16.802.492.802h.113v.127h-2.598v-.128h.115c.393 0 .87-.238 1.13-.812l2.93-6.947s.478-1.047.478-1.33h.117l3.452 8.276zm-2.03-2.582l-1.558-4.142-1.626 4.143h3.182zM94.98 18.818c.065.51.48.81.94.81h.205v.127h-2.807v-.12h.2c.28-.003.53-.262.505-.553l-.586-6.496-2.715 6.032s-.357.784-.44 1.318h-.122l-3.3-7.163-.57 6.31a.53.53 0 0 0 .505.552h.2v.12h-2.5v-.127h.204c.462 0 .876-.298.942-.81l.97-8.28h.12l3.602 7.79 3.525-7.785h.116l1.003 8.275z"/><path fill="#58595B" d="M56.7 23.55c1.245 0 2.032.723 2.032 1.9 0 1.175-.787 1.896-2.033 1.896h-2.112l.002-.062h.084c.2 0 .35-.156.355-.346v-2.982a.35.35 0 0 0-.364-.342h-.076l-.002-.062h2.11zm-1.26 3.602h1.26c.974 0 1.575-.646 1.575-1.702 0-1.06-.602-1.71-1.574-1.71h-1.26v3.412zM62.252 27.346h-2.57v-.062h.088c.203 0 .357-.15.365-.336v-3.002c0-.19-.16-.33-.365-.33h-.088v-.064h1.846c.256-.002.598-.057.71-.1v.716h-.07v-.098a.313.313 0 0 0-.317-.325h-1.31v1.61h1.08c.177-.004.257-.124.257-.27v-.08h.068v.887h-.068v-.08c0-.143-.076-.26-.242-.27H60.54v1.61h.99c.606-.008.823-.305 1.003-.713h.066l-.348.906zM65.46 25.737c.194.163.282.433.284.677.006.566-.494 1.02-1.12 1.02-.374 0-.86-.092-1.09-.297-.038-.17-.024-.54.063-.787h.072c-.056.572.327.91.886.895.52-.016.842-.287.842-.697a.624.624 0 0 0-.23-.502l-1.264-.976a.877.877 0 0 1-.303-.683c-.007-.515.462-.924 1.046-.924.29 0 .484.025.625.06h.214l.008.686h-.07c0-.35-.234-.56-.732-.56-.422 0-.762.267-.76.604.002.163.05.34.25.5l1.28.983zM66.814 27.346l.002-.062h.084c.236 0 .426-.154.43-.344v-2.983c-.004-.19-.193-.342-.43-.342h-.084l-.002-.064h1.434v.065h-.084c-.23 0-.42.146-.43.33v3c.008.187.197.34.43.34h.084v.06h-1.434zM73.07 26.62c-.295.372-.912.813-1.803.813-1.25-.006-2.074-.76-2.074-1.986 0-1.23.826-1.986 2.072-1.986.584 0 1.05.124 1.477.384l.14.894h-.056c-.184-.74-.68-1.085-1.566-1.085-.965 0-1.61.682-1.61 1.795 0 1.11.65 1.796 1.618 1.796.527 0 .996-.162 1.39-.55l.013-.838c.003-.16-.11-.25-.296-.25h-.088v-.062h1.158v.063h-.086c-.186 0-.29.088-.287.25v.762zM78.656 23.55v.064h-.105c-.188 0-.34.14-.35.316v2.697c0 .408.058.807.058.807h-.06l-3.29-3.12v2.638c.004.184.16.332.354.332h.104l.002.062h-1.195v-.062h.105a.345.345 0 0 0 .352-.332v-2.705c0-.432-.06-.79-.06-.79l.067.002 3.283 3.093V23.93a.346.346 0 0 0-.352-.316h-.105l-.002-.064h1.196z"/><circle fill="#231F20" cx="18.345" cy="17.5" r="11.788"/><path fill="#FFF" d="M24.138 14.225c.625-2.087 2.394-4.986 5.855-4.854v.17c-2.802.114-4.14 2.892-4.757 4.685l-3.244 9.407s-.342 1.072-.37 1.876h-.158l-3.447-9.636-2.72 8.5c-.76 2.386-2.59 4.208-5.038 3.67l.033-.17c1.885.37 3.482-1.52 4.232-3.542l-3.415-9.643a1.596 1.596 0 0 0-1.48-1.03h-.133v-.168h3.75v.166h-.15c-.43 0-.856.374-.658 1.037l2.553 8.216 3.143-9.686.157.006 3.338 9.363 2.508-8.368z"/></svg>