<?xml version="1.0" encoding="utf-8"?>
<!-- Generator: Adobe Illustrator 16.0.4, SVG Export Plug-In . SVG Version: 6.00 Build 0)  -->
<!DOCTYPE svg PUBLIC "-//W3C//DTD SVG 1.1//EN" "http://www.w3.org/Graphics/SVG/1.1/DTD/svg11.dtd">
<svg version="1.1" id="Layer_1" xmlns="http://www.w3.org/2000/svg" xmlns:xlink="http://www.w3.org/1999/xlink" x="0px" y="0px"
	 width="317px" height="289px" viewBox="0 0 317 289" enable-background="new 0 0 317 289" xml:space="preserve">
<path fill="#FFFFFF" d="M70.758,188.029c2.266-7.572,8.686-18.086,21.24-17.609v0.613c-10.166,0.414-15.014,10.49-17.257,16.996
	l-11.763,34.123c0,0-1.245,3.891-1.338,6.808h-0.58l-12.5-34.954l-9.87,30.838c-2.76,8.648-9.396,15.262-18.276,13.303l0.123-0.61
	c6.835,1.347,12.632-5.511,15.35-12.845L23.504,189.71c-1.015-2.66-3.49-3.733-5.367-3.733h-0.49v-0.61h13.608v0.604h-0.538
	c-1.566,0-3.112,1.357-2.39,3.766l9.262,29.803l11.402-35.13l0.57,0.021l12.11,33.967L70.758,188.029L70.758,188.029z"/>
<path fill="#FFFFFF" d="M93.742,228.227H80.345l0.01-0.61h0.775c2.138-0.001,3.882-1.714,3.922-3.851v-33.971
	c-0.053-2.127-1.792-3.824-3.92-3.824h-0.775l-0.01-0.613h13.396l-0.01,0.613h-0.775c-2.123,0-3.859,1.689-3.92,3.812v33.979
	c0.039,2.139,1.782,3.852,3.92,3.853h0.775L93.742,228.227L93.742,228.227z M142.6,208.303c-1.98,0-3.094,1-3.065,2.771V221.2
	c-2.792,3.71-8.514,7.887-17.71,7.887c-13.02-0.06-22.008-8.962-22.008-22.29c0-13.372,8.987-22.288,21.99-22.288
	c6.736,0,11.246,1.82,14.844,4.136l1.237,8.647h-0.51c-1.86-7.007-7.465-10.95-15.55-10.95c-10.38,0-17.417,8.184-17.417,20.458
	c0,12.22,7.037,20.402,17.416,20.457c5.322,0,10.286-2.047,13.817-5.31v-10.85c0-1.791-1.173-2.797-3.15-2.797h-0.966v-0.611h11.994
	v0.611h-0.92L142.6,208.303z M205.773,185.363v0.611h-0.541c-1.867,0-4.431,1.09-5.371,3.795l-10.139,32.385
	c0,0-1.244,3.89-1.339,6.806h-0.577l-12.521-35.015l-9.278,28.209c0,0-1.184,3.798-1.283,6.807h-0.578l-13.896-39.25
	c-1.016-2.66-3.49-3.732-5.367-3.732h-0.49v-0.612H158v0.606h-0.538c-1.566,0-3.112,1.355-2.39,3.764l9.262,29.804l11.4-35.13
	l0.57,0.021l12.074,33.869l8.2-28.676c0.606-2.352-0.705-3.652-2.37-3.652h-0.54v-0.604h12.104V185.363L205.773,185.363z
	 M238.305,223.76c1.238,2.725,3.504,3.854,5.381,3.854h0.51v0.611h-13.787v-0.604h0.539c1.58,0,3.221-1.396,2.324-3.847
	l-3.916-10.43h-16.492l-4.104,10.467c-0.863,2.428,0.768,3.81,2.34,3.81h0.541v0.604h-12.326v-0.611h0.552
	c1.86,0,4.126-1.131,5.362-3.85l13.888-32.953c0,0,2.268-4.959,2.268-6.307h0.554l16.369,39.254v0.002H238.305z M228.665,211.51
	l-7.38-19.652l-7.703,19.651L228.665,211.51L228.665,211.51z M294.188,223.777c0.312,2.421,2.272,3.836,4.461,3.836h0.976v0.613
	h-13.312v-0.578h0.953c1.319-0.004,2.512-1.23,2.387-2.615l-2.774-30.812l-12.868,28.61c0,0-1.705,3.72-2.102,6.254h-0.576
	l-15.66-33.976l-2.688,29.925c-0.119,1.319,1.066,2.61,2.388,2.614h0.955v0.578h-11.86v-0.613h0.977
	c2.189,0,4.149-1.416,4.464-3.836l4.604-39.271h0.567l17.09,36.948l16.705-36.931h0.56L294.188,223.777L294.188,223.777z"/>
<path fill="#FFFFFF" d="M112.624,246.23c5.917,0,9.645,3.424,9.645,9.008c0,5.572-3.73,8.99-9.646,8.99h-10.006l0.005-0.302h0.4
	c0.945,0,1.656-0.735,1.682-1.63v-14.154c-0.03-0.945-0.773-1.617-1.715-1.617h-0.367l-0.005-0.297L112.624,246.23L112.624,246.23z
	 M106.658,263.316h5.98c4.607,0,7.462-3.069,7.462-8.078c0-5.026-2.855-8.106-7.46-8.106h-5.982V263.316L106.658,263.316z
	 M138.957,264.23H126.77l0.005-0.301h0.412c0.968,0,1.695-0.709,1.732-1.595V248.1c0-0.895-0.76-1.57-1.734-1.57h-0.412
	l-0.005-0.301h8.763c1.207-0.008,2.83-0.268,3.352-0.471v3.395l-0.327-0.004v-0.461c0-0.842-0.59-1.523-1.504-1.543h-6.22v7.633
	h5.125c0.83-0.019,1.215-0.579,1.215-1.272v-0.382l0.326-0.003v4.214l-0.325-0.004v-0.38c0-0.677-0.362-1.228-1.146-1.272h-5.196
	v7.635h4.69c2.883-0.039,3.91-1.443,4.76-3.388h0.326l-1.653,4.306H138.957z M154.172,256.594c0.925,0.777,1.348,2.057,1.358,3.223
	c0.024,2.679-2.35,4.83-5.31,4.83c-1.778,0-4.082-0.434-5.175-1.412c-0.19-0.799-0.112-2.564,0.298-3.726h0.346
	c-0.266,2.7,1.554,4.312,4.2,4.237c2.48-0.07,3.998-1.363,3.998-3.312c0-0.935-0.32-1.697-1.093-2.375l-6-4.63
	c-1.118-0.954-1.42-2.2-1.434-3.241c-0.035-2.438,2.184-4.381,4.96-4.381c1.374,0,2.297,0.122,2.968,0.277h1.002l0.045,3.264h-0.344
	c0-1.662-1.11-2.652-3.465-2.652c-2.003,0-3.617,1.268-3.605,2.859c0.005,0.772,0.238,1.607,1.18,2.363l6.072,4.674L154.172,256.594
	z M160.607,264.227l0.006-0.3h0.4c1.113,0,2.016-0.725,2.038-1.625v-14.149c-0.022-0.899-0.926-1.625-2.042-1.625h-0.398
	l-0.006-0.301h6.797v0.301H167c-1.092,0-1.982,0.695-2.035,1.572v14.227c0.035,0.89,0.934,1.602,2.036,1.602h0.399l0.004,0.301
	h-6.797V264.227z M190.271,260.779c-1.396,1.768-4.319,3.865-8.543,3.865c-5.932-0.029-9.84-3.605-9.84-9.42
	c0-5.841,3.918-9.42,9.828-9.42c2.766,0,4.98,0.579,7.006,1.815l0.658,4.237h-0.264c-0.87-3.506-3.231-5.153-7.43-5.153
	c-4.582,0-7.635,3.237-7.635,8.521c0,5.262,3.068,8.521,7.672,8.521c2.496,0,4.713-0.771,6.592-2.601l0.052-3.984
	c0.01-0.756-0.521-1.18-1.396-1.18h-0.429v-0.301h5.502v0.301h-0.41c-0.877,0-1.368,0.422-1.366,1.188L190.271,260.779z
	 M216.77,246.227l-0.006,0.301h-0.498c-0.89,0-1.615,0.664-1.668,1.502v12.789c0,1.936,0.285,3.828,0.285,3.828h-0.285
	l-15.603-14.804v12.517c0.017,0.871,0.757,1.568,1.67,1.568h0.5l0.003,0.301h-5.67l0.004-0.301h0.5c0.912,0,1.652-0.699,1.67-1.566
	v-12.834c0-2.049-0.287-3.748-0.287-3.748l0.322,0.016l15.566,14.672v-12.439c-0.056-0.834-0.78-1.498-1.668-1.498h-0.498
	l-0.006-0.299h5.668V246.227L216.77,246.227z"/>
<g>
	<path fill="#FFFFFF" d="M195.16,63.913c3.848-12.854,14.744-30.704,36.058-29.895v1.04c-17.256,0.705-25.487,17.81-29.296,28.856
		l-19.974,57.933c0,0-2.11,6.605-2.271,11.555h-0.981L157.474,74.06l-16.753,52.354c-4.687,14.682-15.952,25.908-31.028,22.583
		l0.208-1.04c11.605,2.287,21.446-9.355,26.063-21.805l-21.027-59.388c-1.723-4.516-5.927-6.34-9.112-6.34h-0.83v-1.038h23.1v1.03
		h-0.914c-2.66,0-5.284,2.3-4.06,6.39l15.726,50.594l19.358-59.64l0.967,0.033l20.561,57.663l15.431-51.543H195.16L195.16,63.913z"
		/>
</g>
</svg>
