<?xml version="1.0" encoding="utf-8"?>
<!-- Generator: Adobe Illustrator 16.0.4, SVG Export Plug-In . SVG Version: 6.00 Build 0)  -->
<!DOCTYPE svg PUBLIC "-//W3C//DTD SVG 1.1//EN" "http://www.w3.org/Graphics/SVG/1.1/DTD/svg11.dtd">
<svg version="1.1" id="Layer_1" xmlns="http://www.w3.org/2000/svg" xmlns:xlink="http://www.w3.org/1999/xlink" x="0px" y="0px"
	 width="100px" height="27.844px" viewBox="0 0 100 27.844" enable-background="new 0 0 100 27.844" xml:space="preserve">
<path fill="#FFFFFF" d="M46.873,8.208c0.478-1.596,1.83-3.813,4.477-3.712v0.13c-2.143,0.085-3.165,2.21-3.637,3.582l-2.48,7.195
	c0,0-0.263,0.819-0.283,1.437h-0.122l-2.635-7.37l-2.08,6.502c-0.583,1.824-1.982,3.217-3.855,2.805l0.026-0.131
	c1.44,0.285,2.663-1.158,3.236-2.707l-2.61-7.377c-0.179-0.471-0.629-0.784-1.133-0.787h-0.103V7.646h2.87v0.127H38.43
	c-0.33,0-0.656,0.287-0.504,0.794l1.953,6.283l2.403-7.406l0.12,0.003l2.553,7.162L46.873,8.208L46.873,8.208z"/>
<path fill="#FFFFFF" d="M51.721,16.683h-2.828l0.002-0.128h0.164c0.45,0,0.817-0.359,0.825-0.812V8.581
	c-0.011-0.448-0.378-0.806-0.826-0.807h-0.165v-0.13h2.824l-0.005,0.13H51.55c-0.448-0.001-0.815,0.356-0.825,0.805v7.166
	c0.008,0.449,0.373,0.812,0.825,0.812h0.162l0.004,0.128L51.721,16.683z M62.02,12.484c-0.418,0-0.652,0.21-0.646,0.583v2.134
	c-0.588,0.783-1.797,1.662-3.733,1.662C54.895,16.85,53,14.973,53,12.163c0-2.818,1.895-4.698,4.637-4.698
	c1.42,0,2.369,0.383,3.129,0.87l0.26,1.825h-0.106c-0.392-1.478-1.571-2.31-3.276-2.31c-2.188,0-3.67,1.727-3.67,4.315
	c0,2.577,1.482,4.3,3.67,4.313c1.123,0,2.17-0.43,2.916-1.12v-2.287c0-0.378-0.248-0.59-0.666-0.59h-0.205v-0.128h2.529v0.128
	L62.02,12.484z M75.338,7.648v0.127h-0.113c-0.395,0-0.936,0.23-1.133,0.8l-2.14,6.83c0,0-0.261,0.818-0.28,1.435h-0.123l-2.64-7.38
	l-1.957,5.945c0,0-0.248,0.801-0.271,1.437h-0.119l-2.935-8.275c-0.178-0.47-0.627-0.783-1.13-0.787h-0.104V7.651h2.869v0.128H65.15
	c-0.33,0-0.655,0.285-0.504,0.792l1.953,6.284l2.401-7.406l0.12,0.003l2.548,7.144l1.729-6.046c0.125-0.495-0.149-0.77-0.5-0.77
	h-0.113V7.652h2.552L75.338,7.648L75.338,7.648z M82.197,15.741c0.262,0.573,0.738,0.812,1.135,0.812h0.107v0.13h-2.91v-0.13h0.113
	c0.334,0,0.681-0.292,0.491-0.812l-0.825-2.196h-3.479l-0.862,2.208c-0.184,0.51,0.16,0.802,0.492,0.802h0.113v0.127h-2.598v-0.128
	h0.113c0.395,0,0.87-0.236,1.13-0.812l2.931-6.946c0,0,0.479-1.047,0.479-1.33h0.117l3.451,8.274h0.002V15.741z M80.167,13.159
	l-1.558-4.142l-1.627,4.143h3.183L80.167,13.159z M93.98,15.747c0.063,0.51,0.479,0.81,0.938,0.81h0.205v0.127h-2.808v-0.12h0.199
	c0.28-0.003,0.53-0.262,0.506-0.553l-0.586-6.496l-2.715,6.032c0,0-0.356,0.784-0.439,1.317H89.16L85.859,9.7l-0.569,6.31
	c-0.013,0.292,0.214,0.538,0.505,0.552h0.2v0.12h-2.5v-0.127h0.204c0.462,0,0.876-0.298,0.941-0.811l0.971-8.279h0.119l3.603,7.79
	l3.524-7.785h0.117l1.002,8.274h0.004V15.747z"/>
<path fill="#F7F7F7" d="M55.7,20.478c1.245,0,2.032,0.724,2.032,1.9c0,1.175-0.787,1.896-2.033,1.896h-2.112l0.002-0.062h0.084
	c0.2,0,0.351-0.156,0.354-0.347v-2.981c-0.004-0.192-0.164-0.347-0.357-0.343c-0.002,0-0.004,0-0.006,0h-0.076l-0.002-0.062h2.109
	L55.7,20.478z M54.439,24.081H55.7c0.974,0,1.575-0.646,1.575-1.702c0-1.06-0.604-1.71-1.574-1.71h-1.26v3.412H54.439z
	 M61.252,24.274h-2.57v-0.062h0.088c0.203,0,0.357-0.15,0.365-0.336v-3.003c0-0.189-0.16-0.329-0.365-0.329h-0.088V20.48h1.846
	c0.258-0.002,0.6-0.057,0.711-0.1v0.716h-0.069v-0.098c0.007-0.174-0.128-0.318-0.301-0.325c-0.007,0-0.011,0-0.017,0h-1.311v1.61
	h1.08c0.177-0.004,0.257-0.125,0.257-0.271v-0.08h0.067v0.889h-0.067v-0.08c0-0.145-0.076-0.262-0.241-0.271H59.54v1.609h0.989
	c0.607-0.008,0.824-0.305,1.004-0.713H61.6L61.252,24.274L61.252,24.274z M64.46,22.665c0.194,0.164,0.282,0.434,0.284,0.678
	c0.006,0.566-0.494,1.02-1.12,1.02c-0.374,0-0.86-0.092-1.09-0.297c-0.038-0.17-0.024-0.539,0.063-0.787h0.07
	c-0.057,0.572,0.327,0.91,0.887,0.896c0.521-0.018,0.842-0.287,0.842-0.697c0.006-0.193-0.08-0.38-0.229-0.502l-1.265-0.977
	c-0.197-0.172-0.31-0.422-0.303-0.684c-0.008-0.515,0.463-0.924,1.047-0.924c0.289,0,0.482,0.025,0.625,0.061h0.213l0.009,0.687
	h-0.07c0-0.351-0.233-0.562-0.731-0.562c-0.422,0-0.762,0.269-0.76,0.604c0.002,0.163,0.049,0.34,0.25,0.5L64.46,22.665
	L64.46,22.665z M65.814,24.274l0.002-0.062H65.9c0.236,0,0.426-0.154,0.43-0.345v-2.982c-0.004-0.189-0.193-0.342-0.43-0.342h-0.084
	l-0.002-0.064h1.434v0.065h-0.084c-0.23,0-0.42,0.146-0.43,0.329v3c0.008,0.188,0.197,0.341,0.43,0.341h0.084v0.06H65.814z
	 M72.07,23.548c-0.295,0.372-0.912,0.813-1.803,0.813c-1.25-0.008-2.074-0.762-2.074-1.986c0-1.23,0.826-1.986,2.072-1.986
	c0.584,0,1.049,0.124,1.477,0.385l0.14,0.895h-0.056c-0.184-0.74-0.68-1.086-1.566-1.086c-0.965,0-1.609,0.683-1.609,1.796
	c0,1.108,0.649,1.796,1.617,1.796c0.527,0,0.996-0.162,1.392-0.551l0.013-0.838c0.003-0.159-0.109-0.25-0.296-0.25h-0.088v-0.062
	h1.157v0.062h-0.086c-0.187,0-0.291,0.088-0.286,0.25v0.764L72.07,23.548L72.07,23.548z M77.656,20.478v0.064h-0.105
	c-0.188,0-0.34,0.14-0.35,0.315v2.696c0,0.408,0.058,0.808,0.058,0.808h-0.06l-3.29-3.119v2.638
	c0.004,0.184,0.159,0.332,0.354,0.332h0.104l0.002,0.062h-1.195v-0.062h0.105c0.188,0.004,0.345-0.144,0.352-0.332v-2.705
	c0-0.433-0.061-0.79-0.061-0.79l0.068,0.002l3.281,3.093v-2.622c-0.016-0.182-0.169-0.318-0.354-0.314h-0.104l-0.002-0.064
	L77.656,20.478L77.656,20.478L77.656,20.478z"/>
<circle fill="#FFFFFF" cx="17" cy="13.928" r="11.788"/>
<path fill="#FFFFFF" d="M26.376,6.782c-1.596,1.552-2.066,2.655-2.485,3.872l-3.243,9.407c0,0-0.343,1.072-0.37,1.876H20.12
	l-3.447-9.636l-2.72,8.5c-0.49,1.539-2.685,3.432-2.685,3.432l-0.475-0.281c0,0,1.898-1.875,2.386-3.191l-3.415-9.643
	c-0.233-0.616-0.821-1.025-1.479-1.03H8.151V9.918h3.75v0.166h-0.15c-0.43,0-0.855,0.374-0.658,1.037l2.554,8.216l3.143-9.686
	l0.157,0.006l3.338,9.363l2.508-8.368l0.001,0.001c0.443-1.478,1.46-3.364,3.246-4.292C26.061,6.35,26.391,6.768,26.376,6.782z"/>
</svg>
